<svg width="56.571" xmlns="http://www.w3.org/2000/svg" height="72" id="screenshot-51aa5b83-99dd-8061-8006-9448ba691c72" viewBox="0 0 56.571 72" xmlns:xlink="http://www.w3.org/1999/xlink" fill="none" version="1.1"><g id="shape-51aa5b83-99dd-8061-8006-9448ba691c72" height="128" width="128" rx="0" ry="0" style="fill: rgb(0, 0, 0);"><g id="shape-51aa5b83-99dd-8061-8006-9448ba6b5af3"><defs><linearGradient x1="48" y1="204" x2="464" y2="204" id="render-63-b" gradientTransform="matrix(0.642857, 0.000000, 0.000000, 0.642857, -12.857143, -5.142857) matrix(0.211538 0 0 0.25 9.846159 57.000019)" gradientUnits="userSpaceOnUse"><stop offset="0" stop-color="#3d3846"/><stop offset=".045" stop-color="#5e5c64"/><stop offset=".091" stop-color="#3d3846"/><stop offset=".909" stop-color="#3d3846"/><stop offset=".955" stop-color="#5e5c64"/><stop offset="1" stop-color="#3d3846"/></linearGradient></defs><g class="fills" id="fills-51aa5b83-99dd-8061-8006-9448ba6b5af3"><path d="M5.142578125,18L51.4287109375,18C54.2685546875,18,56.5712890625,20.302734375,56.5712890625,23.14306640625L56.5712890625,66.85693359375C56.5712890625,69.697265625,54.2685546875,72,51.4287109375,72L5.142578125,72C2.302734375,72,1.8189894035458565e-12,69.697265625,1.8189894035458565e-12,66.85693359375L1.8189894035458565e-12,23.14306640625C1.8189894035458565e-12,20.302734375,2.302734375,18,5.142578125,18ZM5.142578125,18" fill="url(#render-63-b)" style="fill: url(&quot;#render-63-b&quot;);"/></g></g><g id="shape-51aa5b83-99dd-8061-8006-9448ba6b5af4"><g class="fills" id="fills-51aa5b83-99dd-8061-8006-9448ba6b5af4"><path d="M5.142578125,0L51.4287109375,0C54.2685546875,0,56.5712890625,2.302734375,56.5712890625,5.14306640625L56.5712890625,64.28564453125C56.5712890625,67.1259765625,54.2685546875,69.4287109375,51.4287109375,69.4287109375L5.142578125,69.4287109375C2.302734375,69.4287109375,1.8189894035458565e-12,67.1259765625,1.8189894035458565e-12,64.28564453125L1.8189894035458565e-12,5.14306640625C1.8189894035458565e-12,2.302734375,2.302734375,0,5.142578125,0ZM5.142578125,0" style="fill: rgb(94, 92, 100);"/></g></g><g id="shape-51aa5b83-99dd-8061-8006-944a78ed90e6" rx="0" ry="0"><g clip-path="url(#render-65-51aa5b83-99dd-8061-8006-9449df34eaa0-clip)"><g mask="url(#render-65-51aa5b83-99dd-8061-8006-9449df34eaa0-mask)"><defs><filter id="render-65-51aa5b83-99dd-8061-8006-9449df34eaa0-filter"><feFlood flood-color="white" result="FloodResult"/><feComposite in="FloodResult" in2="SourceGraphic" operator="in" result="comp"/></filter><clipPath id="render-65-51aa5b83-99dd-8061-8006-9449df34eaa0-clip" class="mask-clip-path"><polyline points="5.142857142858702,5.142857142856883 51.42857142857247,5.142857142856883 51.42857142857247,61.714285714286234 5.142857142858702,61.714285714286234"/></clipPath><mask width="46.285714285713766" maskUnits="userSpaceOnUse" height="56.57142857142935" class="mask-shape" x="5.142857142858702" id="render-65-51aa5b83-99dd-8061-8006-9449df34eaa0-mask" data-old-y="5.142857142856883" data-old-width="46.285714285713766" data-old-x="5.142857142858702" y="5.142857142856883" data-old-height="56.57142857142935"><g filter="url(#render-65-51aa5b83-99dd-8061-8006-9449df34eaa0-filter)"><g id="shape-51aa5b83-99dd-8061-8006-9449df34eaa0"><g class="fills" id="fills-51aa5b83-99dd-8061-8006-9449df34eaa0"><path d="M7.7138671875,5.14306640625L48.857421875,5.14306640625C50.2783203125,5.14306640625,51.4287109375,6.29296875,51.4287109375,7.71435546875L51.4287109375,59.14306640625C51.4287109375,60.56396484375,50.2783203125,61.71435546875,48.857421875,61.71435546875L7.7138671875,61.71435546875C6.29296875,61.71435546875,5.142578125,60.56396484375,5.142578125,59.14306640625L5.142578125,7.71435546875C5.142578125,6.29296875,6.29296875,5.14306640625,7.7138671875,5.14306640625ZM7.7138671875,5.14306640625" style="fill: rgb(246, 245, 244);"/></g></g></g></mask></defs><g id="shape-51aa5b83-99dd-8061-8006-944a36433219" rx="0" ry="0"><g id="shape-51aa5b83-99dd-8061-8006-9448ba6b5af5"><g class="fills" id="fills-51aa5b83-99dd-8061-8006-9448ba6b5af5"><path d="M7.7138671875,5.14306640625L48.857421875,5.14306640625C50.2783203125,5.14306640625,51.4287109375,6.29296875,51.4287109375,7.71435546875L51.4287109375,59.14306640625C51.4287109375,60.56396484375,50.2783203125,61.71435546875,48.857421875,61.71435546875L7.7138671875,61.71435546875C6.29296875,61.71435546875,5.142578125,60.56396484375,5.142578125,59.14306640625L5.142578125,7.71435546875C5.142578125,6.29296875,6.29296875,5.14306640625,7.7138671875,5.14306640625ZM7.7138671875,5.14306640625" style="fill: rgb(246, 245, 244);"/></g></g><g id="shape-51aa5b83-99dd-8061-8006-9448ba6b5af6"><g class="fills" id="fills-51aa5b83-99dd-8061-8006-9448ba6b5af6"><path d="M5.142578125,45.77197265625L5.142578125,60.68017578125C5.142578125,61.43212890625,5.7490234375,62.03564453125,6.50390625,62.03564453125L50.0673828125,62.03564453125C50.822265625,62.03564453125,51.3837890625,61.4296875,51.4287109375,60.68017578125L51.4287109375,48.482421875C51.4287109375,48.482421875,44.6220703125,44.4169921875,31.8349609375,44.69189453125C22.8486328125,44.8876953125,14.671875,52.54833984375,5.142578125,45.77197265625ZM5.142578125,45.77197265625" style="fill: rgb(237, 51, 59);"/></g></g><g id="shape-51aa5b83-99dd-8061-8006-9448ba6b5af8" rx="0" ry="0" style="fill: rgb(0, 0, 0);"><g id="shape-467d704a-bf2b-80af-8006-944affe537f3" rx="0" ry="0"><g id="shape-51aa5b83-99dd-8061-8006-9448ba6b90c9"><g class="fills" id="fills-51aa5b83-99dd-8061-8006-9448ba6b90c9"><path d="M34.2119140625,22.23876953125C33.8505859375,25.59375,30.8349609375,28.02197265625,27.4794921875,27.65771484375C24.1220703125,27.29638671875,21.6943359375,24.28271484375,22.0576171875,20.92529296875C22.419921875,17.56787109375,25.435546875,15.14208984375,28.7900390625,15.50390625C32.1474609375,15.86572265625,34.5732421875,18.88134765625,34.2119140625,22.23876953125ZM34.2119140625,22.23876953125" style="fill: rgb(53, 132, 228);"/></g></g><g id="shape-51aa5b83-99dd-8061-8006-9448ba6bf990"><g class="fills" id="fills-51aa5b83-99dd-8061-8006-9448ba6bf990"><path d="M29.5283203125,28.2431640625L29.28515625,29.8955078125C29.294921875,30.26220703125,29.240234375,30.62109375,29.126953125,30.97509765625C28.486328125,31.11328125,27.8740234375,31.1259765625,27.2763671875,31.0654296875C27.0673828125,30.6787109375,27.0654296875,30.2919921875,27.0576171875,29.90771484375L26.6982421875,28.02978515625L26.9091796875,28.125L27.2236328125,29.900390625C27.8994140625,29.84765625,28.4189453125,29.84765625,29.1298828125,29.8603515625L29.3525390625,28.29052734375ZM29.5283203125,28.2431640625" style="fill: rgb(28, 113, 216);"/></g></g><g id="shape-51aa5b83-99dd-8061-8006-9448ba6bf991"><g class="fills" id="fills-51aa5b83-99dd-8061-8006-9448ba6bf991"><path d="M29.5234375,28.30322265625C28.5791015625,28.4287109375,27.6533203125,28.3837890625,26.744140625,28.177734375C26.3671875,27.64306640625,25.8623046875,27.30908203125,25.2470703125,26.96728515625L28.0419921875,26.455078125L31.0634765625,26.9521484375C30.13671875,27.51220703125,29.734375,27.75341796875,29.5234375,28.30322265625ZM29.5234375,28.30322265625" style="fill: rgb(28, 113, 216);"/></g></g><g id="shape-51aa5b83-99dd-8061-8006-9448ba6bf992"><g class="fills" id="fills-51aa5b83-99dd-8061-8006-9448ba6bf992"><path d="M28.3212890625,29.11962890625C28.3359375,29.2802734375,28.2158203125,29.4208984375,28.0546875,29.43310546875C27.896484375,29.4482421875,27.7529296875,29.33056640625,27.7412109375,29.16943359375C27.7255859375,29.0087890625,27.8466796875,28.8681640625,28.0068359375,28.85302734375C28.1650390625,28.8408203125,28.30859375,28.95849609375,28.3212890625,29.11962890625ZM28.3212890625,29.11962890625" style="fill: rgb(28, 113, 216);"/></g></g><g id="shape-51aa5b83-99dd-8061-8006-9448ba6bf993"><g class="fills" id="fills-51aa5b83-99dd-8061-8006-9448ba6bf993"><path d="M28.0576171875,29.47607421875C28.3037109375,29.45361328125,28.521484375,29.63671875,28.5439453125,29.88525390625C28.564453125,30.13134765625,28.380859375,30.35009765625,28.1328125,30.37255859375C27.88671875,30.392578125,27.66796875,30.20947265625,27.6474609375,29.96044921875C27.625,29.71435546875,27.80859375,29.49609375,28.0576171875,29.47607421875ZM28.0576171875,29.47607421875" style="fill: rgb(28, 113, 216);"/></g></g><g id="shape-51aa5b83-99dd-8061-8006-9448ba6bf994"><g class="fills" id="fills-51aa5b83-99dd-8061-8006-9448ba6bf994"><path d="M27.7177734375,29.18212890625L27.4541015625,29.2724609375L27.60546875,29.28515625L27.5146484375,29.37548828125L27.642578125,29.34033203125L27.580078125,29.48583984375L27.7607421875,29.29541015625L27.7333984375,29.24755859375ZM27.7177734375,29.18212890625" style="fill: rgb(28, 113, 216);"/></g></g><g id="shape-51aa5b83-99dd-8061-8006-9448ba6bf995"><g class="fills" id="fills-51aa5b83-99dd-8061-8006-9448ba6bf995"><path d="M28.3486328125,29.12939453125L28.625,29.17236328125L28.4765625,29.2099609375L28.58203125,29.28271484375L28.44921875,29.2724609375L28.537109375,29.4033203125L28.326171875,29.2451171875L28.345703125,29.19482421875ZM28.3486328125,29.12939453125" style="fill: rgb(28, 113, 216);"/></g></g></g><g id="shape-467d704a-bf2b-80af-8006-944af6d81ce0" rx="0" ry="0"><g id="shape-51aa5b83-99dd-8061-8006-9448ba6bf996"><g class="fills" id="fills-51aa5b83-99dd-8061-8006-9448ba6bf996"><path d="M47.4560546875,28.85595703125C47.310546875,31.15576171875,45.326171875,32.9013671875,43.0263671875,32.75537109375C40.728515625,32.60986328125,38.98046875,30.62841796875,39.1259765625,28.32861328125C39.2724609375,26.0283203125,41.2529296875,24.28271484375,43.5537109375,24.42626953125C45.853515625,24.57177734375,47.6015625,26.5556640625,47.4560546875,28.85595703125ZM47.4560546875,28.85595703125" style="fill: rgb(38, 162, 105);"/></g></g><g id="shape-51aa5b83-99dd-8061-8006-9448ba6bf997"><g class="fills" id="fills-51aa5b83-99dd-8061-8006-9448ba6bf997"><path d="M44.4423828125,33.09228515625L44.3271484375,34.22705078125C44.3447265625,34.4755859375,44.3173828125,34.7216796875,44.251953125,34.9677734375C43.8193359375,35.0810546875,43.4033203125,35.1083984375,42.9931640625,35.0859375C42.837890625,34.8271484375,42.8251953125,34.56591796875,42.8076171875,34.30224609375L42.5068359375,33.03173828125L42.79296875,33.0771484375L43.0615234375,34.27734375C43.5205078125,34.22216796875,43.619140625,34.23486328125,44.103515625,34.2197265625L44.208984375,33.14208984375ZM44.4423828125,33.09228515625" style="fill: rgb(31, 127, 83); fill-opacity: 1;"/></g></g><g id="shape-51aa5b83-99dd-8061-8006-9448ba6c3828"><g class="fills" id="fills-51aa5b83-99dd-8061-8006-9448ba6c3828"><path d="M44.4423828125,33.13232421875C43.8017578125,33.24755859375,43.1689453125,33.2451171875,42.5419921875,33.13232421875C42.267578125,32.7783203125,41.9140625,32.56494140625,41.484375,32.35107421875L43.375,31.9169921875L45.44921875,32.16552734375C44.833984375,32.57470703125,44.5703125,32.7529296875,44.4423828125,33.13232421875ZM44.4423828125,33.13232421875" style="fill: rgb(31, 127, 83); fill-opacity: 1;"/></g></g><g id="shape-51aa5b83-99dd-8061-8006-9448ba6c3829"><g class="fills" id="fills-51aa5b83-99dd-8061-8006-9448ba6c3829"><path d="M43.724609375,34.23486328125C43.7470703125,34.44287109375,43.6943359375,34.62158203125,43.603515625,34.63134765625C43.513671875,34.6416015625,43.4228515625,34.47802734375,43.400390625,34.27001953125C43.3779296875,34.0615234375,43.4306640625,33.8857421875,43.5205078125,33.87548828125C43.611328125,33.86572265625,43.7021484375,34.0263671875,43.724609375,34.23486328125ZM43.724609375,34.23486328125" style="fill: rgb(31, 127, 83); fill-opacity: 1;"/></g></g></g><g id="shape-467d704a-bf2b-80af-8006-944ae45c65ef" rx="0" ry="0"><g id="shape-51aa5b83-99dd-8061-8006-9448ba6c382a"><g class="fills" id="fills-51aa5b83-99dd-8061-8006-9448ba6c382a"><path d="M17.7724609375,28.0693359375C18.958984375,29.53564453125,18.73046875,31.68603515625,17.26171875,32.87060546875C15.79296875,34.0546875,13.6435546875,33.82568359375,12.458984375,32.357421875C11.2724609375,30.890625,11.5029296875,28.74169921875,12.9697265625,27.5556640625C14.4384765625,26.37158203125,16.5888671875,26.6005859375,17.7724609375,28.0693359375ZM17.7724609375,28.0693359375" style="fill: rgb(255, 163, 72); fill-opacity: 1;"/></g></g><g id="shape-51aa5b83-99dd-8061-8006-9448ba6c382b"><g class="fills" id="fills-51aa5b83-99dd-8061-8006-9448ba6c382b"><path d="M15.8994140625,33.93310546875L15.763671875,34.857421875C15.7685546875,35.06103515625,15.73828125,35.26171875,15.67578125,35.4599609375C15.3193359375,35.5380859375,14.9775390625,35.54541015625,14.6435546875,35.5126953125C14.525390625,35.296875,14.525390625,35.0810546875,14.5185546875,34.86474609375L14.3173828125,33.8154296875L14.5234375,33.86279296875L14.69921875,34.8525390625C15.078125,34.822265625,15.2138671875,34.83984375,15.6103515625,34.8447265625L15.7333984375,33.96826171875ZM15.8994140625,33.93310546875" style="fill: rgb(207, 132, 58);"/></g></g><g id="shape-51aa5b83-99dd-8061-8006-9448ba6c382c"><g class="fills" id="fills-51aa5b83-99dd-8061-8006-9448ba6c382c"><path d="M15.896484375,33.9658203125C15.369140625,34.03857421875,14.8525390625,34.013671875,14.3427734375,33.90087890625C14.1318359375,33.60205078125,13.8505859375,33.41357421875,13.505859375,33.22265625L15.068359375,32.9365234375L16.755859375,33.21240234375C16.23828125,33.5263671875,16.0146484375,33.662109375,15.896484375,33.9658203125ZM15.896484375,33.9658203125" style="fill: rgb(207, 132, 58); fill-opacity: 1;"/></g></g><g id="shape-51aa5b83-99dd-8061-8006-9448ba6c382d"><g class="fills" id="fills-51aa5b83-99dd-8061-8006-9448ba6c382d"><path d="M15.271484375,34.84228515625C15.2841796875,35.015625,15.2314453125,35.15625,15.158203125,35.1611328125C15.0859375,35.16650390625,15.015625,35.033203125,15.005859375,34.85986328125C14.9931640625,34.68896484375,15.04296875,34.5458984375,15.1181640625,34.541015625C15.19140625,34.53857421875,15.26171875,34.67138671875,15.271484375,34.84228515625ZM15.271484375,34.84228515625" style="fill: rgb(207, 132, 58);"/></g></g></g></g></g></g></g></g><g id="shape-51aa5b83-99dd-8061-8006-9448ba6b5af7"><g class="fills" id="fills-51aa5b83-99dd-8061-8006-9448ba6b5af7"><path d="M7.7138671875,3.85693359375C6.2900390625,3.85693359375,5.142578125,5.0048828125,5.142578125,6.4287109375L5.142578125,7.71435546875C5.142578125,6.29052734375,6.2900390625,5.14306640625,7.7138671875,5.14306640625L48.857421875,5.14306640625C50.28125,5.14306640625,51.4287109375,6.29052734375,51.4287109375,7.71435546875L51.4287109375,6.4287109375C51.4287109375,5.0048828125,50.28125,3.85693359375,48.857421875,3.85693359375ZM7.7138671875,3.85693359375" style="fill: rgb(61, 56, 70);"/></g></g></g></svg>