<svg width="56.571" xmlns="http://www.w3.org/2000/svg" height="72" id="screenshot-51aa5b83-99dd-8061-8006-9448ba691c72" viewBox="0 0 56.571 72" xmlns:xlink="http://www.w3.org/1999/xlink" fill="none" version="1.1"><g id="shape-51aa5b83-99dd-8061-8006-9448ba691c72" height="128" width="128" rx="0" ry="0" style="fill: rgb(0, 0, 0);"><g id="shape-51aa5b83-99dd-8061-8006-9448ba6b5af3"><defs><linearGradient x1="48" y1="204" x2="464" y2="204" id="render-2-b" gradientTransform="matrix(0.642857, 0.000000, 0.000000, 0.642857, -12.857143, -5.142857) matrix(0.211538 0 0 0.25 9.846159 57.000019)" gradientUnits="userSpaceOnUse"><stop offset="0" stop-color="#3d3846"/><stop offset=".045" stop-color="#5e5c64"/><stop offset=".091" stop-color="#3d3846"/><stop offset=".909" stop-color="#3d3846"/><stop offset=".955" stop-color="#5e5c64"/><stop offset="1" stop-color="#3d3846"/></linearGradient></defs><g class="fills" id="fills-51aa5b83-99dd-8061-8006-9448ba6b5af3"><path d="M5.142345428466797,18L51.4284782409668,18C54.2683219909668,18,56.5710563659668,20.302734375,56.5710563659668,23.14306640625L56.5710563659668,66.85693359375C56.5710563659668,69.697265625,54.2683219909668,72,51.4284782409668,72L5.142345428466797,72C2.302501916885376,72,-0.00023251486709341407,69.697265625,-0.00023251486709341407,66.85693359375L-0.00023251486709341407,23.14306640625C-0.00023251486709341407,20.302734375,2.302501916885376,18,5.142345428466797,18ZM5.142345428466797,18" fill="url(#render-2-b)" style="fill: rgb(94, 94, 98); fill-opacity: 1;"/></g></g><g id="shape-51aa5b83-99dd-8061-8006-9448ba6b5af4"><g class="fills" id="fills-51aa5b83-99dd-8061-8006-9448ba6b5af4"><path d="M5.142345428466797,0L51.4284782409668,0C54.2683219909668,0,56.5710563659668,2.302734375,56.5710563659668,5.14306640625L56.5710563659668,64.28564453125C56.5710563659668,67.1259765625,54.2683219909668,69.4287109375,51.4284782409668,69.4287109375L5.142345428466797,69.4287109375C2.302501916885376,69.4287109375,-0.00023251486709341407,67.1259765625,-0.00023251486709341407,64.28564453125L-0.00023251486709341407,5.14306640625C-0.00023251486709341407,2.302734375,2.302501916885376,0,5.142345428466797,0ZM5.142345428466797,0" style="fill: rgb(227, 226, 230); fill-opacity: 1;"/></g></g><g id="shape-51aa5b83-99dd-8061-8006-944a78ed90e6" rx="0" ry="0"><g clip-path="url(#render-4-51aa5b83-99dd-8061-8006-9449df34eaa0-clip)"><g mask="url(#render-4-51aa5b83-99dd-8061-8006-9449df34eaa0-mask)"><defs><filter id="render-4-51aa5b83-99dd-8061-8006-9449df34eaa0-filter"><feFlood flood-color="white" result="FloodResult"/><feComposite in="FloodResult" in2="SourceGraphic" operator="in" result="comp"/></filter><clipPath id="render-4-51aa5b83-99dd-8061-8006-9449df34eaa0-clip" class="mask-clip-path"><polyline points="5.142857142858702,5.142857142856883 51.42857142857247,5.142857142856883 51.42857142857247,61.714285714286234 5.142857142858702,61.714285714286234"/></clipPath><mask width="46.285714285713766" maskUnits="userSpaceOnUse" height="56.57142857142935" class="mask-shape" x="5.142857142858702" id="render-4-51aa5b83-99dd-8061-8006-9449df34eaa0-mask" data-old-y="5.142857142856883" data-old-width="46.285714285713766" data-old-x="5.142857142858702" y="5.142857142856883" data-old-height="56.57142857142935"><g filter="url(#render-4-51aa5b83-99dd-8061-8006-9449df34eaa0-filter)"><g id="shape-51aa5b83-99dd-8061-8006-9449df34eaa0"><g class="fills" id="fills-51aa5b83-99dd-8061-8006-9449df34eaa0"><path d="M7.713634490966797,5.14306640625L48.8571891784668,5.14306640625C50.2780876159668,5.14306640625,51.4284782409668,6.29296875,51.4284782409668,7.71435546875L51.4284782409668,59.14306640625C51.4284782409668,60.56396484375,50.2780876159668,61.71435546875,48.8571891784668,61.71435546875L7.713634490966797,61.71435546875C6.292736053466797,61.71435546875,5.142345428466797,60.56396484375,5.142345428466797,59.14306640625L5.142345428466797,7.71435546875C5.142345428466797,6.29296875,6.292736053466797,5.14306640625,7.713634490966797,5.14306640625ZM7.713634490966797,5.14306640625" style="fill: rgb(246, 245, 244);"/></g></g></g></mask></defs><g id="shape-51aa5b83-99dd-8061-8006-944a36433219" rx="0" ry="0"><g id="shape-51aa5b83-99dd-8061-8006-9448ba6b5af5"><g class="fills" id="fills-51aa5b83-99dd-8061-8006-9448ba6b5af5"><path d="M7.713634490966797,5.14306640625L48.8571891784668,5.14306640625C50.2780876159668,5.14306640625,51.4284782409668,6.29296875,51.4284782409668,7.71435546875L51.4284782409668,59.14306640625C51.4284782409668,60.56396484375,50.2780876159668,61.71435546875,48.8571891784668,61.71435546875L7.713634490966797,61.71435546875C6.292736053466797,61.71435546875,5.142345428466797,60.56396484375,5.142345428466797,59.14306640625L5.142345428466797,7.71435546875C5.142345428466797,6.29296875,6.292736053466797,5.14306640625,7.713634490966797,5.14306640625ZM7.713634490966797,5.14306640625" style="fill: rgb(246, 245, 244);"/></g></g><g id="shape-2e717718-ef29-80ca-8006-9722807bb691"><g class="fills" id="fills-2e717718-ef29-80ca-8006-9722807bb691"><path d="M7.285900115966797,61.71435546875C5.624767303466797,61.71435546875,4.285900115966797,60.3798828125,4.285900115966797,58.7236328125L4.285900115966797,46.7607421875C22.285900115966797,31.8076171875,34.2859001159668,55.73291015625,52.2859001159668,46.7607421875L52.2859001159668,58.7236328125C52.2859001159668,60.3798828125,50.9470329284668,61.71435546875,49.2859001159668,61.71435546875ZM7.285900115966797,61.71435546875" style="fill: rgb(237, 51, 59);"/></g></g><g id="shape-51aa5b83-99dd-8061-8006-9448ba6b5af8" rx="0" ry="0" style="fill: rgb(0, 0, 0);"><g id="shape-467d704a-bf2b-80af-8006-944affe537f3" rx="0" ry="0"><g id="shape-51aa5b83-99dd-8061-8006-9448ba6b90c9"><g class="fills" id="fills-51aa5b83-99dd-8061-8006-9448ba6b90c9"><path d="M34.2116813659668,22.23876953125C33.8503532409668,25.59375,30.834728240966797,28.02197265625,27.479259490966797,27.65771484375C24.121837615966797,27.29638671875,21.694103240966797,24.28271484375,22.057384490966797,20.92529296875C22.419689178466797,17.56787109375,25.435314178466797,15.14208984375,28.789806365966797,15.50390625C32.1472282409668,15.86572265625,34.5730094909668,18.88134765625,34.2116813659668,22.23876953125ZM34.2116813659668,22.23876953125" style="fill: rgb(53, 132, 228);"/></g></g><g id="shape-51aa5b83-99dd-8061-8006-9448ba6bf990"><g class="fills" id="fills-51aa5b83-99dd-8061-8006-9448ba6bf990"><path d="M29.528087615966797,28.2431640625L29.284923553466797,29.8955078125C29.294689178466797,30.26220703125,29.240001678466797,30.62109375,29.126720428466797,30.97509765625C28.486095428466797,31.11328125,27.873790740966797,31.1259765625,27.276134490966797,31.0654296875C27.067150115966797,30.6787109375,27.065196990966797,30.2919921875,27.057384490966797,29.90771484375L26.698009490966797,28.02978515625L26.908946990966797,28.125L27.223400115966797,29.900390625C27.899181365966797,29.84765625,28.418712615966797,29.84765625,29.129650115966797,29.8603515625L29.352306365966797,28.29052734375ZM29.528087615966797,28.2431640625" style="fill: rgb(28, 113, 216);"/></g></g><g id="shape-51aa5b83-99dd-8061-8006-9448ba6bf991"><g class="fills" id="fills-51aa5b83-99dd-8061-8006-9448ba6bf991"><path d="M29.523204803466797,28.30322265625C28.578868865966797,28.4287109375,27.653087615966797,28.3837890625,26.743907928466797,28.177734375C26.366954803466797,27.64306640625,25.862071990966797,27.30908203125,25.246837615966797,26.96728515625L28.041759490966797,26.455078125L31.063243865966797,26.9521484375C30.136486053466797,27.51220703125,29.734142303466797,27.75341796875,29.523204803466797,28.30322265625ZM29.523204803466797,28.30322265625" style="fill: rgb(28, 113, 216);"/></g></g><g id="shape-51aa5b83-99dd-8061-8006-9448ba6bf992"><g class="fills" id="fills-51aa5b83-99dd-8061-8006-9448ba6bf992"><path d="M28.321056365966797,29.11962890625C28.335704803466797,29.2802734375,28.215587615966797,29.4208984375,28.054454803466797,29.43310546875C27.896251678466797,29.4482421875,27.752696990966797,29.33056640625,27.740978240966797,29.16943359375C27.725353240966797,29.0087890625,27.846446990966797,28.8681640625,28.006603240966797,28.85302734375C28.164806365966797,28.8408203125,28.308361053466797,28.95849609375,28.321056365966797,29.11962890625ZM28.321056365966797,29.11962890625" style="fill: rgb(28, 113, 216);"/></g></g><g id="shape-51aa5b83-99dd-8061-8006-9448ba6bf993"><g class="fills" id="fills-51aa5b83-99dd-8061-8006-9448ba6bf993"><path d="M28.057384490966797,29.47607421875C28.303478240966797,29.45361328125,28.521251678466797,29.63671875,28.543712615966797,29.88525390625C28.564220428466797,30.13134765625,28.380626678466797,30.35009765625,28.132579803466797,30.37255859375C27.886486053466797,30.392578125,27.667736053466797,30.20947265625,27.647228240966797,29.96044921875C27.624767303466797,29.71435546875,27.808361053466797,29.49609375,28.057384490966797,29.47607421875ZM28.057384490966797,29.47607421875" style="fill: rgb(28, 113, 216);"/></g></g><g id="shape-51aa5b83-99dd-8061-8006-9448ba6bf994"><g class="fills" id="fills-51aa5b83-99dd-8061-8006-9448ba6bf994"><path d="M27.717540740966797,29.18212890625L27.453868865966797,29.2724609375L27.605236053466797,29.28515625L27.514415740966797,29.37548828125L27.642345428466797,29.34033203125L27.579845428466797,29.48583984375L27.760509490966797,29.29541015625L27.733165740966797,29.24755859375ZM27.717540740966797,29.18212890625" style="fill: rgb(28, 113, 216);"/></g></g><g id="shape-51aa5b83-99dd-8061-8006-9448ba6bf995"><g class="fills" id="fills-51aa5b83-99dd-8061-8006-9448ba6bf995"><path d="M28.348400115966797,29.12939453125L28.624767303466797,29.17236328125L28.476329803466797,29.2099609375L28.581798553466797,29.28271484375L28.448986053466797,29.2724609375L28.536876678466797,29.4033203125L28.325939178466797,29.2451171875L28.345470428466797,29.19482421875ZM28.348400115966797,29.12939453125" style="fill: rgb(28, 113, 216);"/></g></g></g><g id="shape-467d704a-bf2b-80af-8006-944af6d81ce0" rx="0" ry="0"><g id="shape-51aa5b83-99dd-8061-8006-9448ba6bf996"><g class="fills" id="fills-51aa5b83-99dd-8061-8006-9448ba6bf996"><path d="M47.4558219909668,28.85595703125C47.3103141784668,31.15576171875,45.3259391784668,32.9013671875,43.0261344909668,32.75537109375C40.7282829284668,32.60986328125,38.9802360534668,30.62841796875,39.1257438659668,28.32861328125C39.2722282409668,26.0283203125,41.2526969909668,24.28271484375,43.5534782409668,24.42626953125C45.8532829284668,24.57177734375,47.6013298034668,26.5556640625,47.4558219909668,28.85595703125ZM47.4558219909668,28.85595703125" style="fill: rgb(38, 162, 105);"/></g></g><g id="shape-51aa5b83-99dd-8061-8006-9448ba6bf997"><g class="fills" id="fills-51aa5b83-99dd-8061-8006-9448ba6bf997"><path d="M44.4421501159668,33.09228515625L44.3269157409668,34.22705078125C44.3444938659668,34.4755859375,44.3171501159668,34.7216796875,44.2517204284668,34.9677734375C43.8191032409668,35.0810546875,43.4030876159668,35.1083984375,42.9929313659668,35.0859375C42.8376579284668,34.8271484375,42.8249626159668,34.56591796875,42.8073844909668,34.30224609375L42.5066032409668,33.03173828125L42.7927360534668,33.0771484375L43.0612907409668,34.27734375C43.5202751159668,34.22216796875,43.6189079284668,34.23486328125,44.1032829284668,34.2197265625L44.2087516784668,33.14208984375ZM44.4421501159668,33.09228515625" style="fill: rgb(31, 127, 83); fill-opacity: 1;"/></g></g><g id="shape-51aa5b83-99dd-8061-8006-9448ba6c3828"><g class="fills" id="fills-51aa5b83-99dd-8061-8006-9448ba6c3828"><path d="M44.4421501159668,33.13232421875C43.8015251159668,33.24755859375,43.1687126159668,33.2451171875,42.5417594909668,33.13232421875C42.2673454284668,32.7783203125,41.9138298034668,32.56494140625,41.4841423034668,32.35107421875L43.3747673034668,31.9169921875L45.4489860534668,32.16552734375C44.8337516784668,32.57470703125,44.5700798034668,32.7529296875,44.4421501159668,33.13232421875ZM44.4421501159668,33.13232421875" style="fill: rgb(31, 127, 83); fill-opacity: 1;"/></g></g><g id="shape-51aa5b83-99dd-8061-8006-9448ba6c3829"><g class="fills" id="fills-51aa5b83-99dd-8061-8006-9448ba6c3829"><path d="M43.7243766784668,34.23486328125C43.7468376159668,34.44287109375,43.6941032409668,34.62158203125,43.6032829284668,34.63134765625C43.5134391784668,34.6416015625,43.4226188659668,34.47802734375,43.4001579284668,34.27001953125C43.3776969909668,34.0615234375,43.4304313659668,33.8857421875,43.5202751159668,33.87548828125C43.6110954284668,33.86572265625,43.7019157409668,34.0263671875,43.7243766784668,34.23486328125ZM43.7243766784668,34.23486328125" style="fill: rgb(31, 127, 83); fill-opacity: 1;"/></g></g></g><g id="shape-467d704a-bf2b-80af-8006-944ae45c65ef" rx="0" ry="0"><g id="shape-51aa5b83-99dd-8061-8006-9448ba6c382a"><g class="fills" id="fills-51aa5b83-99dd-8061-8006-9448ba6c382a"><path d="M17.772228240966797,28.0693359375C18.958751678466797,29.53564453125,18.730236053466797,31.68603515625,17.261486053466797,32.87060546875C15.792736053466797,34.0546875,13.643321990966797,33.82568359375,12.458751678466797,32.357421875C11.272228240966797,30.890625,11.502696990966797,28.74169921875,12.969493865966797,27.5556640625C14.438243865966797,26.37158203125,16.588634490966797,26.6005859375,17.772228240966797,28.0693359375ZM17.772228240966797,28.0693359375" style="fill: rgb(255, 163, 72); fill-opacity: 1;"/></g></g><g id="shape-51aa5b83-99dd-8061-8006-9448ba6c382b"><g class="fills" id="fills-51aa5b83-99dd-8061-8006-9448ba6c382b"><path d="M15.899181365966797,33.93310546875L15.763439178466797,34.857421875C15.768321990966797,35.06103515625,15.738048553466797,35.26171875,15.675548553466797,35.4599609375C15.319103240966797,35.5380859375,14.977306365966797,35.54541015625,14.643321990966797,35.5126953125C14.525157928466797,35.296875,14.525157928466797,35.0810546875,14.518321990966797,34.86474609375L14.317150115966797,33.8154296875L14.523204803466797,33.86279296875L14.698986053466797,34.8525390625C15.077892303466797,34.822265625,15.213634490966797,34.83984375,15.610118865966797,34.8447265625L15.733165740966797,33.96826171875ZM15.899181365966797,33.93310546875" style="fill: rgb(207, 132, 58);"/></g></g><g id="shape-51aa5b83-99dd-8061-8006-9448ba6c382c"><g class="fills" id="fills-51aa5b83-99dd-8061-8006-9448ba6c382c"><path d="M15.896251678466797,33.9658203125C15.368907928466797,34.03857421875,14.852306365966797,34.013671875,14.342540740966797,33.90087890625C14.131603240966797,33.60205078125,13.850353240966797,33.41357421875,13.505626678466797,33.22265625L15.068126678466797,32.9365234375L16.755626678466797,33.21240234375C16.238048553466797,33.5263671875,16.014415740966797,33.662109375,15.896251678466797,33.9658203125ZM15.896251678466797,33.9658203125" style="fill: rgb(207, 132, 58); fill-opacity: 1;"/></g></g><g id="shape-51aa5b83-99dd-8061-8006-9448ba6c382d"><g class="fills" id="fills-51aa5b83-99dd-8061-8006-9448ba6c382d"><path d="M15.271251678466797,34.84228515625C15.283946990966797,35.015625,15.231212615966797,35.15625,15.157970428466797,35.1611328125C15.085704803466797,35.16650390625,15.015392303466797,35.033203125,15.005626678466797,34.85986328125C14.992931365966797,34.68896484375,15.042736053466797,34.5458984375,15.117931365966797,34.541015625C15.191173553466797,34.53857421875,15.261486053466797,34.67138671875,15.271251678466797,34.84228515625ZM15.271251678466797,34.84228515625" style="fill: rgb(207, 132, 58);"/></g></g></g></g></g></g></g></g><g id="shape-51aa5b83-99dd-8061-8006-9448ba6b5af7"><g class="fills" id="fills-51aa5b83-99dd-8061-8006-9448ba6b5af7"><path d="M7.713634490966797,3.85693359375C6.289806365966797,3.85693359375,5.142345428466797,5.0048828125,5.142345428466797,6.4287109375L5.142345428466797,7.71435546875C5.142345428466797,6.29052734375,6.289806365966797,5.14306640625,7.713634490966797,5.14306640625L48.8571891784668,5.14306640625C50.2810173034668,5.14306640625,51.4284782409668,6.29052734375,51.4284782409668,7.71435546875L51.4284782409668,6.4287109375C51.4284782409668,5.0048828125,50.2810173034668,3.85693359375,48.8571891784668,3.85693359375ZM7.713634490966797,3.85693359375" style="fill: rgb(94, 94, 98); fill-opacity: 1;"/></g></g></g></svg>