<svg width="72" xmlns="http://www.w3.org/2000/svg" height="72" id="screenshot-953ea0fd-82bd-8032-8006-93b4c0bbe6ae" viewBox="0 0 72 72" xmlns:xlink="http://www.w3.org/1999/xlink" fill="none" version="1.1"><g id="shape-953ea0fd-82bd-8032-8006-93b4c0bbe6ae" rx="0" ry="0"><g id="shape-953ea0fd-82bd-8032-8006-93b4c0bbe6b1" width="48" height="48" rx="0" ry="0" style="fill: rgb(0, 0, 0);"><g id="shape-953ea0fd-82bd-8032-8006-93b4c0bbe6b2"><g class="fills" id="fills-953ea0fd-82bd-8032-8006-93b4c0bbe6b2"><rect rx="10" ry="10" x="0" y="0" transform="matrix(1.000000, 0.000000, 0.000000, 1.000000, 0.000000, 0.000000)" width="72" height="72" style="fill: rgb(255, 84, 73); fill-opacity: 1;"/></g></g><g id="shape-953ea0fd-82bd-8032-8006-93b4c0bbe6b3" rx="0" ry="0"><g id="shape-953ea0fd-82bd-8032-8006-93b4c0bbe6b4"><g class="fills" id="fills-953ea0fd-82bd-8032-8006-93b4c0bbe6b4"><path d="M48.79464340209961,34.5556640625C49.96163558959961,33.39208984375,55.16866683959961,23.3330078125,52.05929183959961,20.2138671875C48.90401840209961,17.0478515625,38.71944808959961,22.4208984375,37.70772933959961,23.42919921875L18.69991683959961,42.37353515625L29.78780746459961,53.4990234375Z" style="fill: rgb(147, 0, 10); fill-opacity: 1;"/></g></g><g id="shape-953ea0fd-82bd-8032-8006-93b4c0bbe6b5"><g class="fills" id="fills-953ea0fd-82bd-8032-8006-93b4c0bbe6b5"><path d="M38.81124496459961,22.306640625C38.98507308959961,22.1328125,39.10616683959961,21.91357421875,39.16085433959961,21.67431640625L40.78780746459961,17.2724609375C40.88936996459961,16.8330078125,40.75753402709961,16.37109375,40.43819808959961,16.05224609375C40.11886215209961,15.732421875,39.65694808959961,15.6005859375,39.21749496459961,15.70263671875L34.81515121459961,17.32861328125C34.57589340209961,17.38427734375,34.35714340209961,17.505859375,34.18429183959961,17.6796875L14.084681510925293,37.779296875L18.71261215209961,42.4072265625ZM54.54757308959961,38.0439453125C54.72140121459961,37.8701171875,54.84347152709961,37.6513671875,54.89718246459961,37.4111328125L56.52413558959961,33.00830078125C56.62569808959961,32.568359375,56.49288558959961,32.10693359375,56.17452621459961,31.7880859375C55.85421371459961,31.46875,55.39425277709961,31.3369140625,54.95382308959961,31.4384765625L50.55147933959961,33.06494140625C50.31124496459961,33.119140625,50.09249496459961,33.2412109375,49.91866683959961,33.41455078125L29.81905746459961,53.51416015625L34.44796371459961,58.1435546875Z" style="fill: rgb(255, 237, 234); fill-opacity: 1;"/></g></g><g id="shape-953ea0fd-82bd-8032-8006-93b4c0bbe6b6"><g class="fills" id="fills-953ea0fd-82bd-8032-8006-93b4c0bbe6b6"><path d="M40.66280746459961,42.6708984375C40.27804183959961,45.76220703125,40.25948715209961,48.88818359375,40.60714340209961,51.98388671875L34.44796371459961,58.1435546875L29.81905746459961,53.51416015625ZM20.24288558959961,31.619140625L14.082728385925293,37.7783203125L18.71163558959961,42.40625L29.55343246459961,31.56396484375C26.46261215209961,31.9482421875,23.33761215209961,31.966796875,20.24288558959961,31.619140625" fill-rule="evenodd" clip-rule="evenodd" style="fill: rgb(147, 0, 10); fill-opacity: 1;"/></g></g><g id="shape-953ea0fd-82bd-8032-8006-93b4c0bbe6b7"><g class="fills" id="fills-953ea0fd-82bd-8032-8006-93b4c0bbe6b7"><path d="M39.85811996459961,55.6064453125C38.76436996459961,50.232421875,38.82296371459961,44.9697265625,39.78194808959961,39.79248046875C40.04757308959961,38.3603515625,40.73897933959961,37.0419921875,41.76827621459961,36.01171875L46.22823715209961,31.552734375C46.39425277709961,31.38232421875,46.51241683959961,31.1708984375,46.57003402709961,30.9404296875L47.92647933959961,27.1875L48.66280746459961,25.14599609375C48.77218246459961,24.701171875,48.64132308959961,24.232421875,48.31710433959961,23.90869140625C47.99483871459961,23.5849609375,47.52511215209961,23.4541015625,47.08077621459961,23.5634765625L45.03780746459961,24.2998046875L41.28390121459961,25.65576171875C41.05343246459961,25.71484375,40.84249496459961,25.83349609375,40.67257308959961,25.99951171875L36.21554183959961,30.45751953125C35.18233871459961,31.490234375,33.87179183959961,32.177734375,32.43429183959961,32.4443359375C27.25460433959961,33.404296875,21.99288558959961,33.4599609375,16.61983871459961,32.369140625C16.19015121459961,32.27978515625,15.742884635925293,32.4140625,15.432337760925293,32.7255859375L13.156947135925293,35.00048828125C12.647181510925293,35.5107421875,12.647181510925293,36.33984375,13.158900260925293,36.8515625L35.37374496459961,59.0673828125C35.88546371459961,59.578125,36.71358871459961,59.578125,37.22530746459961,59.0673828125L39.49972152709961,56.79248046875C39.80929183959961,56.4814453125,39.94308090209961,56.0361328125,39.85811996459961,55.6064453125" style="fill: rgb(255, 237, 234); fill-opacity: 1;"/></g></g><g id="shape-953ea0fd-82bd-8032-8006-93b4c0bbe6b8"><g class="fills" id="fills-953ea0fd-82bd-8032-8006-93b4c0bbe6b8"><path d="M27.90792465209961,52.9990234375C28.18624496459961,52.53125,27.81319808959961,53.15478515625,30.15694808959961,49.2509765625C30.77413558959961,48.220703125,30.61300277709961,46.90380859375,29.76436996459961,46.05224609375L28.82882308959961,45.1162109375C29.17550277709961,44.3662109375,29.27608871459961,43.7138671875,28.89425277709961,43.33203125C28.51241683959961,42.9501953125,27.85616683959961,43.0498046875,27.11007308959961,43.396484375L26.17452621459961,42.4609375C25.32296371459961,41.6142578125,24.00460433959961,41.4521484375,22.97530746459961,42.068359375C19.07198715209961,44.41259765625,19.69601058959961,44.03955078125,19.22726058959961,44.3173828125C18.88058090209961,44.525390625,18.64913558959961,44.8818359375,18.60128402709961,45.283203125C18.54854965209961,45.6826171875,18.68526840209961,46.08349609375,18.97140121459961,46.3671875L25.85811996459961,53.2548828125C26.14132308959961,53.5400390625,26.54171371459961,53.6767578125,26.94112777709961,53.625C27.34249496459961,53.57763671875,27.69991683959961,53.34765625,27.90792465209961,53.0009765625M45.55538558959961,26.6689453125C44.53390121459961,25.64697265625,42.87569808959961,25.6474609375,41.85421371459961,26.6689453125L45.55538558959961,30.37109375C46.57686996459961,29.349609375,46.57882308959961,27.6923828125,45.55538558959961,26.6689453125" style="fill: rgb(147, 0, 10); fill-opacity: 1;"/></g></g><g id="shape-953ea0fd-82bd-8032-8006-93b4c0bbe6b9"><g class="fills" id="fills-953ea0fd-82bd-8032-8006-93b4c0bbe6b9"><path d="M47.92647933959961,27.1884765625L45.03976058959961,24.30078125L47.08077621459961,23.5634765625C47.52511215209961,23.4541015625,47.99483871459961,23.5849609375,48.31710433959961,23.90869140625C48.64132308959961,24.232421875,48.77218246459961,24.701171875,48.66280746459961,25.14599609375ZM26.94210433959961,53.6259765625C26.54269027709961,53.677734375,26.14132308959961,53.53955078125,25.85909652709961,53.25390625L18.97140121459961,46.3662109375C18.68624496459961,46.0830078125,18.54952621459961,45.6826171875,18.60128402709961,45.283203125C18.64913558959961,44.8818359375,18.88058090209961,44.525390625,19.22726058959961,44.3173828125L19.52218246459961,44.14013671875L28.08565902709961,52.703125L27.90890121459961,53C27.70089340209961,53.3466796875,27.34347152709961,53.57666015625,26.94210433959961,53.6240234375" style="fill: rgb(255, 237, 234); fill-opacity: 1;"/></g></g></g></g></g></svg>