<svg width="56.599" xmlns="http://www.w3.org/2000/svg" height="72" id="screenshot-953ea0fd-82bd-8032-8006-93b4c0bbe68c" viewBox="0 0 56.599 72" xmlns:xlink="http://www.w3.org/1999/xlink" fill="none" version="1.1"><g id="shape-953ea0fd-82bd-8032-8006-93b4c0bbe68c" rx="0" ry="0"><g id="shape-953ea0fd-82bd-8032-8006-93b4c0bbe68d" height="128" width="128" rx="0" ry="0" style="fill: rgb(0, 0, 0);"><g id="shape-953ea0fd-82bd-8032-8006-93b4c0bbe68f"><g class="fills" id="fills-953ea0fd-82bd-8032-8006-93b4c0bbe68f"><path d="M5.142113208770752,1.8189894035458565e-12L37.286643981933594,1.8189894035458565e-12L56.600120544433594,19.23291015625L56.600120544433594,66.841796875C56.600120544433594,69.6923828125,54.279808044433594,72,51.429222106933594,72L5.142113208770752,72C2.291527271270752,72,-0.0004650297632906586,69.70703125,-0.0004650297632906586,66.857421875L-0.0004650297632906586,5.142578125C-0.0004650297632906586,2.29296875,2.291527271270752,1.8189894035458565e-12,5.142113208770752,1.8189894035458565e-12ZM5.142113208770752,1.8189894035458565e-12" style="fill: rgb(246, 245, 244);"/></g></g><g id="shape-953ea0fd-82bd-8032-8006-93b4c0bbe690" rx="0" ry="0" style="fill: rgb(0, 0, 0);"><g id="shape-953ea0fd-82bd-8032-8006-93b4c0bbe691"><g class="fills" id="fills-953ea0fd-82bd-8032-8006-93b4c0bbe691"><path d="M37.286643981933594,1.8189894035458565e-12L37.286643981933594,14.142578125C37.286643981933594,16.9931640625,39.606956481933594,19.2353515625,42.456565856933594,19.2353515625L56.600120544433594,19.23291015625ZM37.286643981933594,1.8189894035458565e-12" style="fill: rgb(222, 221, 218);"/></g></g><g id="shape-953ea0fd-82bd-8032-8006-93b4c0bbe692"><g class="fills" id="fills-953ea0fd-82bd-8032-8006-93b4c0bbe692"><path d="M8.999534606933594,59.142578125L26.535667419433594,59.142578125C27.246604919433594,59.142578125,27.820823669433594,59.7177734375,27.820823669433594,60.4287109375C27.820823669433594,61.13916015625,27.246604919433594,61.71435546875,26.535667419433594,61.71435546875L8.999534606933594,61.71435546875C8.288597106933594,61.71435546875,7.713402271270752,61.13916015625,7.713402271270752,60.4287109375C7.713402271270752,59.7177734375,8.288597106933594,59.142578125,8.999534606933594,59.142578125L8.999534606933594,59.142578125M8.999534606933594,59.142578125" style="fill: rgb(222, 221, 218);"/></g></g><g id="shape-953ea0fd-82bd-8032-8006-93b4c0bbe693"><g class="fills" id="fills-953ea0fd-82bd-8032-8006-93b4c0bbe693"><path d="M8.999534606933594,54L47.571800231933594,54C48.282737731933594,54,48.857933044433594,54.5751953125,48.857933044433594,55.28564453125C48.857933044433594,55.99609375,48.282737731933594,56.5712890625,47.571800231933594,56.5712890625L8.999534606933594,56.5712890625C8.288597106933594,56.5712890625,7.713402271270752,55.99609375,7.713402271270752,55.28564453125C7.713402271270752,54.5751953125,8.288597106933594,54,8.999534606933594,54ZM8.999534606933594,54" style="fill: rgb(222, 221, 218);"/></g></g><g id="shape-953ea0fd-82bd-8032-8006-93b4c0bbe694"><g class="fills" id="fills-953ea0fd-82bd-8032-8006-93b4c0bbe694"><path d="M8.999534606933594,48.857421875L47.571800231933594,48.857421875C48.282737731933594,48.857421875,48.857933044433594,49.43212890625,48.857933044433594,50.142578125C48.857933044433594,50.853515625,48.282737731933594,51.4287109375,47.571800231933594,51.4287109375L8.999534606933594,51.4287109375C8.288597106933594,51.4287109375,7.713402271270752,50.853515625,7.713402271270752,50.142578125C7.713402271270752,49.43212890625,8.288597106933594,48.857421875,8.999534606933594,48.857421875ZM8.999534606933594,48.857421875" style="fill: rgb(222, 221, 218);"/></g></g><g id="shape-953ea0fd-82bd-8032-8006-93b4c0bbe695"><g class="fills" id="fills-953ea0fd-82bd-8032-8006-93b4c0bbe695"><path d="M8.999534606933594,43.71435546875L47.571800231933594,43.71435546875C48.282737731933594,43.71435546875,48.857933044433594,44.2890625,48.857933044433594,45C48.857933044433594,45.7109375,48.282737731933594,46.28564453125,47.571800231933594,46.28564453125L8.999534606933594,46.28564453125C8.288597106933594,46.28564453125,7.713402271270752,45.7109375,7.713402271270752,45C7.713402271270752,44.2890625,8.288597106933594,43.71435546875,8.999534606933594,43.71435546875ZM8.999534606933594,43.71435546875" style="fill: rgb(222, 221, 218);"/></g></g><g id="shape-953ea0fd-82bd-8032-8006-93b4c0bbe696"><g class="fills" id="fills-953ea0fd-82bd-8032-8006-93b4c0bbe696"><path d="M8.999534606933594,38.5712890625L47.571800231933594,38.5712890625C48.282737731933594,38.5712890625,48.857933044433594,39.146484375,48.857933044433594,39.857421875C48.857933044433594,40.56787109375,48.282737731933594,41.142578125,47.571800231933594,41.142578125L8.999534606933594,41.142578125C8.288597106933594,41.142578125,7.713402271270752,40.56787109375,7.713402271270752,39.857421875C7.713402271270752,39.146484375,8.288597106933594,38.5712890625,8.999534606933594,38.5712890625ZM8.999534606933594,38.5712890625" style="fill: rgb(222, 221, 218);"/></g></g><g id="shape-953ea0fd-82bd-8032-8006-93b4c0bbe697"><g class="fills" id="fills-953ea0fd-82bd-8032-8006-93b4c0bbe697"><path d="M8.999534606933594,33.4287109375L47.571800231933594,33.4287109375C48.282737731933594,33.4287109375,48.857933044433594,34.00390625,48.857933044433594,34.71435546875C48.857933044433594,35.4248046875,48.282737731933594,36,47.571800231933594,36L8.999534606933594,36C8.288597106933594,36,7.713402271270752,35.4248046875,7.713402271270752,34.71435546875C7.713402271270752,34.00390625,8.288597106933594,33.4287109375,8.999534606933594,33.4287109375ZM8.999534606933594,33.4287109375" style="fill: rgb(222, 221, 218);"/></g></g><g id="shape-953ea0fd-82bd-8032-8006-93b4c0bbe698"><g class="fills" id="fills-953ea0fd-82bd-8032-8006-93b4c0bbe698"><path d="M8.999534606933594,28.28564453125L47.571800231933594,28.28564453125C48.282737731933594,28.28564453125,48.857933044433594,28.86083984375,48.857933044433594,29.5712890625C48.857933044433594,30.2822265625,48.282737731933594,30.857421875,47.571800231933594,30.857421875L8.999534606933594,30.857421875C8.288597106933594,30.857421875,7.713402271270752,30.2822265625,7.713402271270752,29.5712890625C7.713402271270752,28.86083984375,8.288597106933594,28.28564453125,8.999534606933594,28.28564453125ZM8.999534606933594,28.28564453125" style="fill: rgb(222, 221, 218);"/></g></g><g id="shape-953ea0fd-82bd-8032-8006-93b4c0bbe699"><g class="fills" id="fills-953ea0fd-82bd-8032-8006-93b4c0bbe699"><path d="M8.999534606933594,23.142578125L32.142112731933594,23.142578125C32.853050231933594,23.142578125,33.428245544433594,23.5244140625,33.428245544433594,23.994140625L33.428245544433594,24.86328125C33.428245544433594,25.33251953125,32.853050231933594,25.71435546875,32.142112731933594,25.71435546875L8.999534606933594,25.71435546875C8.288597106933594,25.71435546875,7.713402271270752,25.33251953125,7.713402271270752,24.86328125L7.713402271270752,23.994140625C7.713402271270752,23.5244140625,8.288597106933594,23.142578125,8.999534606933594,23.142578125ZM8.999534606933594,23.142578125" style="fill: rgb(222, 221, 218);"/></g></g><g id="shape-953ea0fd-82bd-8032-8006-93b4c0bbe69a"><g class="fills" id="fills-953ea0fd-82bd-8032-8006-93b4c0bbe69a"><path d="M8.999534606933594,18L32.142112731933594,18C32.853050231933594,18,33.428245544433594,18.3818359375,33.428245544433594,18.8515625L33.428245544433594,19.72021484375C33.428245544433594,20.189453125,32.853050231933594,20.5712890625,32.142112731933594,20.5712890625L8.999534606933594,20.5712890625C8.288597106933594,20.5712890625,7.713402271270752,20.189453125,7.713402271270752,19.72021484375L7.713402271270752,18.8515625C7.713402271270752,18.3818359375,8.288597106933594,18,8.999534606933594,18ZM8.999534606933594,18" style="fill: rgb(222, 221, 218);"/></g></g><g id="shape-953ea0fd-82bd-8032-8006-93b4c0bbe69b"><g class="fills" id="fills-953ea0fd-82bd-8032-8006-93b4c0bbe69b"><path d="M8.999534606933594,12.857421875L32.142112731933594,12.857421875C32.853050231933594,12.857421875,33.428245544433594,13.23876953125,33.428245544433594,13.70849609375L33.428245544433594,14.5771484375C33.428245544433594,15.046875,32.853050231933594,15.4287109375,32.142112731933594,15.4287109375L8.999534606933594,15.4287109375C8.288597106933594,15.4287109375,7.713402271270752,15.046875,7.713402271270752,14.5771484375L7.713402271270752,13.70849609375C7.713402271270752,13.23876953125,8.288597106933594,12.857421875,8.999534606933594,12.857421875ZM8.999534606933594,12.857421875" style="fill: rgb(222, 221, 218);"/></g></g></g></g><g id="shape-953ea0fd-82bd-8032-8006-93b4c0bbe68e" rx="0" ry="0"><g id="shape-953ea0fd-82bd-8032-8006-93b4c0bbe69c"><defs><linearGradient x1="-112" y1="224" x2="-96" y2="224" id="render-58-i" gradientTransform="matrix(0.394529, 0.000000, 0.000000, 0.394529, 8.394529, 24.905413) matrix(0.708068 0.708068 -0.708068 0.708068 299.583661 -18.721936)" gradientUnits="userSpaceOnUse"><stop offset="0" stop-color="#3d3846"/><stop offset=".354" stop-color="#5e5c64"/><stop offset="1" stop-color="#342f3b"/></linearGradient></defs><g class="fills" id="fills-953ea0fd-82bd-8032-8006-93b4c0bbe69c"><path d="M55.071800231933594,30.9287109375C53.838401794433594,29.68994140625,51.843284606933594,29.68994140625,50.602073669433594,30.9287109375L26.023948669433594,55.509765625L25.184104919433594,59.142578125L26.863792419433594,60.81884765625L30.492698669433594,59.982421875L32.724143981933594,57.744140625L55.071800231933594,35.3974609375C56.313011169433594,34.1591796875,56.313011169433594,32.1650390625,55.071800231933594,30.9287109375ZM55.071800231933594,30.9287109375" fill="url(#render-58-i)" style="fill: url(&quot;#render-58-i&quot;);"/></g></g><g id="shape-953ea0fd-82bd-8032-8006-93b4c0bbe69d" rx="0" ry="0" style="fill: rgb(0, 0, 0);"><g id="shape-953ea0fd-82bd-8032-8006-93b4c0bbe69e"><g class="fills" id="fills-953ea0fd-82bd-8032-8006-93b4c0bbe69e"><path d="M25.051292419433594,59.8349609375L26.162620544433594,60.9521484375L24.414573669433594,62L23.999534606933594,61.580078125ZM25.051292419433594,59.8349609375" style="fill: rgb(36, 31, 49);"/></g></g><g id="shape-953ea0fd-82bd-8032-8006-93b4c0bbe69f"><g class="fills" id="fills-953ea0fd-82bd-8032-8006-93b4c0bbe69f"><path d="M25.882347106933594,55.6435546875L25.051292419433594,59.27587890625L26.722190856933594,60.9521484375L30.353050231933594,60.11572265625ZM25.882347106933594,55.6435546875" style="fill: rgb(36, 31, 49);"/></g></g></g></g></g></svg>