<svg width="152" xmlns="http://www.w3.org/2000/svg" height="140" id="screenshot-51aa5b83-99dd-8061-8006-944420023b59" viewBox="0 0 152 140" xmlns:xlink="http://www.w3.org/1999/xlink" fill="none" version="1.1"><g id="shape-51aa5b83-99dd-8061-8006-944420023b59"><g class="frame-container-wrapper"><g class="frame-container-blur"><g class="frame-container-shadows"><g fill="none"><g class="fills" id="fills-51aa5b83-99dd-8061-8006-944420023b59"><rect rx="0" ry="0" x="0" y="0" width="152" height="140" transform="matrix(1.000000, 0.000000, 0.000000, 1.000000, 0.000000, 0.000000)" class="frame-background"/></g><g class="frame-children"><g id="shape-51aa5b83-99dd-8061-8006-944420023b87" height="128" width="128" rx="0" ry="0" style="fill: rgb(0, 0, 0);"><g id="shape-51aa5b83-99dd-8061-8006-944420023b89" style="display: none;"><g class="fills" id="fills-51aa5b83-99dd-8061-8006-944420023b89"><rect width="128" height="128" x="12" transform="matrix(1.000000, 0.000000, 0.000000, 1.000000, 0.000000, 0.000000)" style="fill: none;" ry="0" fill="none" rx="0" y="6"/></g></g><g id="shape-51aa5b83-99dd-8061-8006-944420023b8a"><g class="fills" id="fills-51aa5b83-99dd-8061-8006-944420023b8a"><path d="M33.9765625,17.999755859375C28.44921875,17.999755859375,24,22.460693359375,24,27.999755859375L24,114.03125C24,119.57421875,28.44921875,124.03125,33.9765625,124.03125L118.01953125,124.03125C123.55078125,124.03125,128,119.57421875,128,114.03125L128,41.945068359375C128,35.316162109375,122.640625,29.945068359375,116.02734375,29.945068359375L70,29.945068359375C67.546875,29.945068359375,65.3046875,28.558349609375,64.203125,26.363037109375L62.69921875,23.370849609375C61.04296875,20.077880859375,57.6796875,17.999755859375,54,17.999755859375ZM33.9765625,17.999755859375" style="fill: rgb(81, 143, 247); fill-opacity: 1;"/></g></g><g id="shape-51aa5b83-99dd-8061-8006-944420023b8b"><defs><linearGradient x1="2689.252" y1="-1106.803" x2="2918.07" y2="-1106.803" id="render-60-a" gradientTransform="matrix(1.000000, 0.000000, 0.000000, 1.000000, 12.000000, 6.000000) matrix(0.45451 0 0 0.455522 -1210.292114 616.172607)" gradientUnits="userSpaceOnUse"><stop offset="0" stop-color="#62a0ea"/><stop offset=".058" stop-color="#afd4ff"/><stop offset=".122" stop-color="#62a0ea"/><stop offset=".873" stop-color="#62a0ea"/><stop offset=".956" stop-color="#c0d5ea"/><stop offset="1" stop-color="#62a0ea"/></linearGradient></defs><g class="fills" id="fills-51aa5b83-99dd-8061-8006-944420023b8b"><path d="M77.9765625,41.999755859375C75.23046875,41.999755859375,72.75,43.101318359375,70.94921875,44.890380859375C68.67578125,47.144287109375,65.56640625,49.999755859375,62.31640625,49.999755859375L33.9765625,49.999755859375C28.44921875,49.999755859375,24,54.460693359375,24,59.999755859375L24,114.03125C24,119.57421875,28.44921875,124.03125,33.9765625,124.03125L118.01953125,124.03125C123.55078125,124.03125,128,119.57421875,128,114.03125L128,51.999755859375C128,46.460693359375,123.55078125,41.999755859375,118.01953125,41.999755859375ZM77.9765625,41.999755859375" fill="url(#render-60-a)" style="fill: url(&quot;#render-60-a&quot;);"/></g></g><g id="shape-51aa5b83-99dd-8061-8006-944420023b8c"><g class="fills" id="fills-51aa5b83-99dd-8061-8006-944420023b8c"><path d="M77.9765625,37.999755859375C75.23046875,37.999755859375,72.75,39.101318359375,70.94921875,40.890380859375C68.67578125,43.144287109375,65.56640625,45.999755859375,62.31640625,45.999755859375L33.9765625,45.999755859375C28.44921875,45.999755859375,24,50.460693359375,24,55.999755859375L24,111.9765625C24,117.515625,28.44921875,121.9765625,33.9765625,121.9765625L118.01953125,121.9765625C123.55078125,121.9765625,128,117.515625,128,111.9765625L128,47.999755859375C128,42.460693359375,123.55078125,37.999755859375,118.01953125,37.999755859375ZM77.9765625,37.999755859375" style="fill: rgb(172, 199, 255); fill-opacity: 1;"/></g></g><g id="shape-51aa5b83-99dd-8061-8006-944420023b8d" rx="0" ry="0" style="fill: rgb(0, 0, 0);"><g id="shape-51aa5b83-99dd-8061-8006-944420023b8e"><g class="fills" id="fills-51aa5b83-99dd-8061-8006-944420023b8e"><path d="M61.08984375,77.9609375L60,77.9609375L60,94.0234375L61.03515625,94.0234375L71.23828125,86ZM61.08984375,77.9609375" style="fill: rgb(81, 143, 247); fill-opacity: 1;"/></g></g><g id="shape-51aa5b83-99dd-8061-8006-944420023b8f"><g class="fills" id="fills-51aa5b83-99dd-8061-8006-944420023b8f"><path d="M74,74C70.7109375,74,68,76.7109375,68,80L68,92C68,95.2890625,70.7109375,98,74,98L86,98C89.2890625,98,92,95.2890625,92,92L92,80C92,76.7109375,89.2890625,74,86,74ZM74,78L86,78C87.140625,78,88,78.859375,88,80L88,92C88,93.140625,87.140625,94,86,94L74,94C72.859375,94,72,93.140625,72,92L72,80C72,78.859375,72.859375,78,74,78ZM74,78" style="fill: rgb(81, 143, 247); fill-opacity: 1;"/></g></g></g></g></g></g></g></g></g></g></svg>