<svg xmlns="http://www.w3.org/2000/svg" xmlns:xlink="http://www.w3.org/1999/xlink" id="screenshot-354b6e58-6173-800d-8006-9ae91cc0a583" fill="none" version="1.1" viewBox="12 12 104 106.03"><g id="shape-354b6e58-6173-800d-8006-9ae91cc0a583" height="128" width="128" rx="0" ry="0" style="fill: rgb(0, 0, 0);"><g id="shape-354b6e58-6173-800d-8006-9ae91cc0a584" style="display: none;"><g class="fills" id="fills-354b6e58-6173-800d-8006-9ae91cc0a584"><rect width="128" height="128" x="0" transform="matrix(1.000000, 0.000000, 0.000000, 1.000000, 0.000000, 0.000000)" style="fill: none;" ry="0" fill="none" rx="0" y="0"/></g></g><g id="shape-354b6e58-6173-800d-8006-9ae91cc0a585"><g class="fills" id="fills-354b6e58-6173-800d-8006-9ae91cc0a585"><path d="M21.9765625,12C16.44921875,12,12,16.4609375,12,22L12,108.03125C12,113.57421875,16.44921875,118.03125,21.9765625,118.03125L106.01953125,118.03125C111.55078125,118.03125,116,113.57421875,116,108.03125L116,35.9453125C116,29.31640625,110.640625,23.9453125,104.02734375,23.9453125L58,23.9453125C55.546875,23.9453125,53.3046875,22.55859375,52.203125,20.36328125L50.69921875,17.37109375C49.04296875,14.078125,45.6796875,12,42,12ZM21.9765625,12" style="fill: rgb(81, 143, 247); fill-opacity: 1;"/></g></g><g id="shape-354b6e58-6173-800d-8006-9ae91cc0a586"><defs><linearGradient x1="2689.252" y1="-1106.803" x2="2918.07" y2="-1106.803" id="render-207-a" gradientTransform="matrix(1.000000, 0.000000, 0.000000, 1.000000, 0.000000, 0.000000) matrix(0.45451 0 0 0.455522 -1210.292114 616.172607)" gradientUnits="userSpaceOnUse"><stop offset="0" stop-color="#62a0ea"/><stop offset=".058" stop-color="#afd4ff"/><stop offset=".122" stop-color="#62a0ea"/><stop offset=".873" stop-color="#62a0ea"/><stop offset=".956" stop-color="#c0d5ea"/><stop offset="1" stop-color="#62a0ea"/></linearGradient></defs><g class="fills" id="fills-354b6e58-6173-800d-8006-9ae91cc0a586"><path d="M65.9765625,36C63.23046875,36,60.75,37.1015625,58.94921875,38.890625C56.67578125,41.14453125,53.56640625,44,50.31640625,44L21.9765625,44C16.44921875,44,12,48.4609375,12,54L12,108.03125C12,113.57421875,16.44921875,118.03125,21.9765625,118.03125L106.01953125,118.03125C111.55078125,118.03125,116,113.57421875,116,108.03125L116,46C116,40.4609375,111.55078125,36,106.01953125,36ZM65.9765625,36" fill="url(#render-207-a)" style="fill: url(&quot;#render-207-a&quot;);"/></g></g><g id="shape-354b6e58-6173-800d-8006-9ae91cc0a587"><g class="fills" id="fills-354b6e58-6173-800d-8006-9ae91cc0a587"><path d="M65.9765625,32C63.23046875,32,60.75,33.1015625,58.94921875,34.890625C56.67578125,37.14453125,53.56640625,40,50.31640625,40L21.9765625,40C16.44921875,40,12,44.4609375,12,50L12,105.9765625C12,111.515625,16.44921875,115.9765625,21.9765625,115.9765625L106.01953125,115.9765625C111.55078125,115.9765625,116,111.515625,116,105.9765625L116,42C116,36.4609375,111.55078125,32,106.01953125,32ZM65.9765625,32" style="fill: rgb(172, 199, 255); fill-opacity: 1;"/></g></g><g id="shape-354b6e58-6173-800d-8006-9ae91cc0a588" rx="0" ry="0" style="fill: rgb(0, 0, 0);"><g id="shape-354b6e58-6173-800d-8006-9ae91cc0a589"><g class="fills" id="fills-354b6e58-6173-800d-8006-9ae91cc0a589"><path d="M50,70L50,72L66,72L66,70ZM50,70" style="fill: rgb(81, 143, 247); fill-opacity: 1;"/></g></g><g id="shape-354b6e58-6173-800d-8006-9ae91cc0a58a"><g class="fills" id="fills-354b6e58-6173-800d-8006-9ae91cc0a58a"><path d="M54,64C50.7109375,64,48,66.7109375,48,70L48,86C48,89.2890625,50.7109375,92,54,92L74,92C77.2890625,92,80,89.2890625,80,86L80,73.999755859375C80,70.7109375,77.2890625,68,74,68L66.828125,68L63.4140625,64.5859375C63.0390625,64.2109375,62.53125,64,62,64ZM54,68L61.171875,68L64.5859375,71.4140625C64.9609375,71.7890625,65.46875,72,66,72L74,72C75.125,72,76,72.874755859375,76,73.999755859375L76,86C76,87.1328125,75.125,88,74,88L54,88C52.875,88,52,87.1328125,52,86L52,70C52,68.875,52.875,68,54,68ZM54,68" style="fill: rgb(81, 143, 247); fill-opacity: 1;"/></g></g></g></g></svg>