<svg xmlns="http://www.w3.org/2000/svg" xmlns:xlink="http://www.w3.org/1999/xlink" id="screenshot-51aa5b83-99dd-8061-8006-944420023b58" fill="none" version="1.1" viewBox="24 18 104 106.03"><g id="shape-51aa5b83-99dd-8061-8006-944420023b58"><g class="frame-container-wrapper"><g class="frame-container-blur"><g class="frame-container-shadows"><g fill="none"><g class="fills" id="fills-51aa5b83-99dd-8061-8006-944420023b58"><rect rx="0" ry="0" x="0" y="0" width="152" height="140" transform="matrix(1.000000, 0.000000, 0.000000, 1.000000, 0.000000, 0.000000)" class="frame-background"/></g><g class="frame-children"><g id="shape-51aa5b83-99dd-8061-8006-944420023b7f" height="128" width="128" rx="0" ry="0" style="fill: rgb(0, 0, 0);"><g id="shape-51aa5b83-99dd-8061-8006-944420023b81" style="display: none;"><g class="fills" id="fills-51aa5b83-99dd-8061-8006-944420023b81"><rect width="128" height="128" x="12" transform="matrix(1.000000, 0.000000, 0.000000, 1.000000, 0.000000, 0.000000)" style="fill: none;" ry="0" fill="none" rx="0" y="6"/></g></g><g id="shape-51aa5b83-99dd-8061-8006-944420023b82"><g class="fills" id="fills-51aa5b83-99dd-8061-8006-944420023b82"><path d="M33.9765625,18.000097274780273C28.44921875,18.000097274780273,24,22.461034774780273,24,28.000097274780273L24,114.0313491821289C24,119.5743179321289,28.44921875,124.0313491821289,33.9765625,124.0313491821289L118.01953125,124.0313491821289C123.55078125,124.0313491821289,128,119.5743179321289,128,114.0313491821289L128,41.94540786743164C128,35.31650161743164,122.640625,29.945409774780273,116.02734375,29.945409774780273L70,29.945409774780273C67.546875,29.945409774780273,65.3046875,28.558691024780273,64.203125,26.363378524780273L62.69921875,23.371191024780273C61.04296875,20.078222274780273,57.6796875,18.000097274780273,54,18.000097274780273ZM33.9765625,18.000097274780273" style="fill: rgb(81, 143, 247); fill-opacity: 1;"/></g></g><g id="shape-51aa5b83-99dd-8061-8006-944420023b83"><defs><linearGradient x1="2689.252" y1="-1106.803" x2="2918.07" y2="-1106.803" id="render-32-a" gradientTransform="matrix(1.000000, 0.000000, 0.000000, 1.000000, 12.000000, 6.000000) matrix(0.45451 0 0 0.455522 -1210.292114 616.172607)" gradientUnits="userSpaceOnUse"><stop offset="0" stop-color="#62a0ea"/><stop offset=".058" stop-color="#afd4ff"/><stop offset=".122" stop-color="#62a0ea"/><stop offset=".873" stop-color="#62a0ea"/><stop offset=".956" stop-color="#c0d5ea"/><stop offset="1" stop-color="#62a0ea"/></linearGradient></defs><g class="fills" id="fills-51aa5b83-99dd-8061-8006-944420023b83"><path d="M77.9765625,42.00009536743164C75.23046875,42.00009536743164,72.75,43.10165786743164,70.94921875,44.89072036743164C68.67578125,47.14462661743164,65.56640625,50.00009536743164,62.31640625,50.00009536743164L33.9765625,50.00009536743164C28.44921875,50.00009536743164,24,54.46103286743164,24,60.00009536743164L24,114.0313491821289C24,119.5743179321289,28.44921875,124.0313491821289,33.9765625,124.0313491821289L118.01953125,124.0313491821289C123.55078125,124.0313491821289,128,119.5743179321289,128,114.0313491821289L128,52.00009536743164C128,46.46103286743164,123.55078125,42.00009536743164,118.01953125,42.00009536743164ZM77.9765625,42.00009536743164" fill="url(#render-32-a)" style="fill: url(&quot;#render-32-a&quot;);"/></g></g><g id="shape-51aa5b83-99dd-8061-8006-944420023b84"><g class="fills" id="fills-51aa5b83-99dd-8061-8006-944420023b84"><path d="M77.9765625,38.00009536743164C75.23046875,38.00009536743164,72.75,39.10165786743164,70.94921875,40.89072036743164C68.67578125,43.14462661743164,65.56640625,46.00009536743164,62.31640625,46.00009536743164L33.9765625,46.00009536743164C28.44921875,46.00009536743164,24,50.46103286743164,24,56.00009536743164L24,111.9766616821289C24,117.5157241821289,28.44921875,121.9766616821289,33.9765625,121.9766616821289L118.01953125,121.9766616821289C123.55078125,121.9766616821289,128,117.5157241821289,128,111.9766616821289L128,48.00009536743164C128,42.46103286743164,123.55078125,38.00009536743164,118.01953125,38.00009536743164ZM77.9765625,38.00009536743164" style="fill: rgb(172, 199, 255); fill-opacity: 1;"/></g></g><g id="shape-51aa5b83-99dd-8061-8006-944420023b85"><g class="fills" id="fills-51aa5b83-99dd-8061-8006-944420023b85"><path d="M70,66.0000991821289C66.7109375,66.0000991821289,64,68.7110366821289,64,72.0000991821289L64,92.0000991821289C64,95.2891616821289,66.7109375,98.0000991821289,70,98.0000991821289L82,98.0000991821289C85.2890625,98.0000991821289,88,95.2891616821289,88,92.0000991821289L88,75.0000991821289C88,74.4688491821289,87.7890625,73.9610366821289,87.4140625,73.5860366821289L80.4140625,66.5860366821289C80.0390625,66.2110366821289,79.53125,66.0000991821289,79,66.0000991821289ZM70,70.0000991821289L78,70.0000991821289L78,73.0000991821289C78,75.0000991821289,79,76.0000991821289,81,76.0000991821289L84,76.0000991821289L84,92.0000991821289C84,93.1407241821289,83.140625,94.0000991821289,82,94.0000991821289L70,94.0000991821289C68.859375,94.0000991821289,68,93.1407241821289,68,92.0000991821289L68,72.0000991821289C68,70.8594741821289,68.859375,70.0000991821289,70,70.0000991821289ZM70,70.0000991821289" style="fill: rgb(81, 143, 247); fill-opacity: 1;"/></g></g></g></g></g></g></g></g></g></svg>