<svg width="128" xmlns="http://www.w3.org/2000/svg" height="128" id="screenshot-467d704a-bf2b-80af-8006-9456293a7e19" viewBox="0 0 128 128" xmlns:xlink="http://www.w3.org/1999/xlink" fill="none" version="1.1"><g id="shape-467d704a-bf2b-80af-8006-9456293a7e19" height="128" width="128" rx="0" ry="0" style="fill: rgb(0, 0, 0);"><g id="shape-467d704a-bf2b-80af-8006-9456293a7e1a" style="display: none;"><g class="fills" id="fills-467d704a-bf2b-80af-8006-9456293a7e1a"><rect width="128" height="128" x="0" transform="matrix(1.000000, 0.000000, 0.000000, 1.000000, 0.000000, 0.000000)" style="fill: none;" ry="0" fill="none" rx="0" y="0"/></g></g><g id="shape-467d704a-bf2b-80af-8006-9456293a7e1b"><g class="fills" id="fills-467d704a-bf2b-80af-8006-9456293a7e1b"><path d="M27.9990234375,8L77.9990234375,8L108.0419921875,37.91796875L108.0419921875,111.9765625C108.0419921875,116.41015625,104.4326171875,120,99.9990234375,120L27.9990234375,120C23.5654296875,120,19.9990234375,116.43359375,19.9990234375,112L19.9990234375,16C19.9990234375,11.56640625,23.5654296875,8,27.9990234375,8ZM27.9990234375,8" style="fill: rgb(246, 245, 244);"/></g></g><g id="shape-467d704a-bf2b-80af-8006-9456293a7e1c" rx="0" ry="0" style="fill: rgb(0, 0, 0);"><g id="shape-467d704a-bf2b-80af-8006-9456293a7e1d"><g class="fills" id="fills-467d704a-bf2b-80af-8006-9456293a7e1d"><path d="M77.9990234375,8L77.9990234375,30C77.9990234375,34.43359375,81.6083984375,37.921875,86.0419921875,37.921875L108.0419921875,37.91796875ZM77.9990234375,8" style="fill: rgb(222, 221, 218);"/></g></g><g id="shape-467d704a-bf2b-80af-8006-9456293a7e1e"><g class="fills" id="fills-467d704a-bf2b-80af-8006-9456293a7e1e"><path d="M33.9990234375,100L93.9990234375,100C95.1044921875,100,95.9990234375,100.89453125,95.9990234375,102C95.9990234375,103.10546875,95.1044921875,104,93.9990234375,104L33.9990234375,104C32.8935546875,104,31.9990234375,103.10546875,31.9990234375,102C31.9990234375,100.89453125,32.8935546875,100,33.9990234375,100ZM33.9990234375,100" style="fill: rgb(222, 221, 218);"/></g></g><g id="shape-467d704a-bf2b-80af-8006-9456293a7e1f"><g class="fills" id="fills-467d704a-bf2b-80af-8006-9456293a7e1f"><path d="M33.9990234375,92L93.9990234375,92C95.1044921875,92,95.9990234375,92.89453125,95.9990234375,94C95.9990234375,95.10546875,95.1044921875,96,93.9990234375,96L33.9990234375,96C32.8935546875,96,31.9990234375,95.10546875,31.9990234375,94C31.9990234375,92.89453125,32.8935546875,92,33.9990234375,92ZM33.9990234375,92" style="fill: rgb(222, 221, 218);"/></g></g><g id="shape-467d704a-bf2b-80af-8006-9456293a7e20"><g class="fills" id="fills-467d704a-bf2b-80af-8006-9456293a7e20"><path d="M33.9990234375,84L93.9990234375,84C95.1044921875,84,95.9990234375,84.89453125,95.9990234375,86C95.9990234375,87.10546875,95.1044921875,88,93.9990234375,88L33.9990234375,88C32.8935546875,88,31.9990234375,87.10546875,31.9990234375,86C31.9990234375,84.89453125,32.8935546875,84,33.9990234375,84ZM33.9990234375,84" style="fill: rgb(222, 221, 218);"/></g></g><g id="shape-467d704a-bf2b-80af-8006-9456293a7e21"><g class="fills" id="fills-467d704a-bf2b-80af-8006-9456293a7e21"><path d="M33.9990234375,76L93.9990234375,76C95.1044921875,76,95.9990234375,76.89453125,95.9990234375,78C95.9990234375,79.10546875,95.1044921875,80,93.9990234375,80L33.9990234375,80C32.8935546875,80,31.9990234375,79.10546875,31.9990234375,78C31.9990234375,76.89453125,32.8935546875,76,33.9990234375,76ZM33.9990234375,76" style="fill: rgb(222, 221, 218);"/></g></g><g id="shape-467d704a-bf2b-80af-8006-9456293a7e22"><g class="fills" id="fills-467d704a-bf2b-80af-8006-9456293a7e22"><path d="M33.9990234375,68L93.9990234375,68C95.1044921875,68,95.9990234375,68.89453125,95.9990234375,70C95.9990234375,71.10546875,95.1044921875,72,93.9990234375,72L33.9990234375,72C32.8935546875,72,31.9990234375,71.10546875,31.9990234375,70C31.9990234375,68.89453125,32.8935546875,68,33.9990234375,68ZM33.9990234375,68" style="fill: rgb(222, 221, 218);"/></g></g><g id="shape-467d704a-bf2b-80af-8006-9456293a7e23"><g class="fills" id="fills-467d704a-bf2b-80af-8006-9456293a7e23"><path d="M33.9990234375,60L93.9990234375,60C95.1044921875,60,95.9990234375,60.89453125,95.9990234375,62C95.9990234375,63.10546875,95.1044921875,64,93.9990234375,64L33.9990234375,64C32.8935546875,64,31.9990234375,63.10546875,31.9990234375,62C31.9990234375,60.89453125,32.8935546875,60,33.9990234375,60ZM33.9990234375,60" style="fill: rgb(222, 221, 218);"/></g></g><g id="shape-467d704a-bf2b-80af-8006-9456293a7e24"><g class="fills" id="fills-467d704a-bf2b-80af-8006-9456293a7e24"><path d="M33.9990234375,52L93.9990234375,52C95.1044921875,52,95.9990234375,52.89453125,95.9990234375,54C95.9990234375,55.10546875,95.1044921875,56,93.9990234375,56L33.9990234375,56C32.8935546875,56,31.9990234375,55.10546875,31.9990234375,54C31.9990234375,52.89453125,32.8935546875,52,33.9990234375,52ZM33.9990234375,52" style="fill: rgb(222, 221, 218);"/></g></g><g id="shape-467d704a-bf2b-80af-8006-9456293a7e25"><g class="fills" id="fills-467d704a-bf2b-80af-8006-9456293a7e25"><path d="M33.9990234375,44L69.9990234375,44C71.1044921875,44,71.9990234375,44.59375,71.9990234375,45.32421875L71.9990234375,46.67578125C71.9990234375,47.40625,71.1044921875,48,69.9990234375,48L33.9990234375,48C32.8935546875,48,31.9990234375,47.40625,31.9990234375,46.67578125L31.9990234375,45.32421875C31.9990234375,44.59375,32.8935546875,44,33.9990234375,44ZM33.9990234375,44" style="fill: rgb(222, 221, 218);"/></g></g><g id="shape-467d704a-bf2b-80af-8006-9456293a7e26"><g class="fills" id="fills-467d704a-bf2b-80af-8006-9456293a7e26"><path d="M33.9990234375,36L69.9990234375,36C71.1044921875,36,71.9990234375,36.59375,71.9990234375,37.32421875L71.9990234375,38.67578125C71.9990234375,39.40625,71.1044921875,40,69.9990234375,40L33.9990234375,40C32.8935546875,40,31.9990234375,39.40625,31.9990234375,38.67578125L31.9990234375,37.32421875C31.9990234375,36.59375,32.8935546875,36,33.9990234375,36ZM33.9990234375,36" style="fill: rgb(222, 221, 218);"/></g></g><g id="shape-467d704a-bf2b-80af-8006-9456293a7e27"><g class="fills" id="fills-467d704a-bf2b-80af-8006-9456293a7e27"><path d="M33.9990234375,28L69.9990234375,28C71.1044921875,28,71.9990234375,28.59375,71.9990234375,29.32421875L71.9990234375,30.67578125C71.9990234375,31.40625,71.1044921875,32,69.9990234375,32L33.9990234375,32C32.8935546875,32,31.9990234375,31.40625,31.9990234375,30.67578125L31.9990234375,29.32421875C31.9990234375,28.59375,32.8935546875,28,33.9990234375,28ZM33.9990234375,28" style="fill: rgb(222, 221, 218);"/></g></g></g></g></svg>