<svg xmlns="http://www.w3.org/2000/svg" xmlns:xlink="http://www.w3.org/1999/xlink" id="screenshot-f73ffa6d-eea8-80d2-8006-99efeb1cf56d" fill="none" version="1.1" viewBox="19.98 6.17 92.02 112"><g id="shape-f73ffa6d-eea8-80d2-8006-99efeb1cf56d" height="128" width="128" rx="0" ry="0" style="fill: rgb(0, 0, 0);"><g id="shape-f73ffa6d-eea8-80d2-8006-99efeb1cf56e" style="display: none;"><g class="fills" id="fills-f73ffa6d-eea8-80d2-8006-99efeb1cf56e"><rect width="128" height="128" x="0" transform="matrix(1.000000, 0.000000, 0.000000, 1.000000, 0.000000, 0.000000)" style="fill: none;" ry="0" fill="none" rx="0" y="0"/></g></g><g id="shape-f73ffa6d-eea8-80d2-8006-99efeb1cf56f" rx="0" ry="0"><g id="shape-f73ffa6d-eea8-80d2-8006-99efeb1cf571"><g class="fills" id="fills-f73ffa6d-eea8-80d2-8006-99efeb1cf571"><path d="M27.97900390625,6.16650390625L77.97900390625,6.16650390625L108.02197265625,36.08447265625L108.02197265625,110.14306640625C108.02197265625,114.57666015625,104.41259765625,118.16650390625,99.97900390625,118.16650390625L27.97900390625,118.16650390625C23.54541015625,118.16650390625,19.97900390625,114.60009765625,19.97900390625,110.16650390625L19.97900390625,14.16650390625C19.97900390625,9.73291015625,23.54541015625,6.16650390625,27.97900390625,6.16650390625ZM27.97900390625,6.16650390625" style="fill: rgb(246, 245, 244);"/></g></g><g id="shape-f73ffa6d-eea8-80d2-8006-99efeb1cf572" rx="0" ry="0" style="fill: rgb(0, 0, 0);"><g id="shape-f73ffa6d-eea8-80d2-8006-99efeb1cf573"><g class="fills" id="fills-f73ffa6d-eea8-80d2-8006-99efeb1cf573"><path d="M77.97900390625,6.16650390625L77.97900390625,28.16650390625C77.97900390625,32.60009765625,81.58837890625,36.08837890625,86.02197265625,36.08837890625L108.02197265625,36.08447265625ZM77.97900390625,6.16650390625" style="fill: rgb(222, 221, 218);"/></g></g><g id="shape-f73ffa6d-eea8-80d2-8006-99efeb1cf574"><g class="fills" id="fills-f73ffa6d-eea8-80d2-8006-99efeb1cf574"><path d="M33.97900390625,98.16650390625L93.97900390625,98.16650390625C95.08447265625,98.16650390625,95.97900390625,99.06103515625,95.97900390625,100.16650390625C95.97900390625,101.27197265625,95.08447265625,102.16650390625,93.97900390625,102.16650390625L33.97900390625,102.16650390625C32.87353515625,102.16650390625,31.97900390625,101.27197265625,31.97900390625,100.16650390625C31.97900390625,99.06103515625,32.87353515625,98.16650390625,33.97900390625,98.16650390625ZM33.97900390625,98.16650390625" style="fill: rgb(222, 221, 218);"/></g></g><g id="shape-f73ffa6d-eea8-80d2-8006-99efeb1cf575"><g class="fills" id="fills-f73ffa6d-eea8-80d2-8006-99efeb1cf575"><path d="M33.97900390625,90.16650390625L93.97900390625,90.16650390625C95.08447265625,90.16650390625,95.97900390625,91.06103515625,95.97900390625,92.16650390625C95.97900390625,93.27197265625,95.08447265625,94.16650390625,93.97900390625,94.16650390625L33.97900390625,94.16650390625C32.87353515625,94.16650390625,31.97900390625,93.27197265625,31.97900390625,92.16650390625C31.97900390625,91.06103515625,32.87353515625,90.16650390625,33.97900390625,90.16650390625ZM33.97900390625,90.16650390625" style="fill: rgb(222, 221, 218);"/></g></g><g id="shape-f73ffa6d-eea8-80d2-8006-99efeb1cf576"><g class="fills" id="fills-f73ffa6d-eea8-80d2-8006-99efeb1cf576"><path d="M33.97900390625,82.16650390625L93.97900390625,82.16650390625C95.08447265625,82.16650390625,95.97900390625,83.06103515625,95.97900390625,84.16650390625C95.97900390625,85.27197265625,95.08447265625,86.16650390625,93.97900390625,86.16650390625L33.97900390625,86.16650390625C32.87353515625,86.16650390625,31.97900390625,85.27197265625,31.97900390625,84.16650390625C31.97900390625,83.06103515625,32.87353515625,82.16650390625,33.97900390625,82.16650390625ZM33.97900390625,82.16650390625" style="fill: rgb(222, 221, 218);"/></g></g><g id="shape-f73ffa6d-eea8-80d2-8006-99efeb1cf577"><g class="fills" id="fills-f73ffa6d-eea8-80d2-8006-99efeb1cf577"><path d="M33.97900390625,74.16650390625L93.97900390625,74.16650390625C95.08447265625,74.16650390625,95.97900390625,75.06103515625,95.97900390625,76.16650390625C95.97900390625,77.27197265625,95.08447265625,78.16650390625,93.97900390625,78.16650390625L33.97900390625,78.16650390625C32.87353515625,78.16650390625,31.97900390625,77.27197265625,31.97900390625,76.16650390625C31.97900390625,75.06103515625,32.87353515625,74.16650390625,33.97900390625,74.16650390625ZM33.97900390625,74.16650390625" style="fill: rgb(222, 221, 218);"/></g></g><g id="shape-f73ffa6d-eea8-80d2-8006-99efeb1cf578"><g class="fills" id="fills-f73ffa6d-eea8-80d2-8006-99efeb1cf578"><path d="M33.97900390625,66.16650390625L93.97900390625,66.16650390625C95.08447265625,66.16650390625,95.97900390625,67.06103515625,95.97900390625,68.16650390625C95.97900390625,69.27197265625,95.08447265625,70.16650390625,93.97900390625,70.16650390625L33.97900390625,70.16650390625C32.87353515625,70.16650390625,31.97900390625,69.27197265625,31.97900390625,68.16650390625C31.97900390625,67.06103515625,32.87353515625,66.16650390625,33.97900390625,66.16650390625ZM33.97900390625,66.16650390625" style="fill: rgb(222, 221, 218);"/></g></g><g id="shape-f73ffa6d-eea8-80d2-8006-99efeb1cf579"><g class="fills" id="fills-f73ffa6d-eea8-80d2-8006-99efeb1cf579"><path d="M33.97900390625,58.16650390625L93.97900390625,58.16650390625C95.08447265625,58.16650390625,95.97900390625,59.06103515625,95.97900390625,60.16650390625C95.97900390625,61.27197265625,95.08447265625,62.16650390625,93.97900390625,62.16650390625L33.97900390625,62.16650390625C32.87353515625,62.16650390625,31.97900390625,61.27197265625,31.97900390625,60.16650390625C31.97900390625,59.06103515625,32.87353515625,58.16650390625,33.97900390625,58.16650390625ZM33.97900390625,58.16650390625" style="fill: rgb(222, 221, 218);"/></g></g><g id="shape-f73ffa6d-eea8-80d2-8006-99efeb1cf57a"><g class="fills" id="fills-f73ffa6d-eea8-80d2-8006-99efeb1cf57a"><path d="M33.97900390625,50.16650390625L93.97900390625,50.16650390625C95.08447265625,50.16650390625,95.97900390625,51.06103515625,95.97900390625,52.16650390625C95.97900390625,53.27197265625,95.08447265625,54.16650390625,93.97900390625,54.16650390625L33.97900390625,54.16650390625C32.87353515625,54.16650390625,31.97900390625,53.27197265625,31.97900390625,52.16650390625C31.97900390625,51.06103515625,32.87353515625,50.16650390625,33.97900390625,50.16650390625ZM33.97900390625,50.16650390625" style="fill: rgb(222, 221, 218);"/></g></g><g id="shape-f73ffa6d-eea8-80d2-8006-99efeb1cf57b"><g class="fills" id="fills-f73ffa6d-eea8-80d2-8006-99efeb1cf57b"><path d="M33.97900390625,42.16650390625L69.97900390625,42.16650390625C71.08447265625,42.16650390625,71.97900390625,42.76025390625,71.97900390625,43.49072265625L71.97900390625,44.84228515625C71.97900390625,45.57275390625,71.08447265625,46.16650390625,69.97900390625,46.16650390625L33.97900390625,46.16650390625C32.87353515625,46.16650390625,31.97900390625,45.57275390625,31.97900390625,44.84228515625L31.97900390625,43.49072265625C31.97900390625,42.76025390625,32.87353515625,42.16650390625,33.97900390625,42.16650390625ZM33.97900390625,42.16650390625" style="fill: rgb(222, 221, 218);"/></g></g><g id="shape-f73ffa6d-eea8-80d2-8006-99efeb1cf57c"><g class="fills" id="fills-f73ffa6d-eea8-80d2-8006-99efeb1cf57c"><path d="M33.97900390625,34.16650390625L69.97900390625,34.16650390625C71.08447265625,34.16650390625,71.97900390625,34.76025390625,71.97900390625,35.49072265625L71.97900390625,36.84228515625C71.97900390625,37.57275390625,71.08447265625,38.16650390625,69.97900390625,38.16650390625L33.97900390625,38.16650390625C32.87353515625,38.16650390625,31.97900390625,37.57275390625,31.97900390625,36.84228515625L31.97900390625,35.49072265625C31.97900390625,34.76025390625,32.87353515625,34.16650390625,33.97900390625,34.16650390625ZM33.97900390625,34.16650390625" style="fill: rgb(222, 221, 218);"/></g></g><g id="shape-f73ffa6d-eea8-80d2-8006-99efeb1cf57d"><g class="fills" id="fills-f73ffa6d-eea8-80d2-8006-99efeb1cf57d"><path d="M33.97900390625,26.16650390625L69.97900390625,26.16650390625C71.08447265625,26.16650390625,71.97900390625,26.76025390625,71.97900390625,27.49072265625L71.97900390625,28.84228515625C71.97900390625,29.57275390625,71.08447265625,30.16650390625,69.97900390625,30.16650390625L33.97900390625,30.16650390625C32.87353515625,30.16650390625,31.97900390625,29.57275390625,31.97900390625,28.84228515625L31.97900390625,27.49072265625C31.97900390625,26.76025390625,32.87353515625,26.16650390625,33.97900390625,26.16650390625ZM33.97900390625,26.16650390625" style="fill: rgb(222, 221, 218);"/></g></g></g></g><g id="shape-f73ffa6d-eea8-80d2-8006-99efeb1cf570" height="16" width="16" rx="0" ry="0" style="fill: rgb(0, 0, 0);"><g id="shape-f73ffa6d-eea8-80d2-8006-99efeb1cf57e" style="display: none;"><g class="fills" id="fills-f73ffa6d-eea8-80d2-8006-99efeb1cf57e"><rect width="32" height="32" x="80" transform="matrix(1.000000, 0.000000, 0.000000, 1.000000, 0.000000, 0.000000)" style="fill: rgb(86, 94, 113); fill-opacity: 1;" ry="0" fill="none" rx="0" y="80"/></g></g><g id="shape-f73ffa6d-eea8-80d2-8006-99efeb1cf57f"><g class="fills" id="fills-f73ffa6d-eea8-80d2-8006-99efeb1cf57f"><path d="M96,82.00048828125C91.6015625,82.00048828125,88,85.60205078125,88,90.00048828125L88,94.00048828125C85.78125,94.00048828125,84,95.78173828125,84,98.00048828125L84,108.00048828125C84,109.10986328125,84.890625,110.00048828125,86,110.00048828125L106,110.00048828125C107.109375,110.00048828125,108,109.10986328125,108,108.00048828125L108,98.00048828125C108,95.78173828125,106.21875,94.00048828125,104,94.00048828125L104,90.00048828125C104,85.60205078125,100.3984375,82.00048828125,96,82.00048828125L96,82.00048828125M96,86.00048828125C98.25,86.00048828125,100,87.75048828125,100,90.00048828125L100,94.00048828125L92,94.00048828125L92,90.00048828125C92,87.75048828125,93.75,86.00048828125,96,86.00048828125L96,86.00048828125M96,86.00048828125" style="fill: rgb(86, 94, 113); fill-opacity: 1;"/></g></g></g></g></svg>