<svg xmlns="http://www.w3.org/2000/svg" xmlns:xlink="http://www.w3.org/1999/xlink" id="screenshot-c8c81c4e-fe69-80ea-8006-99f50ec1bccb" fill="none" version="1.1" viewBox="19.98 6.17 92.02 112"><g id="shape-c8c81c4e-fe69-80ea-8006-99f50ec1bccb" height="128" width="128" rx="0" ry="0" style="fill: rgb(0, 0, 0);"><g id="shape-c8c81c4e-fe69-80ea-8006-99f50ec1bccc" style="display: none;"><g class="fills" id="fills-c8c81c4e-fe69-80ea-8006-99f50ec1bccc"><rect width="128" height="128" x="0" transform="matrix(1.000000, 0.000000, 0.000000, 1.000000, 0.000000, 0.000000)" style="fill: none;" ry="0" fill="none" rx="0" y="0"/></g></g><g id="shape-c8c81c4e-fe69-80ea-8006-99f50ec1bccd" rx="0" ry="0"><g id="shape-c8c81c4e-fe69-80ea-8006-99f50ec1bccf"><g class="fills" id="fills-c8c81c4e-fe69-80ea-8006-99f50ec1bccf"><path d="M27.97900390625,6.16650390625L77.97900390625,6.16650390625L108.02197265625,36.08447265625L108.02197265625,110.14306640625C108.02197265625,114.57666015625,104.41259765625,118.16650390625,99.97900390625,118.16650390625L27.97900390625,118.16650390625C23.54541015625,118.16650390625,19.97900390625,114.60009765625,19.97900390625,110.16650390625L19.97900390625,14.16650390625C19.97900390625,9.73291015625,23.54541015625,6.16650390625,27.97900390625,6.16650390625ZM27.97900390625,6.16650390625" style="fill: rgb(246, 245, 244);"/></g></g><g id="shape-c8c81c4e-fe69-80ea-8006-99f50ec1bcd0" rx="0" ry="0" style="fill: rgb(0, 0, 0);"><g id="shape-c8c81c4e-fe69-80ea-8006-99f50ec1bcd1"><g class="fills" id="fills-c8c81c4e-fe69-80ea-8006-99f50ec1bcd1"><path d="M77.97900390625,6.16650390625L77.97900390625,28.16650390625C77.97900390625,32.60009765625,81.58837890625,36.08837890625,86.02197265625,36.08837890625L108.02197265625,36.08447265625ZM77.97900390625,6.16650390625" style="fill: rgb(222, 221, 218);"/></g></g><g id="shape-c8c81c4e-fe69-80ea-8006-99f50ec1bcd2"><g class="fills" id="fills-c8c81c4e-fe69-80ea-8006-99f50ec1bcd2"><path d="M33.97900390625,98.16650390625L93.97900390625,98.16650390625C95.08447265625,98.16650390625,95.97900390625,99.06103515625,95.97900390625,100.16650390625C95.97900390625,101.27197265625,95.08447265625,102.16650390625,93.97900390625,102.16650390625L33.97900390625,102.16650390625C32.87353515625,102.16650390625,31.97900390625,101.27197265625,31.97900390625,100.16650390625C31.97900390625,99.06103515625,32.87353515625,98.16650390625,33.97900390625,98.16650390625ZM33.97900390625,98.16650390625" style="fill: rgb(222, 221, 218);"/></g></g><g id="shape-c8c81c4e-fe69-80ea-8006-99f50ec1bcd3"><g class="fills" id="fills-c8c81c4e-fe69-80ea-8006-99f50ec1bcd3"><path d="M33.97900390625,90.16650390625L93.97900390625,90.16650390625C95.08447265625,90.16650390625,95.97900390625,91.06103515625,95.97900390625,92.16650390625C95.97900390625,93.27197265625,95.08447265625,94.16650390625,93.97900390625,94.16650390625L33.97900390625,94.16650390625C32.87353515625,94.16650390625,31.97900390625,93.27197265625,31.97900390625,92.16650390625C31.97900390625,91.06103515625,32.87353515625,90.16650390625,33.97900390625,90.16650390625ZM33.97900390625,90.16650390625" style="fill: rgb(222, 221, 218);"/></g></g><g id="shape-c8c81c4e-fe69-80ea-8006-99f50ec1bcd4"><g class="fills" id="fills-c8c81c4e-fe69-80ea-8006-99f50ec1bcd4"><path d="M33.97900390625,82.16650390625L93.97900390625,82.16650390625C95.08447265625,82.16650390625,95.97900390625,83.06103515625,95.97900390625,84.16650390625C95.97900390625,85.27197265625,95.08447265625,86.16650390625,93.97900390625,86.16650390625L33.97900390625,86.16650390625C32.87353515625,86.16650390625,31.97900390625,85.27197265625,31.97900390625,84.16650390625C31.97900390625,83.06103515625,32.87353515625,82.16650390625,33.97900390625,82.16650390625ZM33.97900390625,82.16650390625" style="fill: rgb(222, 221, 218);"/></g></g><g id="shape-c8c81c4e-fe69-80ea-8006-99f50ec1bcd5"><g class="fills" id="fills-c8c81c4e-fe69-80ea-8006-99f50ec1bcd5"><path d="M33.97900390625,74.16650390625L93.97900390625,74.16650390625C95.08447265625,74.16650390625,95.97900390625,75.06103515625,95.97900390625,76.16650390625C95.97900390625,77.27197265625,95.08447265625,78.16650390625,93.97900390625,78.16650390625L33.97900390625,78.16650390625C32.87353515625,78.16650390625,31.97900390625,77.27197265625,31.97900390625,76.16650390625C31.97900390625,75.06103515625,32.87353515625,74.16650390625,33.97900390625,74.16650390625ZM33.97900390625,74.16650390625" style="fill: rgb(222, 221, 218);"/></g></g><g id="shape-c8c81c4e-fe69-80ea-8006-99f50ec1bcd6"><g class="fills" id="fills-c8c81c4e-fe69-80ea-8006-99f50ec1bcd6"><path d="M33.97900390625,66.16650390625L93.97900390625,66.16650390625C95.08447265625,66.16650390625,95.97900390625,67.06103515625,95.97900390625,68.16650390625C95.97900390625,69.27197265625,95.08447265625,70.16650390625,93.97900390625,70.16650390625L33.97900390625,70.16650390625C32.87353515625,70.16650390625,31.97900390625,69.27197265625,31.97900390625,68.16650390625C31.97900390625,67.06103515625,32.87353515625,66.16650390625,33.97900390625,66.16650390625ZM33.97900390625,66.16650390625" style="fill: rgb(222, 221, 218);"/></g></g><g id="shape-c8c81c4e-fe69-80ea-8006-99f50ec1bcd7"><g class="fills" id="fills-c8c81c4e-fe69-80ea-8006-99f50ec1bcd7"><path d="M33.97900390625,58.16650390625L93.97900390625,58.16650390625C95.08447265625,58.16650390625,95.97900390625,59.06103515625,95.97900390625,60.16650390625C95.97900390625,61.27197265625,95.08447265625,62.16650390625,93.97900390625,62.16650390625L33.97900390625,62.16650390625C32.87353515625,62.16650390625,31.97900390625,61.27197265625,31.97900390625,60.16650390625C31.97900390625,59.06103515625,32.87353515625,58.16650390625,33.97900390625,58.16650390625ZM33.97900390625,58.16650390625" style="fill: rgb(222, 221, 218);"/></g></g><g id="shape-c8c81c4e-fe69-80ea-8006-99f50ec1bcd8"><g class="fills" id="fills-c8c81c4e-fe69-80ea-8006-99f50ec1bcd8"><path d="M33.97900390625,50.16650390625L93.97900390625,50.16650390625C95.08447265625,50.16650390625,95.97900390625,51.06103515625,95.97900390625,52.16650390625C95.97900390625,53.27197265625,95.08447265625,54.16650390625,93.97900390625,54.16650390625L33.97900390625,54.16650390625C32.87353515625,54.16650390625,31.97900390625,53.27197265625,31.97900390625,52.16650390625C31.97900390625,51.06103515625,32.87353515625,50.16650390625,33.97900390625,50.16650390625ZM33.97900390625,50.16650390625" style="fill: rgb(222, 221, 218);"/></g></g><g id="shape-c8c81c4e-fe69-80ea-8006-99f50ec1bcd9"><g class="fills" id="fills-c8c81c4e-fe69-80ea-8006-99f50ec1bcd9"><path d="M33.97900390625,42.16650390625L69.97900390625,42.16650390625C71.08447265625,42.16650390625,71.97900390625,42.76025390625,71.97900390625,43.49072265625L71.97900390625,44.84228515625C71.97900390625,45.57275390625,71.08447265625,46.16650390625,69.97900390625,46.16650390625L33.97900390625,46.16650390625C32.87353515625,46.16650390625,31.97900390625,45.57275390625,31.97900390625,44.84228515625L31.97900390625,43.49072265625C31.97900390625,42.76025390625,32.87353515625,42.16650390625,33.97900390625,42.16650390625ZM33.97900390625,42.16650390625" style="fill: rgb(222, 221, 218);"/></g></g><g id="shape-c8c81c4e-fe69-80ea-8006-99f50ec1bcda"><g class="fills" id="fills-c8c81c4e-fe69-80ea-8006-99f50ec1bcda"><path d="M33.97900390625,34.16650390625L69.97900390625,34.16650390625C71.08447265625,34.16650390625,71.97900390625,34.76025390625,71.97900390625,35.49072265625L71.97900390625,36.84228515625C71.97900390625,37.57275390625,71.08447265625,38.16650390625,69.97900390625,38.16650390625L33.97900390625,38.16650390625C32.87353515625,38.16650390625,31.97900390625,37.57275390625,31.97900390625,36.84228515625L31.97900390625,35.49072265625C31.97900390625,34.76025390625,32.87353515625,34.16650390625,33.97900390625,34.16650390625ZM33.97900390625,34.16650390625" style="fill: rgb(222, 221, 218);"/></g></g><g id="shape-c8c81c4e-fe69-80ea-8006-99f50ec1bcdb"><g class="fills" id="fills-c8c81c4e-fe69-80ea-8006-99f50ec1bcdb"><path d="M33.97900390625,26.16650390625L69.97900390625,26.16650390625C71.08447265625,26.16650390625,71.97900390625,26.76025390625,71.97900390625,27.49072265625L71.97900390625,28.84228515625C71.97900390625,29.57275390625,71.08447265625,30.16650390625,69.97900390625,30.16650390625L33.97900390625,30.16650390625C32.87353515625,30.16650390625,31.97900390625,29.57275390625,31.97900390625,28.84228515625L31.97900390625,27.49072265625C31.97900390625,26.76025390625,32.87353515625,26.16650390625,33.97900390625,26.16650390625ZM33.97900390625,26.16650390625" style="fill: rgb(222, 221, 218);"/></g></g></g></g><g id="shape-c8c81c4e-fe69-80ea-8006-99f5e36eb273" height="16" width="16" rx="0" ry="0" style="fill: rgb(0, 0, 0);"><g id="shape-c8c81c4e-fe69-80ea-8006-99f5e36eb274" style="display: none;"><g class="fills" id="fills-c8c81c4e-fe69-80ea-8006-99f5e36eb274"><rect width="32" height="32" x="80" transform="matrix(1.000000, 0.000000, 0.000000, 1.000000, 0.000000, 0.000000)" style="fill: rgb(86, 94, 113); fill-opacity: 1;" ry="0" fill="none" rx="0" y="80"/></g></g><g id="shape-c8c81c4e-fe69-80ea-8006-99f5e36eb275"><g class="fills" id="fills-c8c81c4e-fe69-80ea-8006-99f5e36eb275"><path d="M98.8359375,83.171875L106.8359375,91.171875C107.578125,91.921875,107.984375,92.9453125,108,93.46875L108.0078125,96C108.0078125,98,106.0078125,98,106.0078125,98L86.0078125,98C86.0078125,98,84.0078125,98,84.0078125,96L84.0078125,94L84.015625,94C84.0078125,92.9375,84.4296875,91.921875,85.1796875,91.171875L93.1796875,83.171875C93.9296875,82.421875,94.8046875,81.9375,96.0078125,82C97.2109375,82.0625,98.1953125,82.53125,98.8359375,83.171875ZM106.0078125,102C107.109375,102,108.0078125,102.890625,108.0078125,104L108.0078125,106C108.0078125,107.109375,107.109375,108,106.0078125,108L86.0078125,108C84.8984375,108,84.0078125,107.109375,84.0078125,106L84.0078125,104C84.0078125,102.890625,84.8984375,102,86.0078125,102ZM106.0078125,102" style="fill: rgb(86, 94, 113); fill-opacity: 1;"/></g></g></g></g></svg>