<svg xmlns="http://www.w3.org/2000/svg" id="screenshot-51aa5b83-99dd-8061-8006-944420023b54" xmlns:xlink="http://www.w3.org/1999/xlink" fill="none" version="1.1" viewBox="24 18 104 106.03"><g id="shape-51aa5b83-99dd-8061-8006-944420023b54"><g class="frame-container-wrapper"><g class="frame-container-blur"><g class="frame-container-shadows"><g fill="none"><g class="fills" id="fills-51aa5b83-99dd-8061-8006-944420023b54"><rect rx="0" ry="0" x="0" y="0" width="152" height="140" transform="matrix(1.000000, 0.000000, 0.000000, 1.000000, 0.000000, 0.000000)" class="frame-background"></rect></g><g class="frame-children"><g id="shape-51aa5b83-99dd-8061-8006-944420023b5d" height="128" width="128" rx="0" ry="0" style="fill: rgb(0, 0, 0);"><g id="shape-51aa5b83-99dd-8061-8006-944420023b5f" style="display: none;"><g class="fills" id="fills-51aa5b83-99dd-8061-8006-944420023b5f"><rect width="128" height="128" x="12" transform="matrix(1.000000, 0.000000, 0.000000, 1.000000, 0.000000, 0.000000)" style="fill: none;" ry="0" fill="none" rx="0" y="6"></rect></g></g><g id="shape-51aa5b83-99dd-8061-8006-944420023b60"><g class="fills" id="fills-51aa5b83-99dd-8061-8006-944420023b60"><path d="M33.9765625,18.000192642211914C28.44921875,18.000192642211914,24,22.461130142211914,24,28.000192642211914L24,114.03144073486328C24,119.57440948486328,28.44921875,124.03144073486328,33.9765625,124.03144073486328L118.01953125,124.03144073486328C123.55078125,124.03144073486328,128,119.57440948486328,128,114.03144073486328L128,41.94550704956055C128,35.31660079956055,122.640625,29.945505142211914,116.02734375,29.945505142211914L70,29.945505142211914C67.546875,29.945505142211914,65.3046875,28.558786392211914,64.203125,26.363473892211914L62.69921875,23.371286392211914C61.04296875,20.078317642211914,57.6796875,18.000192642211914,54,18.000192642211914ZM33.9765625,18.000192642211914" style="fill: rgb(81, 143, 247); fill-opacity: 1;"></path></g></g><g id="shape-51aa5b83-99dd-8061-8006-944420023b61"><defs><linearGradient x1="2689.252" y1="-1106.803" x2="2918.07" y2="-1106.803" id="render-16-a" gradientTransform="matrix(1.000000, 0.000000, 0.000000, 1.000000, 12.000000, 6.000000) matrix(0.45451 0 0 0.455522 -1210.292114 616.172607)" gradientUnits="userSpaceOnUse"><stop offset="0" stop-color="#62a0ea"></stop><stop offset=".058" stop-color="#afd4ff"></stop><stop offset=".122" stop-color="#62a0ea"></stop><stop offset=".873" stop-color="#62a0ea"></stop><stop offset=".956" stop-color="#c0d5ea"></stop><stop offset="1" stop-color="#62a0ea"></stop></linearGradient></defs><g class="fills" id="fills-51aa5b83-99dd-8061-8006-944420023b61"><path d="M77.9765625,42.00019454956055C75.23046875,42.00019454956055,72.75,43.10175704956055,70.94921875,44.89081954956055C68.67578125,47.14472579956055,65.56640625,50.00019454956055,62.31640625,50.00019454956055L33.9765625,50.00019454956055C28.44921875,50.00019454956055,24,54.46113204956055,24,60.00019454956055L24,114.03144073486328C24,119.57440948486328,28.44921875,124.03144073486328,33.9765625,124.03144073486328L118.01953125,124.03144073486328C123.55078125,124.03144073486328,128,119.57440948486328,128,114.03144073486328L128,52.00019454956055C128,46.46113204956055,123.55078125,42.00019454956055,118.01953125,42.00019454956055ZM77.9765625,42.00019454956055" fill="url(#render-16-a)" style="fill: url(&quot;#render-16-a&quot;);"></path></g></g><g id="shape-51aa5b83-99dd-8061-8006-944420023b62"><g class="fills" id="fills-51aa5b83-99dd-8061-8006-944420023b62"><path d="M77.9765625,38.00019454956055C75.23046875,38.00019454956055,72.75,39.10175704956055,70.94921875,40.89081954956055C68.67578125,43.14472579956055,65.56640625,46.00019454956055,62.31640625,46.00019454956055L33.9765625,46.00019454956055C28.44921875,46.00019454956055,24,50.46113204956055,24,56.00019454956055L24,111.97675323486328C24,117.51581573486328,28.44921875,121.97675323486328,33.9765625,121.97675323486328L118.01953125,121.97675323486328C123.55078125,121.97675323486328,128,117.51581573486328,128,111.97675323486328L128,48.00019454956055C128,42.46113204956055,123.55078125,38.00019454956055,118.01953125,38.00019454956055ZM77.9765625,38.00019454956055" style="fill: rgb(172, 199, 255); fill-opacity: 1;"></path></g></g></g></g></g></g></g></g></g></svg>