<svg xmlns="http://www.w3.org/2000/svg" xmlns:xlink="http://www.w3.org/1999/xlink" id="screenshot-c8c81c4e-fe69-80ea-8006-99f50d64f818" fill="none" version="1.1" viewBox="12 12 104 106.03"><g id="shape-c8c81c4e-fe69-80ea-8006-99f50d64f818" height="128" width="128" rx="0" ry="0" style="fill: rgb(0, 0, 0);"><g id="shape-c8c81c4e-fe69-80ea-8006-99f50d64f819" style="display: none;"><g class="fills" id="fills-c8c81c4e-fe69-80ea-8006-99f50d64f819"><rect width="128" height="128" x="0" transform="matrix(1.000000, 0.000000, 0.000000, 1.000000, 0.000000, 0.000000)" style="fill: none;" ry="0" fill="none" rx="0" y="0"/></g></g><g id="shape-c8c81c4e-fe69-80ea-8006-99f50d64f81a"><g class="fills" id="fills-c8c81c4e-fe69-80ea-8006-99f50d64f81a"><path d="M21.9765625,12C16.44921875,12,12,16.4609375,12,22L12,108.03125C12,113.57421875,16.44921875,118.03125,21.9765625,118.03125L106.01953125,118.03125C111.55078125,118.03125,116,113.57421875,116,108.03125L116,35.9453125C116,29.31640625,110.640625,23.9453125,104.02734375,23.9453125L58,23.9453125C55.546875,23.9453125,53.3046875,22.55859375,52.203125,20.36328125L50.69921875,17.37109375C49.04296875,14.078125,45.6796875,12,42,12ZM21.9765625,12" style="fill: rgb(81, 143, 247); fill-opacity: 1;"/></g></g><g id="shape-c8c81c4e-fe69-80ea-8006-99f50d64f81b"><defs><linearGradient x1="2689.252" y1="-1106.803" x2="2918.07" y2="-1106.803" id="render-46-a" gradientTransform="matrix(1.000000, 0.000000, 0.000000, 1.000000, 0.000000, 0.000000) matrix(0.45451 0 0 0.455522 -1210.292114 616.172607)" gradientUnits="userSpaceOnUse"><stop offset="0" stop-color="#62a0ea"/><stop offset=".058" stop-color="#afd4ff"/><stop offset=".122" stop-color="#62a0ea"/><stop offset=".873" stop-color="#62a0ea"/><stop offset=".956" stop-color="#c0d5ea"/><stop offset="1" stop-color="#62a0ea"/></linearGradient></defs><g class="fills" id="fills-c8c81c4e-fe69-80ea-8006-99f50d64f81b"><path d="M65.9765625,36C63.23046875,36,60.75,37.1015625,58.94921875,38.890625C56.67578125,41.14453125,53.56640625,44,50.31640625,44L21.9765625,44C16.44921875,44,12,48.4609375,12,54L12,108.03125C12,113.57421875,16.44921875,118.03125,21.9765625,118.03125L106.01953125,118.03125C111.55078125,118.03125,116,113.57421875,116,108.03125L116,46C116,40.4609375,111.55078125,36,106.01953125,36ZM65.9765625,36" fill="url(#render-46-a)" style="fill: url(&quot;#render-46-a&quot;);"/></g></g><g id="shape-c8c81c4e-fe69-80ea-8006-99f50d64f81c"><g class="fills" id="fills-c8c81c4e-fe69-80ea-8006-99f50d64f81c"><path d="M65.9765625,32C63.23046875,32,60.75,33.1015625,58.94921875,34.890625C56.67578125,37.14453125,53.56640625,40,50.31640625,40L21.9765625,40C16.44921875,40,12,44.4609375,12,50L12,105.9765625C12,111.515625,16.44921875,115.9765625,21.9765625,115.9765625L106.01953125,115.9765625C111.55078125,115.9765625,116,111.515625,116,105.9765625L116,42C116,36.4609375,111.55078125,32,106.01953125,32ZM65.9765625,32" style="fill: rgb(172, 199, 255); fill-opacity: 1;"/></g></g><g id="shape-c8c81c4e-fe69-80ea-8006-99f5bda9a354" height="16" width="16" rx="0" ry="0" style="fill: rgb(0, 0, 0);"><g id="shape-c8c81c4e-fe69-80ea-8006-99f5bda9a355" style="display: none;"><g class="fills" id="fills-c8c81c4e-fe69-80ea-8006-99f5bda9a355"><rect width="32" height="32" x="80" transform="matrix(1.000000, 0.000000, 0.000000, 1.000000, 0.000000, 0.000000)" style="fill: rgb(86, 94, 113); fill-opacity: 1;" ry="0" fill="none" rx="0" y="80"/></g></g><g id="shape-c8c81c4e-fe69-80ea-8006-99f5bda9a356"><g class="fills" id="fills-c8c81c4e-fe69-80ea-8006-99f5bda9a356"><path d="M98.8359375,83.171875L106.8359375,91.171875C107.578125,91.921875,107.984375,92.9453125,108,93.46875L108.0078125,96C108.0078125,98,106.0078125,98,106.0078125,98L86.0078125,98C86.0078125,98,84.0078125,98,84.0078125,96L84.0078125,94L84.015625,94C84.0078125,92.9375,84.4296875,91.921875,85.1796875,91.171875L93.1796875,83.171875C93.9296875,82.421875,94.8046875,81.9375,96.0078125,82C97.2109375,82.0625,98.1953125,82.53125,98.8359375,83.171875ZM106.0078125,102C107.109375,102,108.0078125,102.890625,108.0078125,104L108.0078125,106C108.0078125,107.109375,107.109375,108,106.0078125,108L86.0078125,108C84.8984375,108,84.0078125,107.109375,84.0078125,106L84.0078125,104C84.0078125,102.890625,84.8984375,102,86.0078125,102ZM106.0078125,102" style="fill: rgb(86, 94, 113); fill-opacity: 1;"/></g></g></g></g></svg>