<svg width="128" xmlns="http://www.w3.org/2000/svg" height="128" id="screenshot-75c89853-880c-80a5-8006-945806d95d5a" viewBox="0 0 128 128" xmlns:xlink="http://www.w3.org/1999/xlink" fill="none" version="1.1"><g id="shape-75c89853-880c-80a5-8006-945806d95d5a" height="128" width="128" rx="0" ry="0" style="fill: rgb(0, 0, 0);"><g id="shape-75c89853-880c-80a5-8006-945806d95d5c" style="display: none;"><g class="fills" id="fills-75c89853-880c-80a5-8006-945806d95d5c"><rect width="128" height="128" x="0" transform="matrix(1.000000, 0.000000, 0.000000, 1.000000, 0.000000, 0.000000)" style="fill: none;" ry="0" fill="none" rx="0" y="0"/></g></g><g id="shape-75c89853-880c-80a5-8006-945806d95d5d"><g class="fills" id="fills-75c89853-880c-80a5-8006-945806d95d5d"><path d="M28.00032615661621,8L78.00032806396484,8L108.04329681396484,37.91796875L108.04329681396484,111.9765625C108.04329681396484,116.41015625,104.43392181396484,120,100.00032806396484,120L28.00032615661621,120C23.56673240661621,120,20.00032615661621,116.43359375,20.00032615661621,112L20.00032615661621,16C20.00032615661621,11.56640625,23.56673240661621,8,28.00032615661621,8ZM28.00032615661621,8" style="fill: rgb(246, 245, 244);"/></g></g><g id="shape-75c89853-880c-80a5-8006-945806d95d5e" width="24" height="24" rx="0" ry="0" style="fill: rgb(0, 0, 0);"><g id="shape-75c89853-880c-80a5-8006-945806d95d60" style="display: none;"><g class="fills" id="fills-75c89853-880c-80a5-8006-945806d95d60"><rect width="48" height="48" x="40" transform="matrix(1.000000, 0.000000, 0.000000, 1.000000, 0.000000, 0.000000)" style="fill: rgb(81, 143, 247); fill-opacity: 1;" ry="0" fill="none" rx="0" y="50"/></g></g><g id="shape-75c89853-880c-80a5-8006-945806d95d61"><g class="fills" id="fills-75c89853-880c-80a5-8006-945806d95d61"><path d="M64.00228118896484,54C52.95735549926758,54,44.00423049926758,62.95458984375,44.00423049926758,74C44.00423049926758,82.83984375,49.74251174926758,90.33984375,57.68196487426758,93C58.68196487426758,93.16015625,59.00423049926758,92.5400390625,59.00423049926758,92L59.00423049926758,88.6201171875C53.46321487426758,89.81982421875,52.28352737426758,85.93994140625,52.28352737426758,85.93994140625C51.36360549926758,83.6201171875,50.06087112426758,83,50.06087112426758,83C48.24251174926758,81.76025390625,50.20149612426758,81.7998046875,50.20149612426758,81.7998046875C52.19758987426758,81.93994140625,53.26204299926758,83.8603515625,53.26204299926758,83.8603515625C55.00227737426758,86.89990234375,57.94563674926758,86,59.08040237426758,85.52001953125C59.26204299926758,84.2197265625,59.78352737426758,83.34033203125,60.34602737426758,82.83984375C55.90071487426758,82.33984375,51.24251174926758,80.6201171875,51.24251174926758,73C51.24251174926758,70.77978515625,52.00227737426758,69,53.30501174926758,67.580078125C53.10383987426758,67.080078125,52.40462112426758,65,53.50227737426758,62.2998046875C53.50227737426758,62.2998046875,55.18001174926758,61.76025390625,59.00423049926758,64.33984375C60.58040237426758,63.89990234375,62.30501174926758,63.68017578125,64.00228118896484,63.68017578125C65.69759368896484,63.68017578125,67.42415618896484,63.89990234375,69.00228118896484,64.33984375C72.82259368896484,61.76025390625,74.50228118896484,62.2998046875,74.50228118896484,62.2998046875C75.60384368896484,65,74.90462493896484,67.080078125,74.69759368896484,67.580078125C76.00228118896484,69,76.76009368896484,70.77978515625,76.76009368896484,73C76.76009368896484,80.64013671875,72.08235931396484,82.31982421875,67.61946868896484,82.8203125C68.34212493896484,83.43994140625,69.00228118896484,84.66015625,69.00228118896484,86.52001953125L69.00228118896484,92C69.00228118896484,92.5400390625,69.32259368896484,93.18017578125,70.33821868896484,93C78.27962493896484,90.3203125,84.00228118896484,82.83984375,84.00228118896484,74C84.00228118896484,62.95458984375,75.04524993896484,54,64.00228118896484,54" style="fill: rgb(81, 143, 247); fill-opacity: 1;"/></g></g></g><g id="shape-75c89853-880c-80a5-8006-945806d95d5f" rx="0" ry="0" style="fill: rgb(0, 0, 0);"><g id="shape-75c89853-880c-80a5-8006-945806d95d62"><g class="fills" id="fills-75c89853-880c-80a5-8006-945806d95d62"><path d="M78.00032806396484,8L78.00032806396484,30C78.00032806396484,34.43359375,81.60970306396484,37.921875,86.04329681396484,37.921875L108.04329681396484,37.91796875ZM78.00032806396484,8" style="fill: rgb(222, 221, 218);"/></g></g></g></g></svg>