<svg width="152" xmlns="http://www.w3.org/2000/svg" height="140" id="screenshot-51aa5b83-99dd-8061-8006-944420023b5b" viewBox="0 0 152 140" xmlns:xlink="http://www.w3.org/1999/xlink" fill="none" version="1.1"><g id="shape-51aa5b83-99dd-8061-8006-944420023b5b"><g class="frame-container-wrapper"><g class="frame-container-blur"><g class="frame-container-shadows"><g fill="none"><g class="fills" id="fills-51aa5b83-99dd-8061-8006-944420023b5b"><rect rx="12" ry="12" x="0" y="0" width="152" height="140" transform="matrix(1.000000, 0.000000, 0.000000, 1.000000, 0.000000, 0.000000)" class="frame-background"/></g><g class="frame-children"><g id="shape-51aa5b83-99dd-8061-8006-944420023b99" height="128" width="128" rx="0" ry="0" style="fill: rgb(0, 0, 0);"><g id="shape-51aa5b83-99dd-8061-8006-944420023b9b" style="display: none;"><g class="fills" id="fills-51aa5b83-99dd-8061-8006-944420023b9b"><rect width="128" height="128" x="12" transform="matrix(1.000000, 0.000000, 0.000000, 1.000000, 0.000000, 0.000000)" style="fill: none;" ry="0" fill="none" rx="0" y="6"/></g></g><g id="shape-51aa5b83-99dd-8061-8006-944420023b9c"><g class="fills" id="fills-51aa5b83-99dd-8061-8006-944420023b9c"><path d="M33.9765625,17.999755859375C28.44921875,17.999755859375,24,22.460693359375,24,27.999755859375L24,114.03125C24,119.57421875,28.44921875,124.03125,33.9765625,124.03125L118.01953125,124.03125C123.55078125,124.03125,128,119.57421875,128,114.03125L128,41.945068359375C128,35.316162109375,122.640625,29.945068359375,116.02734375,29.945068359375L70,29.945068359375C67.546875,29.945068359375,65.3046875,28.558349609375,64.203125,26.363037109375L62.69921875,23.370849609375C61.04296875,20.077880859375,57.6796875,17.999755859375,54,17.999755859375ZM33.9765625,17.999755859375" style="fill: rgb(81, 143, 247); fill-opacity: 1;"/></g></g><g id="shape-51aa5b83-99dd-8061-8006-944420023b9d"><defs><linearGradient x1="2689.252" y1="-1106.803" x2="2918.07" y2="-1106.803" id="render-5-a" gradientTransform="matrix(1.000000, 0.000000, 0.000000, 1.000000, 12.000000, 6.000000) matrix(0.45451 0 0 0.455522 -1210.292114 616.172607)" gradientUnits="userSpaceOnUse"><stop offset="0" stop-color="#62a0ea"/><stop offset=".058" stop-color="#afd4ff"/><stop offset=".122" stop-color="#62a0ea"/><stop offset=".873" stop-color="#62a0ea"/><stop offset=".956" stop-color="#c0d5ea"/><stop offset="1" stop-color="#62a0ea"/></linearGradient></defs><g class="fills" id="fills-51aa5b83-99dd-8061-8006-944420023b9d"><path d="M77.9765625,41.999755859375C75.23046875,41.999755859375,72.75,43.101318359375,70.94921875,44.890380859375C68.67578125,47.144287109375,65.56640625,49.999755859375,62.31640625,49.999755859375L33.9765625,49.999755859375C28.44921875,49.999755859375,24,54.460693359375,24,59.999755859375L24,114.03125C24,119.57421875,28.44921875,124.03125,33.9765625,124.03125L118.01953125,124.03125C123.55078125,124.03125,128,119.57421875,128,114.03125L128,51.999755859375C128,46.460693359375,123.55078125,41.999755859375,118.01953125,41.999755859375ZM77.9765625,41.999755859375" fill="url(#render-5-a)" style="fill: url(&quot;#render-5-a&quot;);"/></g></g><g id="shape-51aa5b83-99dd-8061-8006-944420023b9e"><g class="fills" id="fills-51aa5b83-99dd-8061-8006-944420023b9e"><path d="M77.9765625,37.999755859375C75.23046875,37.999755859375,72.75,39.101318359375,70.94921875,40.890380859375C68.67578125,43.144287109375,65.56640625,45.999755859375,62.31640625,45.999755859375L33.9765625,45.999755859375C28.44921875,45.999755859375,24,50.460693359375,24,55.999755859375L24,111.9765625C24,117.515625,28.44921875,121.9765625,33.9765625,121.9765625L118.01953125,121.9765625C123.55078125,121.9765625,128,117.515625,128,111.9765625L128,47.999755859375C128,42.460693359375,123.55078125,37.999755859375,118.01953125,37.999755859375ZM77.9765625,37.999755859375" style="fill: rgb(172, 199, 255); fill-opacity: 1;"/></g></g><g id="shape-51aa5b83-99dd-8061-8006-944420023b9f" width="24" height="24" rx="0" ry="0" style="fill: rgb(0, 0, 0);"><g id="shape-51aa5b83-99dd-8061-8006-944420023ba0" style="display: none;"><g class="fills" id="fills-51aa5b83-99dd-8061-8006-944420023ba0"><rect width="32" height="32" x="60" transform="matrix(1.000000, 0.000000, 0.000000, 1.000000, 0.000000, 0.000000)" style="fill: none;" ry="0" fill="none" rx="0" y="66"/></g></g><g id="shape-51aa5b83-99dd-8061-8006-944420023ba1" rx="0" ry="0" style="fill: rgb(0, 0, 0);"><g id="shape-51aa5b83-99dd-8061-8006-944420023ba2"><g class="fills" id="fills-51aa5b83-99dd-8061-8006-944420023ba2"><path d="M76.7919921875,97.0107421875L76.7763671875,97.013671875L76.6806640625,97.06005859375L76.6552734375,97.0654296875L76.6357421875,97.06005859375L76.5419921875,97.01220703125C76.52734375,97.0087890625,76.5166015625,97.01123046875,76.5087890625,97.02001953125L76.50390625,97.033203125L76.4814453125,97.60400390625L76.48828125,97.630859375L76.5009765625,97.6484375L76.640625,97.7470703125L76.66015625,97.751953125L76.67578125,97.7470703125L76.8154296875,97.6484375L76.8310546875,97.626953125L76.8359375,97.60400390625L76.8134765625,97.03466796875C76.8095703125,97.0205078125,76.8017578125,97.0126953125,76.7919921875,97.0107421875M77.14453125,96.8603515625L77.125,96.86279296875L76.8798828125,96.98681640625L76.8671875,97L76.86328125,97.0146484375L76.88671875,97.587890625L76.8935546875,97.60400390625L76.9033203125,97.61474609375L77.171875,97.7373046875C77.1884765625,97.7421875,77.2021484375,97.73828125,77.2109375,97.7265625L77.2158203125,97.7080078125L77.1708984375,96.8896484375C77.1669921875,96.87255859375,77.1572265625,96.86279296875,77.14453125,96.8603515625M76.1904296875,96.86279296875C76.1787109375,96.85546875,76.1630859375,96.85888671875,76.1552734375,96.87109375L76.1474609375,96.8896484375L76.1015625,97.7080078125C76.1025390625,97.72412109375,76.109375,97.73486328125,76.1240234375,97.740234375L76.14453125,97.7373046875L76.4111328125,97.61328125L76.42578125,97.6025390625L76.4296875,97.587890625L76.453125,97.0146484375L76.44921875,96.9990234375L76.4365234375,96.9853515625Z" fill="none" style="fill: none;"/></g></g><g id="shape-51aa5b83-99dd-8061-8006-944420023ba3"><g class="fills" id="fills-51aa5b83-99dd-8061-8006-944420023ba3"><path d="M88.3173828125,88.6669921875L86.0078125,92.6669921875C85.5703125,93.4248046875,84.7880859375,93.91943359375,83.9150390625,93.99072265625L83.6982421875,94L68.30078125,94C67.9677734375,93.9990234375,67.6494140625,93.9404296875,67.3466796875,93.82275390625L67.1259765625,93.7265625L70.046875,88.6669921875ZM71.4365234375,70.4521484375L74.4599609375,75.69091796875L65.3271484375,91.51220703125L62.9111328125,87.33349609375C62.4365234375,86.50830078125,62.4365234375,85.4921875,62.9111328125,84.6669921875L70.6103515625,71.33349609375C70.8193359375,70.9736328125,71.1025390625,70.6748046875,71.4365234375,70.4521484375M79.078125,70C79.9541015625,70,80.7734375,70.4287109375,81.2724609375,71.1484375L81.38671875,71.33349609375L89.0859375,84.6669921875C89.2841796875,85.0107421875,89.3994140625,85.38671875,89.4326171875,85.7705078125L89.4423828125,86L83.4912109375,86L74.25390625,70ZM76,78.357421875L80.4130859375,86L71.5869140625,86Z" style="fill: rgb(81, 143, 247); fill-opacity: 1;"/></g></g></g></g></g></g></g></g></g></g></g></svg>