<svg xmlns="http://www.w3.org/2000/svg" xmlns:xlink="http://www.w3.org/1999/xlink" id="screenshot-75c89853-880c-80a5-8006-945806d95d4f" fill="none" version="1.1" viewBox="20 8 88.04 112"><g id="shape-75c89853-880c-80a5-8006-945806d95d4f" height="128" width="128" rx="0" ry="0" style="fill: rgb(0, 0, 0);"><g id="shape-75c89853-880c-80a5-8006-945806d95d51" style="display: none;"><g class="fills" id="fills-75c89853-880c-80a5-8006-945806d95d51"><rect width="128" height="128" x="0" transform="matrix(1.000000, 0.000000, 0.000000, 1.000000, 0.000000, 0.000000)" style="fill: none;" ry="0" fill="none" rx="0" y="0"/></g></g><g id="shape-75c89853-880c-80a5-8006-945806d95d52"><g class="fills" id="fills-75c89853-880c-80a5-8006-945806d95d52"><path d="M28,8L78,8L108.04296875,37.91796875L108.04296875,111.9765625C108.04296875,116.41015625,104.43359375,120,100,120L28,120C23.56640625,120,20,116.43359375,20,112L20,16C20,11.56640625,23.56640625,8,28,8ZM28,8" style="fill: rgb(246, 245, 244);"/></g></g><g id="shape-75c89853-880c-80a5-8006-945806d95d53" rx="0" ry="0" style="fill: rgb(0, 0, 0);"><g id="shape-75c89853-880c-80a5-8006-945806d95d55"><g class="fills" id="fills-75c89853-880c-80a5-8006-945806d95d55"><path d="M78,8L78,30C78,34.43359375,81.609375,37.921875,86.04296875,37.921875L108.04296875,37.91796875ZM78,8" style="fill: rgb(222, 221, 218);"/></g></g></g><g id="shape-75c89853-880c-80a5-8006-945806d95d54" width="24" height="24" rx="0" ry="0" style="fill: rgb(0, 0, 0);"><g id="shape-75c89853-880c-80a5-8006-945806d95d56" style="display: none;"><g class="fills" id="fills-75c89853-880c-80a5-8006-945806d95d56"><rect width="48" height="48" x="40" transform="matrix(1.000000, 0.000000, 0.000000, 1.000000, 0.000000, 0.000000)" style="fill: rgb(81, 143, 247); fill-opacity: 1;" ry="0" fill="none" rx="0" y="50"/></g></g><g id="shape-75c89853-880c-80a5-8006-945806d95d57"><g class="fills" id="fills-75c89853-880c-80a5-8006-945806d95d57"><path d="M78.001953125,56C80.208984375,56,82,57.791015625,82,60L82,88C82,90.208984375,80.208984375,92,78.001953125,92L50.00390625,92C47.791015625,92,46,90.208984375,46,88L46,60C46,57.791015625,47.791015625,56,50.00390625,56ZM77.00390625,87L77.00390625,76.39990234375C77.00390625,72.798828125,74.078125,69.8798828125,70.478515625,69.8798828125C68.78125,69.8798828125,66.802734375,70.919921875,65.837890625,72.47998046875L65.837890625,70.259765625L60.259765625,70.259765625L60.259765625,87L65.837890625,87L65.837890625,77.14013671875C65.837890625,75.599609375,67.080078125,74.33984375,68.62109375,74.33984375C69.36328125,74.33984375,70.07421875,74.63525390625,70.599609375,75.16015625C71.125,75.68505859375,71.419921875,76.3974609375,71.419921875,77.14013671875L71.419921875,87ZM53.76171875,67.11962890625C54.65234375,67.11962890625,55.505859375,66.76611328125,56.134765625,66.1357421875C56.767578125,65.50537109375,57.119140625,64.65087890625,57.119140625,63.76025390625C57.119140625,61.89990234375,55.619140625,60.3798828125,53.76171875,60.3798828125C51.896484375,60.3798828125,50.37890625,61.89306640625,50.37890625,63.76025390625C50.37890625,65.61962890625,51.896484375,67.11962890625,53.76171875,67.11962890625M56.537109375,87L56.537109375,70.259765625L51.001953125,70.259765625L51.001953125,87Z" style="fill: rgb(81, 143, 247); fill-opacity: 1;"/></g></g></g></g></svg>