<svg width="152" xmlns="http://www.w3.org/2000/svg" height="140" id="screenshot-51aa5b83-99dd-8061-8006-944420023b56" viewBox="0 0 152 140" xmlns:xlink="http://www.w3.org/1999/xlink" fill="none" version="1.1"><g id="shape-51aa5b83-99dd-8061-8006-944420023b56"><g class="frame-container-wrapper"><g class="frame-container-blur"><g class="frame-container-shadows"><g fill="none"><g class="fills" id="fills-51aa5b83-99dd-8061-8006-944420023b56"><rect rx="0" ry="0" x="0" y="0" width="152" height="140" transform="matrix(1.000000, 0.000000, 0.000000, 1.000000, 0.000000, 0.000000)" class="frame-background"/></g><g class="frame-children"><g id="shape-51aa5b83-99dd-8061-8006-944420023b6f" height="128" width="128" rx="0" ry="0" style="fill: rgb(0, 0, 0);"><g id="shape-51aa5b83-99dd-8061-8006-944420023b71" style="display: none;"><g class="fills" id="fills-51aa5b83-99dd-8061-8006-944420023b71"><rect width="128" height="128" x="12" transform="matrix(1.000000, 0.000000, 0.000000, 1.000000, 0.000000, 0.000000)" style="fill: none;" ry="0" fill="none" rx="0" y="6"/></g></g><g id="shape-51aa5b83-99dd-8061-8006-944420023b72"><g class="fills" id="fills-51aa5b83-99dd-8061-8006-944420023b72"><path d="M33.9765625,18.000097274780273C28.44921875,18.000097274780273,24,22.461034774780273,24,28.000097274780273L24,114.0313491821289C24,119.5743179321289,28.44921875,124.0313491821289,33.9765625,124.0313491821289L118.01953125,124.0313491821289C123.55078125,124.0313491821289,128,119.5743179321289,128,114.0313491821289L128,41.94540786743164C128,35.31650161743164,122.640625,29.945409774780273,116.02734375,29.945409774780273L70,29.945409774780273C67.546875,29.945409774780273,65.3046875,28.558691024780273,64.203125,26.363378524780273L62.69921875,23.371191024780273C61.04296875,20.078222274780273,57.6796875,18.000097274780273,54,18.000097274780273ZM33.9765625,18.000097274780273" style="fill: rgb(81, 143, 247); fill-opacity: 1;"/></g></g><g id="shape-51aa5b83-99dd-8061-8006-944420023b73"><defs><linearGradient x1="2689.252" y1="-1106.803" x2="2918.07" y2="-1106.803" id="render-53-a" gradientTransform="matrix(1.000000, 0.000000, 0.000000, 1.000000, 12.000000, 6.000000) matrix(0.45451 0 0 0.455522 -1210.292114 616.172607)" gradientUnits="userSpaceOnUse"><stop offset="0" stop-color="#62a0ea"/><stop offset=".058" stop-color="#afd4ff"/><stop offset=".122" stop-color="#62a0ea"/><stop offset=".873" stop-color="#62a0ea"/><stop offset=".956" stop-color="#c0d5ea"/><stop offset="1" stop-color="#62a0ea"/></linearGradient></defs><g class="fills" id="fills-51aa5b83-99dd-8061-8006-944420023b73"><path d="M77.9765625,42.00009536743164C75.23046875,42.00009536743164,72.75,43.10165786743164,70.94921875,44.89072036743164C68.67578125,47.14462661743164,65.56640625,50.00009536743164,62.31640625,50.00009536743164L33.9765625,50.00009536743164C28.44921875,50.00009536743164,24,54.46103286743164,24,60.00009536743164L24,114.0313491821289C24,119.5743179321289,28.44921875,124.0313491821289,33.9765625,124.0313491821289L118.01953125,124.0313491821289C123.55078125,124.0313491821289,128,119.5743179321289,128,114.0313491821289L128,52.00009536743164C128,46.46103286743164,123.55078125,42.00009536743164,118.01953125,42.00009536743164ZM77.9765625,42.00009536743164" fill="url(#render-53-a)" style="fill: url(&quot;#render-53-a&quot;);"/></g></g><g id="shape-51aa5b83-99dd-8061-8006-944420023b74"><g class="fills" id="fills-51aa5b83-99dd-8061-8006-944420023b74"><path d="M77.9765625,38.00009536743164C75.23046875,38.00009536743164,72.75,39.10165786743164,70.94921875,40.89072036743164C68.67578125,43.14462661743164,65.56640625,46.00009536743164,62.31640625,46.00009536743164L33.9765625,46.00009536743164C28.44921875,46.00009536743164,24,50.46103286743164,24,56.00009536743164L24,111.9766616821289C24,117.5157241821289,28.44921875,121.9766616821289,33.9765625,121.9766616821289L118.01953125,121.9766616821289C123.55078125,121.9766616821289,128,117.5157241821289,128,111.9766616821289L128,48.00009536743164C128,42.46103286743164,123.55078125,38.00009536743164,118.01953125,38.00009536743164ZM77.9765625,38.00009536743164" style="fill: rgb(172, 199, 255); fill-opacity: 1;"/></g></g><g id="shape-51aa5b83-99dd-8061-8006-944420023b75"><g class="fills" id="fills-51aa5b83-99dd-8061-8006-944420023b75"><path d="M78,70.0000991821289C74.7109375,70.0000991821289,72,72.7110366821289,72,76.0000991821289L72,84.6797866821289C71.0859375,84.2500991821289,70.0703125,84.0000991821289,69,84.0000991821289C65.15625,84.0000991821289,62,87.1563491821289,62,91.0000991821289C62,94.8438491821289,65.15625,98.0000991821289,69,98.0000991821289C72.828125,98.0000991821289,75.984375,94.8594741821289,76,91.0313491821289C76,91.0235366821289,76,91.0079116821289,76,91.0000991821289L76,76.0000991821289C76,74.8750991821289,76.875,74.0000991821289,78,74.0000991821289L86,74.0000991821289C87.125,74.0000991821289,88,74.8750991821289,88,76.0000991821289L88,84.6797866821289C87.0859375,84.2500991821289,86.0703125,84.0000991821289,85,84.0000991821289C81.15625,84.0000991821289,78,87.1563491821289,78,91.0000991821289C78,94.8438491821289,81.15625,98.0000991821289,85,98.0000991821289C88.84375,98.0000991821289,92,94.8438491821289,92,91.0000991821289L92,76.0000991821289C92,72.7110366821289,89.2890625,70.0000991821289,86,70.0000991821289ZM69,88.0000991821289C70.6796875,88.0000991821289,72,89.3204116821289,72,91.0000991821289L72,91.0313491821289C71.984375,92.6954116821289,70.671875,94.0000991821289,69,94.0000991821289C67.3203125,94.0000991821289,66,92.6797866821289,66,91.0000991821289C66,89.3204116821289,67.3203125,88.0000991821289,69,88.0000991821289ZM85,88.0000991821289C86.6796875,88.0000991821289,88,89.3204116821289,88,91.0000991821289C88,92.6797866821289,86.6796875,94.0000991821289,85,94.0000991821289C83.3203125,94.0000991821289,82,92.6797866821289,82,91.0000991821289C82,89.3204116821289,83.3203125,88.0000991821289,85,88.0000991821289ZM85,88.0000991821289" style="fill: rgb(81, 143, 247); fill-opacity: 1;"/></g></g></g></g></g></g></g></g></g></svg>