<svg xmlns="http://www.w3.org/2000/svg" xmlns:xlink="http://www.w3.org/1999/xlink" id="screenshot-51aa5b83-99dd-8061-8006-944420023b55" fill="none" version="1.1" viewBox="24 18 104 106.03"><g id="shape-51aa5b83-99dd-8061-8006-944420023b55"><g class="frame-container-wrapper"><g class="frame-container-blur"><g class="frame-container-shadows"><g fill="none"><g class="fills" id="fills-51aa5b83-99dd-8061-8006-944420023b55"><rect rx="0" ry="0" x="0" y="0" width="152" height="140" transform="matrix(1.000000, 0.000000, 0.000000, 1.000000, 0.000000, 0.000000)" class="frame-background"/></g><g class="frame-children"><g id="shape-51aa5b83-99dd-8061-8006-944420023b65" height="128" width="128" rx="0" ry="0" style="fill: rgb(0, 0, 0);"><g id="shape-51aa5b83-99dd-8061-8006-944420023b67" style="display: none;"><g class="fills" id="fills-51aa5b83-99dd-8061-8006-944420023b67"><rect width="128" height="128" x="12" transform="matrix(1.000000, 0.000000, 0.000000, 1.000000, 0.000000, 0.000000)" style="fill: none;" ry="0" fill="none" rx="0" y="6"/></g></g><g id="shape-51aa5b83-99dd-8061-8006-944420023b68"><g class="fills" id="fills-51aa5b83-99dd-8061-8006-944420023b68"><path d="M33.9765625,18.000192642211914C28.44921875,18.000192642211914,24,22.461130142211914,24,28.000192642211914L24,114.03144073486328C24,119.57440948486328,28.44921875,124.03144073486328,33.9765625,124.03144073486328L118.01953125,124.03144073486328C123.55078125,124.03144073486328,128,119.57440948486328,128,114.03144073486328L128,41.94550704956055C128,35.31660079956055,122.640625,29.945505142211914,116.02734375,29.945505142211914L70,29.945505142211914C67.546875,29.945505142211914,65.3046875,28.558786392211914,64.203125,26.363473892211914L62.69921875,23.371286392211914C61.04296875,20.078317642211914,57.6796875,18.000192642211914,54,18.000192642211914ZM33.9765625,18.000192642211914" style="fill: rgb(81, 143, 247); fill-opacity: 1;"/></g></g><g id="shape-51aa5b83-99dd-8061-8006-944420023b69"><defs><linearGradient x1="2689.252" y1="-1106.803" x2="2918.07" y2="-1106.803" id="render-23-a" gradientTransform="matrix(1.000000, 0.000000, 0.000000, 1.000000, 12.000000, 6.000000) matrix(0.45451 0 0 0.455522 -1210.292114 616.172607)" gradientUnits="userSpaceOnUse"><stop offset="0" stop-color="#62a0ea"/><stop offset=".058" stop-color="#afd4ff"/><stop offset=".122" stop-color="#62a0ea"/><stop offset=".873" stop-color="#62a0ea"/><stop offset=".956" stop-color="#c0d5ea"/><stop offset="1" stop-color="#62a0ea"/></linearGradient></defs><g class="fills" id="fills-51aa5b83-99dd-8061-8006-944420023b69"><path d="M77.9765625,42.00019454956055C75.23046875,42.00019454956055,72.75,43.10175704956055,70.94921875,44.89081954956055C68.67578125,47.14472579956055,65.56640625,50.00019454956055,62.31640625,50.00019454956055L33.9765625,50.00019454956055C28.44921875,50.00019454956055,24,54.46113204956055,24,60.00019454956055L24,114.03144073486328C24,119.57440948486328,28.44921875,124.03144073486328,33.9765625,124.03144073486328L118.01953125,124.03144073486328C123.55078125,124.03144073486328,128,119.57440948486328,128,114.03144073486328L128,52.00019454956055C128,46.46113204956055,123.55078125,42.00019454956055,118.01953125,42.00019454956055ZM77.9765625,42.00019454956055" fill="url(#render-23-a)" style="fill: url(&quot;#render-23-a&quot;);"/></g></g><g id="shape-51aa5b83-99dd-8061-8006-944420023b6a"><g class="fills" id="fills-51aa5b83-99dd-8061-8006-944420023b6a"><path d="M77.9765625,38.00019454956055C75.23046875,38.00019454956055,72.75,39.10175704956055,70.94921875,40.89081954956055C68.67578125,43.14472579956055,65.56640625,46.00019454956055,62.31640625,46.00019454956055L33.9765625,46.00019454956055C28.44921875,46.00019454956055,24,50.46113204956055,24,56.00019454956055L24,111.97675323486328C24,117.51581573486328,28.44921875,121.97675323486328,33.9765625,121.97675323486328L118.01953125,121.97675323486328C123.55078125,121.97675323486328,128,117.51581573486328,128,111.97675323486328L128,48.00019454956055C128,42.46113204956055,123.55078125,38.00019454956055,118.01953125,38.00019454956055ZM77.9765625,38.00019454956055" style="fill: rgb(172, 199, 255); fill-opacity: 1;"/></g></g><g id="shape-51aa5b83-99dd-8061-8006-944420023b6b" rx="0" ry="0" style="fill: rgb(0, 0, 0);"><g id="shape-51aa5b83-99dd-8061-8006-944420023b6c"><g class="fills" id="fills-51aa5b83-99dd-8061-8006-944420023b6c"><path d="M72,78.00019073486328C70.8984375,78.00019073486328,70,78.89862823486328,70,80.00019073486328C70,81.10175323486328,70.8984375,82.00019073486328,72,82.00019073486328C73.1015625,82.00019073486328,74,81.10175323486328,74,80.00019073486328C74,78.89862823486328,73.1015625,78.00019073486328,72,78.00019073486328ZM79,84.00019073486328L75,88.00019073486328L72,86.00019073486328L68,90.00019073486328L68,91.00019073486328C68,92.00019073486328,69,92.00019073486328,69,92.00019073486328L83,92.00019073486328C83,92.00019073486328,83.9453125,91.92987823486328,84,91.00019073486328L84,89.00019073486328ZM79,84.00019073486328" style="fill: rgb(81, 143, 247); fill-opacity: 1;"/></g></g><g id="shape-51aa5b83-99dd-8061-8006-944420023b6d"><g class="fills" id="fills-51aa5b83-99dd-8061-8006-944420023b6d"><path d="M68,70.00019073486328C64.7109375,70.00019073486328,62,72.71112823486328,62,76.00019073486328L62,92.00019073486328C62,95.28925323486328,64.7109375,98.00019073486328,68,98.00019073486328L84,98.00019073486328C87.2890625,98.00019073486328,90,95.28925323486328,90,92.00019073486328L90,76.00019073486328C90,72.71112823486328,87.2890625,70.00019073486328,84,70.00019073486328ZM68,74.00019073486328L84,74.00019073486328C85.140625,74.00019073486328,86,74.85956573486328,86,76.00019073486328L86,92.00019073486328C86,93.14081573486328,85.140625,94.00019073486328,84,94.00019073486328L68,94.00019073486328C66.859375,94.00019073486328,66,93.14081573486328,66,92.00019073486328L66,76.00019073486328C66,74.85956573486328,66.859375,74.00019073486328,68,74.00019073486328ZM68,74.00019073486328" style="fill: rgb(81, 143, 247); fill-opacity: 1;"/></g></g></g></g></g></g></g></g></g></g></svg>