<svg width="152" xmlns="http://www.w3.org/2000/svg" height="140" id="screenshot-51aa5b83-99dd-8061-8006-944420023b57" viewBox="0 0 152 140" xmlns:xlink="http://www.w3.org/1999/xlink" fill="none" version="1.1"><g id="shape-51aa5b83-99dd-8061-8006-944420023b57"><g class="frame-container-wrapper"><g class="frame-container-blur"><g class="frame-container-shadows"><g fill="none"><g class="fills" id="fills-51aa5b83-99dd-8061-8006-944420023b57"><rect rx="0" ry="0" x="0" y="0" width="152" height="140" transform="matrix(1.000000, 0.000000, 0.000000, 1.000000, 0.000000, 0.000000)" class="frame-background"/></g><g class="frame-children"><g id="shape-51aa5b83-99dd-8061-8006-944420023b77" height="128" width="128" rx="0" ry="0" style="fill: rgb(0, 0, 0);"><g id="shape-51aa5b83-99dd-8061-8006-944420023b79" style="display: none;"><g class="fills" id="fills-51aa5b83-99dd-8061-8006-944420023b79"><rect width="128" height="128" x="12" transform="matrix(1.000000, 0.000000, 0.000000, 1.000000, 0.000000, 0.000000)" style="fill: none;" ry="0" fill="none" rx="0" y="6"/></g></g><g id="shape-51aa5b83-99dd-8061-8006-944420023b7a"><g class="fills" id="fills-51aa5b83-99dd-8061-8006-944420023b7a"><path d="M33.9765625,18.000097274780273C28.44921875,18.000097274780273,24,22.461034774780273,24,28.000097274780273L24,114.0313491821289C24,119.5743179321289,28.44921875,124.0313491821289,33.9765625,124.0313491821289L118.01953125,124.0313491821289C123.55078125,124.0313491821289,128,119.5743179321289,128,114.0313491821289L128,41.94540786743164C128,35.31650161743164,122.640625,29.945409774780273,116.02734375,29.945409774780273L70,29.945409774780273C67.546875,29.945409774780273,65.3046875,28.558691024780273,64.203125,26.363378524780273L62.69921875,23.371191024780273C61.04296875,20.078222274780273,57.6796875,18.000097274780273,54,18.000097274780273ZM33.9765625,18.000097274780273" style="fill: rgb(81, 143, 247); fill-opacity: 1;"/></g></g><g id="shape-51aa5b83-99dd-8061-8006-944420023b7b"><defs><linearGradient x1="2689.252" y1="-1106.803" x2="2918.07" y2="-1106.803" id="render-39-a" gradientTransform="matrix(1.000000, 0.000000, 0.000000, 1.000000, 12.000000, 6.000000) matrix(0.45451 0 0 0.455522 -1210.292114 616.172607)" gradientUnits="userSpaceOnUse"><stop offset="0" stop-color="#62a0ea"/><stop offset=".058" stop-color="#afd4ff"/><stop offset=".122" stop-color="#62a0ea"/><stop offset=".873" stop-color="#62a0ea"/><stop offset=".956" stop-color="#c0d5ea"/><stop offset="1" stop-color="#62a0ea"/></linearGradient></defs><g class="fills" id="fills-51aa5b83-99dd-8061-8006-944420023b7b"><path d="M77.9765625,42.00009536743164C75.23046875,42.00009536743164,72.75,43.10165786743164,70.94921875,44.89072036743164C68.67578125,47.14462661743164,65.56640625,50.00009536743164,62.31640625,50.00009536743164L33.9765625,50.00009536743164C28.44921875,50.00009536743164,24,54.46103286743164,24,60.00009536743164L24,114.0313491821289C24,119.5743179321289,28.44921875,124.0313491821289,33.9765625,124.0313491821289L118.01953125,124.0313491821289C123.55078125,124.0313491821289,128,119.5743179321289,128,114.0313491821289L128,52.00009536743164C128,46.46103286743164,123.55078125,42.00009536743164,118.01953125,42.00009536743164ZM77.9765625,42.00009536743164" fill="url(#render-39-a)" style="fill: url(&quot;#render-39-a&quot;);"/></g></g><g id="shape-51aa5b83-99dd-8061-8006-944420023b7c"><g class="fills" id="fills-51aa5b83-99dd-8061-8006-944420023b7c"><path d="M77.9765625,38.00009536743164C75.23046875,38.00009536743164,72.75,39.10165786743164,70.94921875,40.89072036743164C68.67578125,43.14462661743164,65.56640625,46.00009536743164,62.31640625,46.00009536743164L33.9765625,46.00009536743164C28.44921875,46.00009536743164,24,50.46103286743164,24,56.00009536743164L24,111.9766616821289C24,117.5157241821289,28.44921875,121.9766616821289,33.9765625,121.9766616821289L118.01953125,121.9766616821289C123.55078125,121.9766616821289,128,117.5157241821289,128,111.9766616821289L128,48.00009536743164C128,42.46103286743164,123.55078125,38.00009536743164,118.01953125,38.00009536743164ZM77.9765625,38.00009536743164" style="fill: rgb(172, 199, 255); fill-opacity: 1;"/></g></g><g id="shape-51aa5b83-99dd-8061-8006-944420023b7d"><g class="fills" id="fills-51aa5b83-99dd-8061-8006-944420023b7d"><path d="M86,66.0000991821289C82.6875,66.0000991821289,80,68.6797866821289,80,72.0000991821289C80,72.2422866821289,80.0234375,72.4922866821289,80.0546875,72.7344741821289L70.1640625,77.6797866821289C69.046875,76.6016616821289,67.5546875,76.0000991821289,66,76.0000991821289C62.6875,76.0000991821289,60,78.6797866821289,60,82.0000991821289C60,85.3125991821289,62.6875,88.0000991821289,66,88.0000991821289C67.546875,87.9922866821289,69.0390625,87.3829116821289,70.1484375,86.3125991821289L80.0546875,91.2579116821289C80.0234375,91.5000991821289,80,91.7500991821289,80,92.0000991821289C80,95.3125991821289,82.6875,98.0000991821289,86,98.0000991821289C89.3125,98.0000991821289,92,95.3125991821289,92,92.0000991821289C92,88.6797866821289,89.3125,86.0000991821289,86,86.0000991821289C84.453125,86.0000991821289,82.9609375,86.6094741821289,81.8515625,87.6875991821289L71.9453125,82.7344741821289C71.9765625,82.4922866821289,72,82.2422866821289,72,82.0000991821289C72,81.7500991821289,71.984375,81.5000991821289,71.953125,81.2579116821289L81.84375,76.3125991821289C82.9609375,77.3829116821289,84.453125,77.9922866821289,86,78.0000991821289C89.3125,78.0000991821289,92,75.3125991821289,92,72.0000991821289C92,68.6797866821289,89.3125,66.0000991821289,86,66.0000991821289ZM86,66.0000991821289" style="fill: rgb(81, 143, 247); fill-opacity: 1;"/></g></g></g></g></g></g></g></g></g></svg>