<svg xmlns="http://www.w3.org/2000/svg" xmlns:xlink="http://www.w3.org/1999/xlink" id="screenshot-65eb47bd-4ea5-80be-8006-9af78afd8086" fill="none" version="1.1" viewBox="12 12 104 106.03"><g id="shape-65eb47bd-4ea5-80be-8006-9af78afd8086" height="128" width="128" rx="0" ry="0" style="fill: rgb(0, 0, 0);"><g id="shape-65eb47bd-4ea5-80be-8006-9af78afd8087" style="display: none;"><g class="fills" id="fills-65eb47bd-4ea5-80be-8006-9af78afd8087"><rect width="128" height="128" x="0" transform="matrix(1.000000, 0.000000, 0.000000, 1.000000, 0.000000, 0.000000)" style="fill: none;" ry="0" fill="none" rx="0" y="0"/></g></g><g id="shape-65eb47bd-4ea5-80be-8006-9af78afd8088"><g class="fills" id="fills-65eb47bd-4ea5-80be-8006-9af78afd8088"><path d="M21.9765625,12C16.44921875,12,12,16.4609375,12,22L12,108.03125C12,113.57421875,16.44921875,118.03125,21.9765625,118.03125L106.01953125,118.03125C111.55078125,118.03125,116,113.57421875,116,108.03125L116,35.9453125C116,29.31640625,110.640625,23.9453125,104.02734375,23.9453125L58,23.9453125C55.546875,23.9453125,53.3046875,22.55859375,52.203125,20.36328125L50.69921875,17.37109375C49.04296875,14.078125,45.6796875,12,42,12ZM21.9765625,12" style="fill: rgb(81, 143, 247); fill-opacity: 1;"/></g></g><g id="shape-65eb47bd-4ea5-80be-8006-9af78afd8089"><defs><linearGradient x1="2689.252" y1="-1106.803" x2="2918.07" y2="-1106.803" id="render-58-a" gradientTransform="matrix(1.000000, 0.000000, 0.000000, 1.000000, 0.000000, 0.000000) matrix(0.45451 0 0 0.455522 -1210.292114 616.172607)" gradientUnits="userSpaceOnUse"><stop offset="0" stop-color="#62a0ea"/><stop offset=".058" stop-color="#afd4ff"/><stop offset=".122" stop-color="#62a0ea"/><stop offset=".873" stop-color="#62a0ea"/><stop offset=".956" stop-color="#c0d5ea"/><stop offset="1" stop-color="#62a0ea"/></linearGradient></defs><g class="fills" id="fills-65eb47bd-4ea5-80be-8006-9af78afd8089"><path d="M65.9765625,36C63.23046875,36,60.75,37.1015625,58.94921875,38.890625C56.67578125,41.14453125,53.56640625,44,50.31640625,44L21.9765625,44C16.44921875,44,12,48.4609375,12,54L12,108.03125C12,113.57421875,16.44921875,118.03125,21.9765625,118.03125L106.01953125,118.03125C111.55078125,118.03125,116,113.57421875,116,108.03125L116,46C116,40.4609375,111.55078125,36,106.01953125,36ZM65.9765625,36" fill="url(#render-58-a)" style="fill: url(&quot;#render-58-a&quot;);"/></g></g><g id="shape-65eb47bd-4ea5-80be-8006-9af78afd808a"><g class="fills" id="fills-65eb47bd-4ea5-80be-8006-9af78afd808a"><path d="M65.9765625,32C63.23046875,32,60.75,33.1015625,58.94921875,34.890625C56.67578125,37.14453125,53.56640625,40,50.31640625,40L21.9765625,40C16.44921875,40,12,44.4609375,12,50L12,105.9765625C12,111.515625,16.44921875,115.9765625,21.9765625,115.9765625L106.01953125,115.9765625C111.55078125,115.9765625,116,111.515625,116,105.9765625L116,42C116,36.4609375,111.55078125,32,106.01953125,32L65.9765625,32M65.9765625,32" style="fill: rgb(172, 199, 255); fill-opacity: 1;"/></g></g><g id="shape-65eb47bd-4ea5-80be-8006-9af78afd808b" height="16" width="16" rx="0" ry="0" style="fill: rgb(0, 0, 0);"><g id="shape-65eb47bd-4ea5-80be-8006-9af78afd808c" style="display: none;"><g class="fills" id="fills-65eb47bd-4ea5-80be-8006-9af78afd808c"><rect width="32" height="32" x="48.00000000000182" transform="matrix(1.000000, 0.000000, 0.000000, 1.000000, 0.000000, 0.000000)" style="fill: none;" ry="0" fill="none" rx="0" y="59.86640379791788"/></g></g><g id="shape-65eb47bd-4ea5-80be-8006-9af78afd808d"><g class="fills" id="fills-65eb47bd-4ea5-80be-8006-9af78afd808d"><path d="M67.0234375,62.8505859375C65.921875,62.8505859375,65.0234375,63.7490234375,65.0234375,64.8505859375C65.03125,64.9208984375,65.0390625,64.9833984375,65.0546875,65.0458984375C65.046875,65.0537109375,65.03125,65.0537109375,65.0234375,65.0537109375C65.1328125,65.4755859375,65,65.9208984375,64.671875,66.2021484375C64.5546875,66.2958984375,64.421875,66.3740234375,64.28125,66.4208984375C63.7109375,66.6005859375,63.1015625,66.3037109375,62.8828125,65.7568359375C62.8828125,65.7568359375,62.875,65.7568359375,62.8671875,65.7646484375C62.8359375,65.7021484375,62.796875,65.6396484375,62.7578125,65.5849609375C62.359375,65.0380859375,61.7109375,64.7255859375,61.03125,64.7646484375C60.6484375,64.7880859375,60.28125,64.9208984375,59.96875,65.1474609375C59.078125,65.7958984375,58.875,67.0458984375,59.5234375,67.9365234375C59.5703125,67.9912109375,59.625,68.0380859375,59.671875,68.0849609375C59.671875,68.0927734375,59.6640625,68.1005859375,59.65625,68.1083984375C59.984375,68.3818359375,60.1328125,68.8193359375,60.03125,69.2412109375C60,69.3818359375,59.9375,69.5224609375,59.84375,69.6396484375C59.4921875,70.1240234375,58.828125,70.2412109375,58.328125,69.9287109375C58.328125,69.9287109375,58.328125,69.9365234375,58.3203125,69.9365234375C58.2578125,69.9052734375,58.1953125,69.8818359375,58.1328125,69.8583984375C57.953125,69.7958984375,57.7578125,69.7646484375,57.5703125,69.7646484375C56.6796875,69.7333984375,55.8828125,70.2958984375,55.609375,71.1474609375C55.265625,72.1943359375,55.84375,73.3193359375,56.890625,73.6630859375C56.9609375,73.6787109375,57.0234375,73.6865234375,57.09375,73.6943359375C57.09375,73.7021484375,57.09375,73.7099609375,57.0859375,73.7255859375C57.5234375,73.7490234375,57.90625,74.0146484375,58.0703125,74.4208984375C58.125,74.5537109375,58.15625,74.7021484375,58.15625,74.8505859375C58.15625,75.4521484375,57.6796875,75.9365234375,57.0859375,75.9755859375C57.09375,75.9833984375,57.09375,75.9912109375,57.09375,76.0068359375C57.0234375,76.0146484375,56.9609375,76.0224609375,56.890625,76.0380859375C55.84375,76.3818359375,55.265625,77.5068359375,55.609375,78.5615234375C55.953125,79.6083984375,57.078125,80.1865234375,58.1328125,79.8427734375C58.1953125,79.8193359375,58.2578125,79.7958984375,58.3203125,79.7646484375C58.328125,79.7724609375,58.328125,79.7724609375,58.328125,79.7802734375C58.5,79.6708984375,58.6875,79.6083984375,58.8828125,79.6005859375C59.109375,79.5849609375,59.328125,79.6396484375,59.5234375,79.7646484375C59.6484375,79.8427734375,59.765625,79.9443359375,59.8515625,80.0693359375C60.203125,80.5537109375,60.1015625,81.2177734375,59.6484375,81.5927734375L59.671875,81.6162109375C59.625,81.6630859375,59.5703125,81.7099609375,59.5234375,81.7646484375C58.875,82.6552734375,59.078125,83.9052734375,59.96875,84.5615234375C60.859375,85.2099609375,62.109375,85.0068359375,62.7578125,84.1162109375C62.796875,84.0615234375,62.8359375,84.0068359375,62.8671875,83.9443359375C62.875,83.9443359375,62.875,83.9443359375,62.8828125,83.9521484375C63.0390625,83.5458984375,63.40625,83.2646484375,63.84375,83.2333984375C63.9921875,83.2177734375,64.140625,83.2412109375,64.28125,83.2880859375C64.859375,83.4677734375,65.1796875,84.0771484375,65.0234375,84.6474609375C65.0390625,84.6474609375,65.046875,84.6474609375,65.0546875,84.6552734375C65.0390625,84.7177734375,65.03125,84.7880859375,65.0234375,84.8505859375C65.0234375,85.9521484375,65.921875,86.8505859375,67.0234375,86.8505859375C68.125,86.8505859375,69.0234375,85.9521484375,69.0234375,84.8505859375C69.0234375,84.7802734375,69.015625,84.7177734375,69.0078125,84.6474609375L69.015625,84.6474609375C68.8671875,84.0693359375,69.1953125,83.4677734375,69.765625,83.2802734375C69.9140625,83.2333984375,70.0625,83.2177734375,70.2109375,83.2333984375C70.625,83.2646484375,71,83.5380859375,71.15625,83.9521484375C71.171875,83.9443359375,71.1796875,83.9365234375,71.1875,83.9365234375C71.21875,83.9990234375,71.25,84.0537109375,71.28125,84.1162109375C71.9375,85.0068359375,73.1875,85.2099609375,74.078125,84.5615234375C74.96875,83.9052734375,75.171875,82.6552734375,74.515625,81.7646484375C74.46875,81.7099609375,74.421875,81.6630859375,74.3671875,81.6162109375C74.375,81.6083984375,74.3828125,81.6083984375,74.390625,81.6005859375C73.9375,81.2177734375,73.84375,80.5458984375,74.1953125,80.0615234375C74.421875,79.7490234375,74.7890625,79.5849609375,75.1484375,79.6005859375C75.34375,79.6083984375,75.5390625,79.6630859375,75.7109375,79.7724609375C75.71875,79.7646484375,75.7265625,79.7568359375,75.734375,79.7490234375C75.7890625,79.7802734375,75.8515625,79.8115234375,75.9140625,79.8427734375C76.96875,80.1865234375,78.09375,79.6083984375,78.4375,78.5615234375C78.78125,77.5068359375,78.203125,76.3818359375,77.15625,76.0380859375C77.0859375,76.0224609375,77.0234375,76.0146484375,76.953125,75.9990234375C76.953125,75.9912109375,76.953125,75.9833984375,76.9609375,75.9755859375C76.3671875,75.9365234375,75.890625,75.4443359375,75.890625,74.8427734375C75.890625,74.2490234375,76.3671875,73.7646484375,76.9609375,73.7255859375C76.953125,73.7177734375,76.953125,73.7021484375,76.953125,73.6943359375C77.0234375,73.6865234375,77.0859375,73.6787109375,77.15625,73.6630859375C78.203125,73.3193359375,78.78125,72.1943359375,78.4375,71.1396484375C78.1640625,70.2958984375,77.3671875,69.7333984375,76.4765625,69.7646484375C76.2890625,69.7646484375,76.09375,69.7958984375,75.9140625,69.8583984375C75.8515625,69.8896484375,75.7890625,69.9208984375,75.734375,69.9521484375C75.7265625,69.9443359375,75.71875,69.9365234375,75.7109375,69.9208984375C75.21875,70.2412109375,74.546875,70.1240234375,74.1953125,69.6318359375C73.84375,69.1552734375,73.9375,68.4833984375,74.390625,68.1005859375C74.3828125,68.1005859375,74.375,68.0927734375,74.3671875,68.0849609375C74.421875,68.0380859375,74.46875,67.9912109375,74.515625,67.9365234375C75.171875,67.0458984375,74.96875,65.7958984375,74.078125,65.1396484375C73.765625,64.9208984375,73.3984375,64.7880859375,73.015625,64.7646484375C72.3359375,64.7255859375,71.6875,65.0380859375,71.28125,65.5849609375C71.25,65.6474609375,71.21875,65.7021484375,71.1875,65.7646484375C71.1796875,65.7646484375,71.171875,65.7568359375,71.1640625,65.7568359375C70.9453125,66.3037109375,70.3359375,66.6005859375,69.7578125,66.4130859375C69.1875,66.2333984375,68.8671875,65.6240234375,69.015625,65.0537109375C69.015625,65.0537109375,69.015625,65.0537109375,69.0078125,65.0537109375C69.015625,64.9833984375,69.0234375,64.9208984375,69.0234375,64.8505859375C69.0234375,63.7490234375,68.125,62.8505859375,67.0234375,62.8505859375ZM67.0234375,69.8505859375C69.78125,69.8505859375,72.0234375,72.0927734375,72.0234375,74.8505859375C72.0234375,77.6083984375,69.78125,79.8505859375,67.0234375,79.8505859375C64.265625,79.8505859375,62.0234375,77.6083984375,62.0234375,74.8505859375C62.0234375,72.0927734375,64.265625,69.8505859375,67.0234375,69.8505859375ZM53,81.8505859375C50.265625,81.8505859375,48,84.1162109375,48,86.8505859375C48,89.5849609375,50.265625,91.8505859375,53,91.8505859375C55.734375,91.8505859375,58,89.5849609375,58,86.8505859375C58,84.1162109375,55.734375,81.8505859375,53,81.8505859375ZM53,85.8505859375C53.578125,85.8505859375,54,86.2724609375,54,86.8505859375C54,87.4287109375,53.578125,87.8505859375,53,87.8505859375C52.421875,87.8505859375,52,87.4287109375,52,86.8505859375C52,86.2724609375,52.421875,85.8505859375,53,85.8505859375ZM53,85.8505859375" style="fill: rgb(81, 143, 247); fill-opacity: 1;"/></g></g></g></g></svg>