<svg width="128" xmlns="http://www.w3.org/2000/svg" height="128" id="screenshot-75c89853-880c-80a5-8006-945806d95d65" viewBox="0 0 128 128" xmlns:xlink="http://www.w3.org/1999/xlink" fill="none" version="1.1"><g id="shape-75c89853-880c-80a5-8006-945806d95d65" height="128" width="128" rx="0" ry="0" style="fill: rgb(0, 0, 0);"><g id="shape-75c89853-880c-80a5-8006-945806d95d67" style="display: none;"><g class="fills" id="fills-75c89853-880c-80a5-8006-945806d95d67"><rect width="128" height="128" x="0" transform="matrix(1.000000, 0.000000, 0.000000, 1.000000, 0.000000, 0.000000)" style="fill: none;" ry="0" fill="none" rx="0" y="0"/></g></g><g id="shape-75c89853-880c-80a5-8006-945806d95d68"><g class="fills" id="fills-75c89853-880c-80a5-8006-945806d95d68"><path d="M27.99967384338379,8L77.99967193603516,8L108.04264068603516,37.91796875L108.04264068603516,111.9765625C108.04264068603516,116.41015625,104.43326568603516,120,99.99967193603516,120L27.99967384338379,120C23.56608009338379,120,19.99967384338379,116.43359375,19.99967384338379,112L19.99967384338379,16C19.99967384338379,11.56640625,23.56608009338379,8,27.99967384338379,8ZM27.99967384338379,8" style="fill: rgb(246, 245, 244);"/></g></g><g id="shape-75c89853-880c-80a5-8006-945806d95d69" rx="0" ry="0" style="fill: rgb(0, 0, 0);"><g id="shape-75c89853-880c-80a5-8006-945806d95d6b"><g class="fills" id="fills-75c89853-880c-80a5-8006-945806d95d6b"><path d="M77.99967193603516,8L77.99967193603516,30C77.99967193603516,34.43359375,81.60904693603516,37.921875,86.04264068603516,37.921875L108.04264068603516,37.91796875ZM77.99967193603516,8" style="fill: rgb(222, 221, 218);"/></g></g><g id="shape-75c89853-880c-80a5-8006-945806d95d6c"><g class="fills" id="fills-75c89853-880c-80a5-8006-945806d95d6c"><path d="M33.99967575073242,100L93.99967193603516,100C95.10514068603516,100,95.99967193603516,100.89453125,95.99967193603516,102C95.99967193603516,103.10546875,95.10514068603516,104,93.99967193603516,104L33.99967575073242,104C32.89420700073242,104,31.99967384338379,103.10546875,31.99967384338379,102C31.99967384338379,100.89453125,32.89420700073242,100,33.99967575073242,100ZM33.99967575073242,100" style="fill: rgb(222, 221, 218);"/></g></g><g id="shape-75c89853-880c-80a5-8006-945806d95d6d"><g class="fills" id="fills-75c89853-880c-80a5-8006-945806d95d6d"><path d="M33.99967575073242,92L93.99967193603516,92C95.10514068603516,92,95.99967193603516,92.89453125,95.99967193603516,94C95.99967193603516,95.10546875,95.10514068603516,96,93.99967193603516,96L33.99967575073242,96C32.89420700073242,96,31.99967384338379,95.10546875,31.99967384338379,94C31.99967384338379,92.89453125,32.89420700073242,92,33.99967575073242,92ZM33.99967575073242,92" style="fill: rgb(222, 221, 218);"/></g></g><g id="shape-75c89853-880c-80a5-8006-945806d95d6e"><g class="fills" id="fills-75c89853-880c-80a5-8006-945806d95d6e"><path d="M33.99967575073242,84L93.99967193603516,84C95.10514068603516,84,95.99967193603516,84.89453125,95.99967193603516,86C95.99967193603516,87.10546875,95.10514068603516,88,93.99967193603516,88L33.99967575073242,88C32.89420700073242,88,31.99967384338379,87.10546875,31.99967384338379,86C31.99967384338379,84.89453125,32.89420700073242,84,33.99967575073242,84ZM33.99967575073242,84" style="fill: rgb(222, 221, 218);"/></g></g><g id="shape-75c89853-880c-80a5-8006-945806d95d6f"><g class="fills" id="fills-75c89853-880c-80a5-8006-945806d95d6f"><path d="M33.99967575073242,76L93.99967193603516,76C95.10514068603516,76,95.99967193603516,76.89453125,95.99967193603516,78C95.99967193603516,79.10546875,95.10514068603516,80,93.99967193603516,80L33.99967575073242,80C32.89420700073242,80,31.99967384338379,79.10546875,31.99967384338379,78C31.99967384338379,76.89453125,32.89420700073242,76,33.99967575073242,76ZM33.99967575073242,76" style="fill: rgb(222, 221, 218);"/></g></g><g id="shape-75c89853-880c-80a5-8006-945806d95d70"><g class="fills" id="fills-75c89853-880c-80a5-8006-945806d95d70"><path d="M33.99967575073242,68L93.99967193603516,68C95.10514068603516,68,95.99967193603516,68.89453125,95.99967193603516,70C95.99967193603516,71.10546875,95.10514068603516,72,93.99967193603516,72L33.99967575073242,72C32.89420700073242,72,31.99967384338379,71.10546875,31.99967384338379,70C31.99967384338379,68.89453125,32.89420700073242,68,33.99967575073242,68ZM33.99967575073242,68" style="fill: rgb(222, 221, 218);"/></g></g><g id="shape-75c89853-880c-80a5-8006-945806d95d71"><g class="fills" id="fills-75c89853-880c-80a5-8006-945806d95d71"><path d="M33.99967575073242,60L93.99967193603516,60C95.10514068603516,60,95.99967193603516,60.89453125,95.99967193603516,62C95.99967193603516,63.10546875,95.10514068603516,64,93.99967193603516,64L33.99967575073242,64C32.89420700073242,64,31.99967384338379,63.10546875,31.99967384338379,62C31.99967384338379,60.89453125,32.89420700073242,60,33.99967575073242,60ZM33.99967575073242,60" style="fill: rgb(222, 221, 218);"/></g></g></g><g id="shape-75c89853-880c-80a5-8006-945806d95d6a" rx="0" ry="0"><g id="shape-75c89853-880c-80a5-8006-945806d95d72"><defs><radialGradient cx="32.041" cy="21.086" r="25.203" id="render-28-b" gradientTransform="matrix(1.000000, 0.000000, 0.000000, 1.000000, -0.937693, -0.288594) matrix(1.031604 -0.00000002 0.00000001 0.749553 12.946118 10.195166)" gradientUnits="userSpaceOnUse"><stop offset="0" stop-color="#f58b8f"/><stop offset="1" stop-color="#ed333b"/></radialGradient></defs><g class="fills" id="fills-75c89853-880c-80a5-8006-945806d95d72"><path d="M58.93522262573242,47.08642578125C57.44694137573242,48.60986328125,54.86100387573242,48.04345703125,52.98600387573242,49.05908203125C51.25944137573242,49.99658203125,50.46256637573242,52.41064453125,48.52506637573242,52.73876953125C46.42350387573242,53.09814453125,44.66569137573242,51.11767578125,42.55241012573242,50.84033203125C40.60319137573242,50.58251953125,38.54069137573242,52.06689453125,36.77897262573242,51.19580078125C34.86881637573242,50.25048828125,34.60709762573242,47.61376953125,33.06412887573242,46.14892578125C31.63443946838379,44.79345703125,29.09537696838379,44.78173828125,28.18522071838379,43.03955078125C27.19303321838379,41.15283203125,28.53287696838379,38.86767578125,28.14615821838379,36.77392578125C27.78678321838379,34.84033203125,25.73990821838379,33.33642578125,26.02506446838379,31.39111328125C26.32975196838379,29.28173828125,28.75943946838379,28.22314453125,29.67740821838379,26.29736328125C30.52115821838379,24.52392578125,29.74772071838379,22.10595703125,31.12272071838379,20.69970703125C32.61100387573242,19.17236328125,35.20084762573242,19.74267578125,37.07194137573242,18.72314453125C38.79850387573242,17.78564453125,39.59537887573242,15.37548828125,41.53287887573242,15.04345703125C43.63444137573242,14.68408203125,45.39225387573242,16.66455078125,47.50553512573242,16.94580078125C49.45475387573242,17.19970703125,51.51725387573242,15.71923828125,53.27897262573242,16.59033203125C55.18912887573242,17.53564453125,55.45084762573242,20.17236328125,56.99381637573242,21.63720703125C58.42350387573242,22.99267578125,60.96256637573242,23.00048828125,61.87662887573242,24.74267578125C62.86491012573242,26.62939453125,61.52506637573242,28.91455078125,61.91178512573242,31.01220703125C62.27116012573242,32.94580078125,64.31803131103516,34.44580078125,64.03287506103516,36.39111328125C63.72819137573242,38.50048828125,61.29850387573242,39.56298828125,60.38053512573242,41.48486328125C59.53678512573242,43.26220703125,60.31022262573242,45.68017578125,58.93522262573242,47.08642578125ZM58.93522262573242,47.08642578125" fill="url(#render-28-b)" style="fill: rgb(126, 171, 255); fill-opacity: 1;"/></g></g><g id="shape-75c89853-880c-80a5-8006-945806d95d73"><g class="fills" id="fills-75c89853-880c-80a5-8006-945806d95d73"><path d="M45.06022262573242,21.00439453125C52.79069137573242,21.00439453125,59.06022262573242,27.27392578125,59.06022262573242,35.00439453125C59.06022262573242,42.73486328125,52.79069137573242,49.00439453125,45.06022262573242,49.00439453125C37.32975387573242,49.00439453125,31.06022071838379,42.73486328125,31.06022071838379,35.00439453125C31.06022071838379,27.27392578125,37.32975387573242,21.00439453125,45.06022262573242,21.00439453125ZM45.06022262573242,21.00439453125" style="fill: rgb(0, 91, 190); fill-opacity: 1;"/></g></g><g id="shape-75c89853-880c-80a5-8006-945806d95d74"><g class="fills" id="fills-75c89853-880c-80a5-8006-945806d95d74"><path d="M45.06022262573242,19.71142578125C52.79069137573242,19.71142578125,59.06022262573242,25.98095703125,59.06022262573242,33.71142578125C59.06022262573242,41.44189453125,52.79069137573242,47.71142578125,45.06022262573242,47.71142578125C37.32975387573242,47.71142578125,31.06022071838379,41.44189453125,31.06022071838379,33.71142578125C31.06022071838379,25.98095703125,37.32975387573242,19.71142578125,45.06022262573242,19.71142578125ZM45.06022262573242,19.71142578125" style="fill: rgb(81, 143, 247); fill-opacity: 1;"/></g></g></g></g></svg>