<svg xmlns="http://www.w3.org/2000/svg" xmlns:xlink="http://www.w3.org/1999/xlink" id="screenshot-b8e527c6-4856-8008-8006-9881f39d3b41" fill="none" version="1.1" viewBox="12 12 104 106.03"><g id="shape-b8e527c6-4856-8008-8006-9881f39d3b41" height="128" width="128" rx="0" ry="0" style="fill: rgb(0, 0, 0);"><g id="shape-b8e527c6-4856-8008-8006-9881f39d3b43" style="display: none;"><g class="fills" id="fills-b8e527c6-4856-8008-8006-9881f39d3b43"><rect width="128" height="128" x="0" transform="matrix(1.000000, 0.000000, 0.000000, 1.000000, 0.000000, 0.000000)" style="fill: none;" ry="0" fill="none" rx="0" y="0"/></g></g><g id="shape-b8e527c6-4856-8008-8006-9881f39d3b44"><g class="fills" id="fills-b8e527c6-4856-8008-8006-9881f39d3b44"><path d="M21.97705078125,12C16.44970703125,12,12.00048828125,16.4609375,12.00048828125,22L12.00048828125,108.03125C12.00048828125,113.57421875,16.44970703125,118.03125,21.97705078125,118.03125L106.02001953125,118.03125C111.55126953125,118.03125,116.00048828125,113.57421875,116.00048828125,108.03125L116.00048828125,35.9453125C116.00048828125,29.31640625,110.64111328125,23.9453125,104.02783203125,23.9453125L58.00048828125,23.9453125C55.54736328125,23.9453125,53.30517578125,22.55859375,52.20361328125,20.36328125L50.69970703125,17.37109375C49.04345703125,14.078125,45.68017578125,12,42.00048828125,12ZM21.97705078125,12" style="fill: rgb(81, 143, 247); fill-opacity: 1;"/></g></g><g id="shape-b8e527c6-4856-8008-8006-9881f39d3b45"><defs><linearGradient x1="2689.252" y1="-1106.803" x2="2918.07" y2="-1106.803" id="render-80-a" gradientTransform="matrix(1.000000, 0.000000, 0.000000, 1.000000, 0.000000, 0.000000) matrix(0.45451 0 0 0.455522 -1210.292114 616.172607)" gradientUnits="userSpaceOnUse"><stop offset="0" stop-color="#62a0ea"/><stop offset=".058" stop-color="#afd4ff"/><stop offset=".122" stop-color="#62a0ea"/><stop offset=".873" stop-color="#62a0ea"/><stop offset=".956" stop-color="#c0d5ea"/><stop offset="1" stop-color="#62a0ea"/></linearGradient></defs><g class="fills" id="fills-b8e527c6-4856-8008-8006-9881f39d3b45"><path d="M65.97705078125,36C63.23095703125,36,60.75048828125,37.1015625,58.94970703125,38.890625C56.67626953125,41.14453125,53.56689453125,44,50.31689453125,44L21.97705078125,44C16.44970703125,44,12.00048828125,48.4609375,12.00048828125,54L12.00048828125,108.03125C12.00048828125,113.57421875,16.44970703125,118.03125,21.97705078125,118.03125L106.02001953125,118.03125C111.55126953125,118.03125,116.00048828125,113.57421875,116.00048828125,108.03125L116.00048828125,46C116.00048828125,40.4609375,111.55126953125,36,106.02001953125,36ZM65.97705078125,36" fill="url(#render-80-a)" style="fill: url(&quot;#render-80-a&quot;);"/></g></g><g id="shape-b8e527c6-4856-8008-8006-9881f39d3b46"><g class="fills" id="fills-b8e527c6-4856-8008-8006-9881f39d3b46"><path d="M65.97705078125,32C63.23095703125,32,60.75048828125,33.1015625,58.94970703125,34.890625C56.67626953125,37.14453125,53.56689453125,40,50.31689453125,40L21.97705078125,40C16.44970703125,40,12.00048828125,44.4609375,12.00048828125,50L12.00048828125,105.9765625C12.00048828125,111.515625,16.44970703125,115.9765625,21.97705078125,115.9765625L106.02001953125,115.9765625C111.55126953125,115.9765625,116.00048828125,111.515625,116.00048828125,105.9765625L116.00048828125,42C116.00048828125,36.4609375,111.55126953125,32,106.02001953125,32ZM65.97705078125,32" style="fill: rgb(172, 199, 255); fill-opacity: 1;"/></g></g><g id="shape-b8e527c6-4856-8008-8006-9881f39d3b47" rx="0" ry="0" style="fill: rgb(0, 0, 0);"><g id="shape-b8e527c6-4856-8008-8006-9881f39d3b48"><g class="fills" id="fills-b8e527c6-4856-8008-8006-9881f39d3b48"><path d="M49.09033203125,71.9609375L48.00048828125,71.9609375L48.00048828125,88.0234375L49.03564453125,88.0234375L59.23876953125,80ZM49.09033203125,71.9609375" style="fill: rgb(81, 143, 247); fill-opacity: 1;"/></g></g><g id="shape-b8e527c6-4856-8008-8006-9881f39d3b49"><g class="fills" id="fills-b8e527c6-4856-8008-8006-9881f39d3b49"><path d="M62.00048828125,68C58.71142578125,68,56.00048828125,70.7109375,56.00048828125,74L56.00048828125,86C56.00048828125,89.2890625,58.71142578125,92,62.00048828125,92L74.00048828125,92C77.28955078125,92,80.00048828125,89.2890625,80.00048828125,86L80.00048828125,74C80.00048828125,70.7109375,77.28955078125,68,74.00048828125,68ZM62.00048828125,72L74.00048828125,72C75.14111328125,72,76.00048828125,72.859375,76.00048828125,74L76.00048828125,86C76.00048828125,87.140625,75.14111328125,88,74.00048828125,88L62.00048828125,88C60.85986328125,88,60.00048828125,87.140625,60.00048828125,86L60.00048828125,74C60.00048828125,72.859375,60.85986328125,72,62.00048828125,72ZM62.00048828125,72" style="fill: rgb(81, 143, 247); fill-opacity: 1;"/></g></g></g></g></svg>