<svg width="57" xmlns="http://www.w3.org/2000/svg" height="72" id="screenshot-953ea0fd-82bd-8032-8006-93b4c0bbe6a2" viewBox="0 0 57 72" xmlns:xlink="http://www.w3.org/1999/xlink" fill="none" version="1.1"><g id="shape-953ea0fd-82bd-8032-8006-93b4c0bbe6a2" rx="0" ry="0"><g id="shape-953ea0fd-82bd-8032-8006-93b4c0bbe6a3"><g class="fills" id="fills-953ea0fd-82bd-8032-8006-93b4c0bbe6a3"><path d="M51.81896209716797,10.28564453125C54.68029022216797,10.28564453125,57.00060272216797,12.58837890625,57.00060272216797,15.4287109375L57.00060272216797,20.5712890625C57.00060272216797,23.41162109375,54.68029022216797,25.71435546875,51.81896209716797,25.71435546875C48.95665740966797,25.71435546875,46.63732147216797,23.41162109375,46.63732147216797,20.5712890625L46.63732147216797,15.4287109375C46.63732147216797,12.58837890625,48.95665740966797,10.28564453125,51.81896209716797,10.28564453125ZM51.81896209716797,10.28564453125" style="fill: rgb(53, 132, 228); fill-opacity: 1;"/></g></g><g id="shape-953ea0fd-82bd-8032-8006-93b4c0bbe6a4"><g class="fills" id="fills-953ea0fd-82bd-8032-8006-93b4c0bbe6a4"><path d="M51.81896209716797,20.5712890625C54.68029022216797,20.5712890625,57.00060272216797,22.8740234375,57.00060272216797,25.71435546875L57.00060272216797,30.857421875C57.00060272216797,33.697265625,54.68029022216797,36,51.81896209716797,36C48.95665740966797,36,46.63732147216797,33.697265625,46.63732147216797,30.857421875L46.63732147216797,25.71435546875C46.63732147216797,22.8740234375,48.95665740966797,20.5712890625,51.81896209716797,20.5712890625ZM51.81896209716797,20.5712890625" style="fill: rgb(38, 162, 105); fill-opacity: 1;"/></g></g><g id="shape-953ea0fd-82bd-8032-8006-93b4c0bbe6a5"><g class="fills" id="fills-953ea0fd-82bd-8032-8006-93b4c0bbe6a5"><path d="M51.81896209716797,30.857421875C54.68029022216797,30.857421875,57.00060272216797,33.16015625,57.00060272216797,36L57.00060272216797,41.142578125C57.00060272216797,43.98291015625,54.68029022216797,46.28564453125,51.81896209716797,46.28564453125C48.95665740966797,46.28564453125,46.63732147216797,43.98291015625,46.63732147216797,41.142578125L46.63732147216797,36C46.63732147216797,33.16015625,48.95665740966797,30.857421875,51.81896209716797,30.857421875ZM51.81896209716797,30.857421875" style="fill: rgb(255, 163, 72); fill-opacity: 1;"/></g></g><g id="shape-953ea0fd-82bd-8032-8006-93b4c0bbe6a6"><g class="fills" id="fills-953ea0fd-82bd-8032-8006-93b4c0bbe6a6"><path d="M51.81896209716797,41.142578125C54.68029022216797,41.142578125,57.00060272216797,43.4453125,57.00060272216797,46.28564453125L57.00060272216797,51.4287109375C57.00060272216797,54.2685546875,54.68029022216797,56.5712890625,51.81896209716797,56.5712890625C48.95665740966797,56.5712890625,46.63732147216797,54.2685546875,46.63732147216797,51.4287109375L46.63732147216797,46.28564453125C46.63732147216797,43.4453125,48.95665740966797,41.142578125,51.81896209716797,41.142578125ZM51.81896209716797,41.142578125" style="fill: rgb(237, 51, 59); fill-opacity: 1;"/></g></g><g id="shape-953ea0fd-82bd-8032-8006-93b4c0bbe6a7"><g class="fills" id="fills-953ea0fd-82bd-8032-8006-93b4c0bbe6a7"><path d="M0.0006045387126505375,0L0.0006045387126505375,72L46.63732147216797,72C49.50841522216797,72,51.81896209716797,69.70703125,51.81896209716797,66.857421875L51.81896209716797,5.142578125C51.81896209716797,2.29296875,49.50841522216797,0,46.63732147216797,0ZM0.0006045387126505375,0" style="fill: rgb(145, 65, 172); fill-opacity: 1;"/></g></g><g id="shape-953ea0fd-82bd-8032-8006-93b4c0bbe6a8"><defs><linearGradient x1="92" y1="83" x2="100" y2="83" id="render-36-b" gradientUnits="userSpaceOnUse" gradientTransform="matrix(0.647727, 0.000000, 0.000000, 0.642857, -12.954545, -5.142857)"><stop offset="0" stop-color="#e8e7e4"/><stop offset=".511" stop-color="#fff"/><stop offset="1" stop-color="#c2bfba"/></linearGradient></defs><g class="fills" id="fills-953ea0fd-82bd-8032-8006-93b4c0bbe6a8"><path d="M1.295526385307312,25.71435546875L1.295526385307312,70.71435546875L46.63732147216797,70.71435546875C49.50841522216797,70.71435546875,51.81896209716797,68.421875,51.81896209716797,65.5712890625L51.81896209716797,30.857421875C51.81896209716797,28.0068359375,49.50841522216797,25.71435546875,46.63732147216797,25.71435546875ZM1.295526385307312,25.71435546875" fill="url(#render-36-b)" style="fill: url(&quot;#render-36-b&quot;);"/></g></g><g id="shape-953ea0fd-82bd-8032-8006-93b4c0bbe6a9"><g class="fills" id="fills-953ea0fd-82bd-8032-8006-93b4c0bbe6a9"><path d="M0.0006045387126505375,0L0.0006045387126505375,66.857421875L46.63732147216797,66.857421875C49.50841522216797,66.857421875,51.81896209716797,64.564453125,51.81896209716797,61.71435546875L51.81896209716797,5.142578125C51.81896209716797,2.29296875,49.50841522216797,0,46.63732147216797,0ZM0.0006045387126505375,0" style="fill: rgb(145, 65, 172); fill-opacity: 1;"/></g></g><g id="shape-953ea0fd-82bd-8032-8006-93b4c0bbe6aa"><g class="fills" id="fills-953ea0fd-82bd-8032-8006-93b4c0bbe6aa"><path d="M0.0006045387126505375,0L0.0006045387126505375,65.5712890625L46.63732147216797,65.5712890625C49.50841522216797,65.5712890625,51.81896209716797,63.27880859375,51.81896209716797,60.4287109375L51.81896209716797,5.142578125C51.81896209716797,2.29296875,49.50841522216797,0,46.63732147216797,0ZM0.0006045387126505375,0" style="fill: rgb(192, 97, 203); fill-opacity: 1;"/></g></g><g id="shape-953ea0fd-82bd-8032-8006-93b4c0bbe6ab" clip-path="url(#render-39-c)" mask="url(#render-39-d)" rx="0" ry="0" style="fill: rgb(0, 0, 0);"><defs><clipPath id="render-39-c" class="svg-def" transform="matrix(0.647727, 0.000000, 0.000000, 0.642857, -18.136364, -15.428571)"><rect height="152" width="192"/></clipPath><mask width="1.2" height="1.2" x="-0.1" id="render-39-d" data-old-y="-0.1" data-old-width="1.2" data-old-x="-0.1" y="-0.1" data-old-height="1.2"><g class="svg-mask-wrapper" transform="matrix(0.647727, 0.000000, 0.000000, 0.642857, -18.136364, -15.428571)"><g filter="url(#render-39-a)"><rect fill-opacity=".187" height="128" width="128"/></g></g></mask><filter width="1" height="1" x="0" id="render-39-a" data-old-y="0" data-old-width="1" data-old-x="0" y="0" data-old-height="1"><feColorMatrix in="SourceGraphic" values="0 0 0 0 1 0 0 0 0 1 0 0 0 0 1 0 0 0 1 0"/></filter></defs><g id="shape-953ea0fd-82bd-8032-8006-93b4c0bbe6ad"><g class="fills" id="fills-953ea0fd-82bd-8032-8006-93b4c0bbe6ad"><path d="M1.295526385307312,0L2.5914249420166016,0L2.5914249420166016,65.5712890625L1.295526385307312,65.5712890625ZM1.295526385307312,0" style="fill: rgb(255, 255, 255); fill-opacity: 1;"/></g></g></g><g id="shape-953ea0fd-82bd-8032-8006-93b4c0bbe6ac"><g class="fills" id="fills-953ea0fd-82bd-8032-8006-93b4c0bbe6ac"><path d="M24.5132999420166,33.486328125C24.5132999420166,34.681640625,24.7681827545166,35.623046875,25.2769718170166,36.3115234375C25.7955265045166,36.99951171875,26.4937686920166,37.345703125,27.3746280670166,37.345703125C28.2447452545166,37.345703125,28.9381046295166,36.99951171875,29.4566593170166,36.3115234375C29.9752140045166,35.61328125,30.2359561920166,34.671875,30.2359561920166,33.486328125C30.2359561920166,32.31103515625,29.9703311920166,31.384765625,29.4420108795166,30.70654296875C28.9254093170166,30.015625,28.2252140045166,29.671875,27.3443546295166,29.671875C26.4840030670166,29.671875,25.7955265045166,30.015625,25.2769718170166,30.70654296875C24.7681827545166,31.384765625,24.5132999420166,32.31103515625,24.5132999420166,33.486328125ZM30.5299015045166,37.8681640625C30.2359561920166,38.55859375,29.7603702545166,39.09619140625,29.1050968170166,39.4853515625C28.4605655670166,39.86474609375,27.7007999420166,40.052734375,26.8306827545166,40.052734375C25.1480655670166,40.052734375,23.7799015045166,39.4501953125,22.7242374420166,38.24755859375C21.6763858795166,37.03466796875,21.1529483795166,35.45751953125,21.1529483795166,33.5166015625C21.1529483795166,31.5751953125,21.6812686920166,29.99609375,22.7398624420166,28.783203125C23.7945499420166,27.5703125,25.1578311920166,26.96240234375,26.8306827545166,26.96240234375C27.7007999420166,26.96240234375,28.4605655670166,27.158203125,29.1050968170166,27.544921875C29.7603702545166,27.93408203125,30.2359561920166,28.47412109375,30.5299015045166,29.162109375L30.5299015045166,27.25390625L33.59435272216797,27.25390625L33.59435272216797,37.345703125C34.80821990966797,37.16015625,35.76232147216797,36.58251953125,36.45568084716797,35.61328125C37.14904022216797,34.63134765625,37.49767303466797,33.380859375,37.49767303466797,31.8564453125C37.49767303466797,30.884765625,37.35607147216797,29.978515625,37.07286834716797,29.1318359375C36.78673553466797,28.2783203125,36.35704803466797,27.4970703125,35.77989959716797,26.7890625C34.85118865966797,25.603515625,33.68712615966797,24.6923828125,32.28868865966797,24.0517578125C30.8990421295166,23.41162109375,29.3941593170166,23.08984375,27.7691593170166,23.08984375C26.6363468170166,23.08984375,25.5504093170166,23.24072265625,24.5132999420166,23.5419921875C23.4752140045166,23.83349609375,22.5191593170166,24.265625,21.6392765045166,24.837890625C20.1910343170166,25.78955078125,19.0601749420166,27.0224609375,18.2476749420166,28.537109375C17.4459171295166,30.041015625,17.0465030670166,31.6708984375,17.0465030670166,33.4287109375C17.0465030670166,34.875,17.3043155670166,36.2333984375,17.8228702545166,37.50390625C18.3521671295166,38.767578125,19.1109561920166,39.88232421875,20.0982608795166,40.85400390625C21.0748233795166,41.8056640625,22.1949405670166,42.529296875,23.4576358795166,43.0234375C24.7281436920166,43.5283203125,26.0845890045166,43.779296875,27.5211124420166,43.779296875C28.7535343170166,43.779296875,29.9859561920166,43.5537109375,31.2183780670166,43.0966796875C32.44982147216797,42.6396484375,33.50255584716797,42.0244140625,34.37364959716797,41.248046875L35.94200897216797,43.6064453125C34.71935272216797,44.5478515625,33.38439178466797,45.26611328125,31.9361515045166,45.7607421875C30.4996280670166,46.265625,29.0367374420166,46.51953125,27.5494327545166,46.51953125C25.7398624420166,46.51953125,24.0347843170166,46.19775390625,22.4302921295166,45.5576171875C20.8267765045166,44.92724609375,19.3990421295166,44.0029296875,18.1470890045166,42.7900390625C16.8951358795166,41.5771484375,15.940057754516602,40.173828125,15.285760879516602,38.58154296875C14.629510879516602,36.98193359375,14.303339004516602,35.26171875,14.303339004516602,33.4287109375C14.303339004516602,31.66064453125,14.635370254516602,29.978515625,15.301385879516602,28.3759765625C15.965448379516602,26.77392578125,16.9146671295166,25.36767578125,18.1470890045166,24.15234375C19.3795108795166,22.94921875,20.8111515045166,22.017578125,22.4459171295166,21.357421875C24.0875186920166,20.697265625,25.7906436920166,20.3681640625,27.5494327545166,20.3681640625C29.7398624420166,20.3681640625,31.7320499420166,20.78515625,33.52111053466797,21.61865234375C35.31212615966797,22.44482421875,36.80724334716797,23.64013671875,38.01134490966797,25.2021484375C38.74571990966797,26.15380859375,39.29747772216797,27.185546875,39.66857147216797,28.30322265625C40.05040740966797,29.41064453125,40.24083709716797,30.5732421875,40.24083709716797,31.79638671875C40.24083709716797,34.427734375,39.44396209716797,36.47216796875,37.84923553466797,37.9287109375C36.25548553466797,39.3828125,34.00646209716797,40.11083984375,31.1011905670166,40.11083984375L30.5299015045166,40.11083984375ZM30.5299015045166,37.8681640625" style="fill: rgb(255, 255, 255); fill-opacity: 1;"/></g></g></g></svg>