<svg width="72" xmlns="http://www.w3.org/2000/svg" height="73" id="screenshot-953ea0fd-82bd-8032-8006-93b4c0bbe6c5" viewBox="0 0 72 73" xmlns:xlink="http://www.w3.org/1999/xlink" fill="none" version="1.1"><g id="shape-953ea0fd-82bd-8032-8006-93b4c0bbe6c5" rx="0" ry="0"><g id="shape-953ea0fd-82bd-8032-8006-93b4c0bbe6c8" rx="0" ry="0"><g id="shape-953ea0fd-82bd-8032-8006-93b4c0bbe6c9" rx="0" ry="0" style="fill: rgb(0, 0, 0);"><g id="shape-953ea0fd-82bd-8032-8006-93b4c0bbe6cb"><g class="fills" id="fills-953ea0fd-82bd-8032-8006-93b4c0bbe6cb"><path d="M6.90908670425415,0C3.0819382667541504,0,0.0008835565531626344,3.0703125,0.0008835565531626344,6.884765625L0.0008835565531626344,66.115234375C0.0008835565531626344,69.9296875,3.0819382667541504,73,6.90908670425415,73L65.09268188476562,73C68.91983032226562,73,72.00088500976562,69.9296875,72.00088500976562,66.115234375L72.00088500976562,16.4853515625C72.00088500976562,14.2939453125,71.12783813476562,12.1923828125,69.57315063476562,10.6435546875C68.01846313476562,9.09375,65.91006469726562,8.2236328125,63.711822509765625,8.2236328125L31.846586227416992,8.2236328125C30.149320602416992,8.2236328125,28.596586227416992,7.26953125,27.832914352416992,5.7578125L26.791898727416992,3.69775390625C25.646390914916992,1.4306640625,23.317289352416992,0,20.770414352416992,0Z" style="display: inline; stroke-width: 8.79091; stroke-linecap: round; stop-color: rgb(0, 0, 0); fill: rgb(245, 194, 17); fill-opacity: 1;"/></g></g><g id="shape-953ea0fd-82bd-8032-8006-93b4c0bbe6cc"><g class="fills" id="fills-953ea0fd-82bd-8032-8006-93b4c0bbe6cc"><path d="M37.370025634765625,13.76953125C35.469635009765625,13.76953125,33.751861572265625,14.52734375,32.504791259765625,15.75830078125C30.930570602416992,17.3125,28.776273727416992,19.27734375,26.528226852416992,19.27734375L6.90908670425415,19.27734375C3.0819382667541504,19.27734375,0.0008835565531626344,22.34765625,0.0008835565531626344,26.16162109375L0.0008835565531626344,64.7001953125C0.0008835565531626344,68.5146484375,3.0819382667541504,71.5849609375,6.90908670425415,71.5849609375L65.09268188476562,71.5849609375C68.91983032226562,71.5849609375,72.00088500976562,68.5146484375,72.00088500976562,64.7001953125L72.00088500976562,30.29296875L72.00088500976562,26.16162109375L72.00088500976562,20.654296875C72.00088500976562,16.83984375,68.91983032226562,13.76953125,65.09268188476562,13.76953125Z" style="display: inline; stroke-width: 8.79091; stroke-linecap: round; stop-color: rgb(0, 0, 0); fill: rgb(249, 240, 107); fill-opacity: 1;"/></g></g></g><g id="shape-953ea0fd-82bd-8032-8006-93b4c0bbe6ca" rx="0" ry="0" style="fill: rgb(0, 0, 0);"><g id="shape-953ea0fd-82bd-8032-8006-93b4c0bbe6cd"><g class="fills" id="fills-953ea0fd-82bd-8032-8006-93b4c0bbe6cd"><path d="M26.308500289916992,39.9306640625L26.308500289916992,41.3076171875L37.385650634765625,41.3076171875L37.385650634765625,39.9306640625ZM26.308500289916992,39.9306640625" style="display: inline; stroke-width: 1.26428; fill: rgb(245, 194, 17); fill-opacity: 1;"/></g></g><g id="shape-953ea0fd-82bd-8032-8006-93b4c0bbe6ce"><g class="fills" id="fills-953ea0fd-82bd-8032-8006-93b4c0bbe6ce"><path d="M29.077054977416992,35.80029296875C26.800687789916992,35.80029296875,24.924711227416992,37.6669921875,24.924711227416992,39.9306640625L24.924711227416992,50.9462890625C24.924711227416992,53.2109375,26.800687789916992,55.0771484375,29.077054977416992,55.0771484375L42.924713134765625,55.0771484375C45.201080322265625,55.0771484375,47.077056884765625,53.2109375,47.077056884765625,50.9462890625L47.077056884765625,42.6845703125C47.077056884765625,40.42041015625,45.201080322265625,38.55419921875,42.924713134765625,38.55419921875L37.958892822265625,38.55419921875L35.594635009765625,36.203125C35.334869384765625,35.9453125,34.983306884765625,35.80029296875,34.616119384765625,35.80029296875ZM29.077054977416992,38.55419921875L34.042877197265625,38.55419921875L36.407135009765625,40.904296875C36.666900634765625,41.1630859375,37.018463134765625,41.3076171875,37.385650634765625,41.3076171875L42.924713134765625,41.3076171875C43.702056884765625,41.3076171875,44.308502197265625,41.91015625,44.308502197265625,42.6845703125L44.308502197265625,50.9462890625C44.308502197265625,51.7265625,43.702056884765625,52.3232421875,42.924713134765625,52.3232421875L29.077054977416992,52.3232421875C28.299711227416992,52.3232421875,27.693265914916992,51.7265625,27.693265914916992,50.9462890625L27.693265914916992,39.9306640625C27.693265914916992,39.15625,28.299711227416992,38.55419921875,29.077054977416992,38.55419921875ZM29.077054977416992,38.55419921875" style="display: inline; stroke-width: 1.26428; fill: rgb(245, 194, 17); fill-opacity: 1;"/></g></g></g></g></g></svg>