<svg width="72" xmlns="http://www.w3.org/2000/svg" height="72" id="screenshot-953ea0fd-82bd-8032-8006-93b4c0bbe6d2" viewBox="0 0 72 72" xmlns:xlink="http://www.w3.org/1999/xlink" fill="none" version="1.1"><g id="shape-953ea0fd-82bd-8032-8006-93b4c0bbe6d2" width="24" height="24" rx="0" ry="0" style="fill: rgb(0, 0, 0);"><g id="shape-953ea0fd-82bd-8032-8006-93b4c0bbe6d4"><g class="fills" id="fills-953ea0fd-82bd-8032-8006-93b4c0bbe6d4"><path d="M64,0L8,0C3.599609375,0,-3.637978807091713e-12,3.60009765625,-3.637978807091713e-12,8L-3.637978807091713e-12,64C-3.637978807091713e-12,68.39990234375,3.599609375,72,8,72L64,72C68.400390625,72,72,68.39990234375,72,64L72,8C72,3.60009765625,68.400390625,0,64,0M26,34C26,37.2001953125,23.2001953125,40,20,40L16,40L16,48L10,48L10,24L20,24C23.2001953125,24,26,26.7998046875,26,30ZM46,42C46,45.2001953125,43.2001953125,48,40,48L30,48L30,24L40,24C43.2001953125,24,46,26.7998046875,46,30ZM62,30L56,30L56,34L62,34L62,40L56,40L56,48L50,48L50,24L62,24ZM36,30L40,30L40,42L36,42ZM16,30L20,30L20,34L16,34Z"/></g></g></g></svg>