<svg width="72" xmlns="http://www.w3.org/2000/svg" height="72" id="screenshot-953ea0fd-82bd-8032-8006-93b4c0bbe6ba" viewBox="0 0 72 72" xmlns:xlink="http://www.w3.org/1999/xlink" fill="none" version="1.1"><g id="shape-953ea0fd-82bd-8032-8006-93b4c0bbe6ba" rx="0" ry="0"><g id="shape-953ea0fd-82bd-8032-8006-93b4c0bbe6bd" rx="0" ry="0" style="fill: rgb(0, 0, 0);"><g id="shape-953ea0fd-82bd-8032-8006-93b4c0bbe6be" style="opacity: 1;"><g class="fills" id="fills-953ea0fd-82bd-8032-8006-93b4c0bbe6be"><rect rx="10" ry="10" x="0" y="0" transform="matrix(1.000000, 0.000000, 0.000000, 1.000000, 0.000000, 0.000000)" width="72" height="72" style="stroke-opacity: 1; stroke: none; marker: none; paint-order: normal; stroke-dashoffset: 0; stroke-width: 1; stroke-linejoin: miter; stroke-dasharray: none; stroke-miterlimit: 4; display: inline; stroke-linecap: butt; fill: rgb(227, 226, 230); fill-opacity: 1;"/></g></g><g id="shape-953ea0fd-82bd-8032-8006-93b4c0bbe6bf" style="opacity: 1;"><g class="fills" id="fills-953ea0fd-82bd-8032-8006-93b4c0bbe6bf"><rect rx="8" ry="8" x="3" y="3" transform="matrix(1.000000, 0.000000, 0.000000, -1.000000, -0.000000, 72.000000)" width="66" height="66" style="stroke-opacity: 1; vector-effect: none; stroke: none; marker: none; paint-order: normal; stroke-dashoffset: 0; stroke-width: 0.011211px; stroke-linejoin: miter; stroke-dasharray: none; stroke-miterlimit: 4; display: inline; stroke-linecap: butt; fill: rgb(36, 31, 49); fill-opacity: 1;"/></g></g><g id="shape-953ea0fd-82bd-8032-8006-93b4c0bbe6c0" style="opacity: 0.05;"><defs><radialGradient xlink:href="#render-15-b" fx="64" cy="194.19" id="render-15-e" fy="194.19" r="44" gradientTransform="matrix(0.681818, 0.000000, 0.000000, 0.750000, 79.636364, 211.500000) matrix(-4.7272726,7.935912e-7,-3.0301491e-7,-1.6363636,238.54547,49.766183)" cx="64" gradientUnits="userSpaceOnUse"/><linearGradient id="render-15-b"><stop offset="0" style="stop-color: rgb(255, 255, 255); stop-opacity: 1;"/><stop offset="1" style="stop-color: rgb(255, 255, 255); stop-opacity: 0.0941176;"/></linearGradient></defs><g class="fills" id="fills-953ea0fd-82bd-8032-8006-93b4c0bbe6c0"><rect rx="0" ry="0" x="6" y="7.5" transform="matrix(-1.000000, 0.000000, 0.000000, -1.000000, 72.000000, 73.500000)" width="60" height="58.5" style="stroke-opacity: 1; vector-effect: none; stroke: none; marker: none; fill: url(&quot;#render-15-e&quot;); paint-order: normal; stroke-dashoffset: 0; fill-opacity: 1; stroke-width: 0.011211px; stroke-linejoin: miter; stroke-dasharray: none; stroke-miterlimit: 4; display: inline; stroke-linecap: butt;"/></g></g><g id="shape-953ea0fd-82bd-8032-8006-93b4c0bbe6c1" rx="0" ry="0" style="fill: rgb(0, 0, 0);"><g id="shape-953ea0fd-82bd-8032-8006-93b4c0bbe6c3"><g class="fills" id="fills-953ea0fd-82bd-8032-8006-93b4c0bbe6c3"><path d="M22.510555267333984,18.66552734375L12.0007905960083,12.9541015625L12.0007905960083,16.5L19.283992767333984,19.97216796875L19.283992767333984,20.0791015625L12.0007905960083,24L12.0007905960083,27.5458984375L22.510555267333984,21.38525390625Z" style="font-variant: normal; stroke: none; word-spacing: 0px; font-stretch: normal; text-anchor: start; font-feature-settings: normal; font-family: &quot;Source Code Pro&quot;; writing-mode: lr-tb; letter-spacing: 0px; stroke-width: 0.25; font-style: normal; font-weight: bold; text-align: start; display: inline; line-height: 1.25; font-size: medium; fill: rgb(255, 255, 255); fill-opacity: 1;"/></g></g><g id="shape-953ea0fd-82bd-8032-8006-93b4c0bbe6c4"><g class="fills" id="fills-953ea0fd-82bd-8032-8006-93b4c0bbe6c4"><path d="M25.500789642333984,30L25.500789642333984,33L37.500789642333984,33L37.500789642333984,30Z" style="font-variant: normal; stroke: none; word-spacing: 0px; font-stretch: normal; text-anchor: start; font-feature-settings: normal; font-family: &quot;Source Code Pro&quot;; writing-mode: lr-tb; letter-spacing: 0px; stroke-width: 0.25; font-style: normal; font-weight: bold; text-align: start; display: inline; line-height: 1.25; font-size: medium; fill: rgb(255, 255, 255); fill-opacity: 1;"/></g></g></g><g id="shape-953ea0fd-82bd-8032-8006-93b4c0bbe6c2" style="opacity: 1;"><defs><linearGradient x1="70.347" y1="245.395" x2="70.347" y2="269.137" gradientUnits="userSpaceOnUse" id="render-19-f" xlink:href="#render-19-c" gradientTransform="matrix(0.681818, 0.000000, 0.000000, 0.750000, -7.636364, -138.000000)"/><linearGradient id="render-19-c"><stop offset="0" style="stop-color: rgb(45, 40, 57); stop-opacity: 1;"/><stop offset="1" style="stop-color: rgb(40, 36, 51); stop-opacity: 1;"/></linearGradient></defs><g class="fills" id="fills-953ea0fd-82bd-8032-8006-93b4c0bbe6c2"><path d="M60.000789642333984,45L63.000789642333984,45L63.000789642333984,48L60.000789642333984,48L60.000789642333984,45M54.000789642333984,45L57.000789642333984,45L57.000789642333984,48L54.000789642333984,48L54.000789642333984,45M48.000789642333984,45L51.000789642333984,45L51.000789642333984,48L48.000789642333984,48L48.000789642333984,45M42.000789642333984,45L45.000789642333984,45L45.000789642333984,48L42.000789642333984,48L42.000789642333984,45M36.000789642333984,45L39.000789642333984,45L39.000789642333984,48L36.000789642333984,48L36.000789642333984,45M30.000789642333984,45L33.000789642333984,45L33.000789642333984,48L30.000789642333984,48L30.000789642333984,45M24.000789642333984,45L27.000789642333984,45L27.000789642333984,48L24.000789642333984,48L24.000789642333984,45M18.000789642333984,45L21.000789642333984,45L21.000789642333984,48L18.000789642333984,48L18.000789642333984,45M12.0007905960083,45L15.0007905960083,45L15.0007905960083,48L12.0007905960083,48L12.0007905960083,45M6.000790596008301,45L9.0007905960083,45L9.0007905960083,48L6.000790596008301,48L6.000790596008301,45M63.000789642333984,48L66.00079345703125,48L66.00079345703125,51L63.000789642333984,51L63.000789642333984,48M57.000789642333984,48L60.000789642333984,48L60.000789642333984,51L57.000789642333984,51L57.000789642333984,48M51.000789642333984,48L54.000789642333984,48L54.000789642333984,51L51.000789642333984,51L51.000789642333984,48M45.000789642333984,48L48.000789642333984,48L48.000789642333984,51L45.000789642333984,51L45.000789642333984,48M39.000789642333984,48L42.000789642333984,48L42.000789642333984,51L39.000789642333984,51L39.000789642333984,48M33.000789642333984,48L36.000789642333984,48L36.000789642333984,51L33.000789642333984,51L33.000789642333984,48M27.000789642333984,48L30.000789642333984,48L30.000789642333984,51L27.000789642333984,51L27.000789642333984,48M21.000789642333984,48L24.000789642333984,48L24.000789642333984,51L21.000789642333984,51L21.000789642333984,48M15.0007905960083,48L18.000789642333984,48L18.000789642333984,51L15.0007905960083,51L15.0007905960083,48M9.0007905960083,48L12.0007905960083,48L12.0007905960083,51L9.0007905960083,51L9.0007905960083,48M66.00079345703125,51L66.00079345703125,54L66.00079345703125,51M60.000789642333984,51L63.000789642333984,51L63.000789642333984,54L60.000789642333984,54L60.000789642333984,51M54.000789642333984,51L57.000789642333984,51L57.000789642333984,54L54.000789642333984,54L54.000789642333984,51M48.000789642333984,51L51.000789642333984,51L51.000789642333984,54L48.000789642333984,54L48.000789642333984,51M42.000789642333984,51L45.000789642333984,51L45.000789642333984,54L42.000789642333984,54L42.000789642333984,51M36.000789642333984,51L39.000789642333984,51L39.000789642333984,54L36.000789642333984,54L36.000789642333984,51M30.000789642333984,51L33.000789642333984,51L33.000789642333984,54L30.000789642333984,54L30.000789642333984,51M24.000789642333984,51L27.000789642333984,51L27.000789642333984,54L24.000789642333984,54L24.000789642333984,51M18.000789642333984,51L21.000789642333984,51L21.000789642333984,54L18.000789642333984,54L18.000789642333984,51M12.0007905960083,51L15.0007905960083,51L15.0007905960083,54L12.0007905960083,54L12.0007905960083,51M6.000790596008301,51L9.0007905960083,51L9.0007905960083,54L6.000790596008301,54L6.000790596008301,51M63.000789642333984,54L66.00079345703125,54L66.00079345703125,57L63.000789642333984,57L63.000789642333984,54M57.000789642333984,54L60.000789642333984,54L60.000789642333984,57L57.000789642333984,57L57.000789642333984,54M51.000789642333984,54L54.000789642333984,54L54.000789642333984,57L51.000789642333984,57L51.000789642333984,54M45.000789642333984,54L48.000789642333984,54L48.000789642333984,57L45.000789642333984,57L45.000789642333984,54M39.000789642333984,54L42.000789642333984,54L42.000789642333984,57L39.000789642333984,57L39.000789642333984,54M33.000789642333984,54L36.000789642333984,54L36.000789642333984,57L33.000789642333984,57L33.000789642333984,54M27.000789642333984,54L30.000789642333984,54L30.000789642333984,57L27.000789642333984,57L27.000789642333984,54M21.000789642333984,54L24.000789642333984,54L24.000789642333984,57L21.000789642333984,57L21.000789642333984,54M15.0007905960083,54L18.000789642333984,54L18.000789642333984,57L15.0007905960083,57L15.0007905960083,54M9.0007905960083,54L12.0007905960083,54L12.0007905960083,57L9.0007905960083,57L9.0007905960083,54M66.00079345703125,57L66.00079345703125,60L66.00079345703125,57M60.000789642333984,57L63.000789642333984,57L63.000789642333984,60L60.000789642333984,60L60.000789642333984,57M54.000789642333984,57L57.000789642333984,57L57.000789642333984,60L54.000789642333984,60L54.000789642333984,57M48.000789642333984,57L51.000789642333984,57L51.000789642333984,60L48.000789642333984,60L48.000789642333984,57M42.000789642333984,57L45.000789642333984,57L45.000789642333984,60L42.000789642333984,60L42.000789642333984,57M36.000789642333984,57L39.000789642333984,57L39.000789642333984,60L36.000789642333984,60L36.000789642333984,57M30.000789642333984,57L33.000789642333984,57L33.000789642333984,60L30.000789642333984,60L30.000789642333984,57M24.000789642333984,57L27.000789642333984,57L27.000789642333984,60L24.000789642333984,60L24.000789642333984,57M18.000789642333984,57L21.000789642333984,57L21.000789642333984,60L18.000789642333984,60L18.000789642333984,57M12.0007905960083,57L15.0007905960083,57L15.0007905960083,60L12.0007905960083,60L12.0007905960083,57M6.000790596008301,57L9.0007905960083,57L9.0007905960083,60L6.000790596008301,60L6.000790596008301,57M63.000789642333984,60L66.00079345703125,60L66.00079345703125,63L63.000789642333984,63L63.000789642333984,60M57.000789642333984,60L60.000789642333984,60L60.000789642333984,63L57.000789642333984,63L57.000789642333984,60M51.000789642333984,60L54.000789642333984,60L54.000789642333984,63L51.000789642333984,63L51.000789642333984,60M45.000789642333984,60L48.000789642333984,60L48.000789642333984,63L45.000789642333984,63L45.000789642333984,60M39.000789642333984,60L42.000789642333984,60L42.000789642333984,63L39.000789642333984,63L39.000789642333984,60M33.000789642333984,60L36.000789642333984,60L36.000789642333984,63L33.000789642333984,63L33.000789642333984,60M27.000789642333984,60L30.000789642333984,60L30.000789642333984,63L27.000789642333984,63L27.000789642333984,60M21.000789642333984,60L24.000789642333984,60L24.000789642333984,63L21.000789642333984,63L21.000789642333984,60M15.0007905960083,60L18.000789642333984,60L18.000789642333984,63L15.0007905960083,63L15.0007905960083,60M9.0007905960083,60L12.0007905960083,60L12.0007905960083,63L9.0007905960083,63L9.0007905960083,60M66.00079345703125,63L66.00079345703125,63M60.000789642333984,63L63.000789642333984,63L63.000789642333984,66L60.000789642333984,66L60.000789642333984,63M54.000789642333984,63L57.000789642333984,63L57.000789642333984,66L54.000789642333984,66L54.000789642333984,63M48.000789642333984,63L51.000789642333984,63L51.000789642333984,66L48.000789642333984,66L48.000789642333984,63M42.000789642333984,63L45.000789642333984,63L45.000789642333984,66L42.000789642333984,66L42.000789642333984,63M36.000789642333984,63L39.000789642333984,63L39.000789642333984,66L36.000789642333984,66L36.000789642333984,63M30.000789642333984,63L33.000789642333984,63L33.000789642333984,66L30.000789642333984,66L30.000789642333984,63M24.000789642333984,63L27.000789642333984,63L27.000789642333984,66L24.000789642333984,66L24.000789642333984,63M18.000789642333984,63L21.000789642333984,63L21.000789642333984,66L18.000789642333984,66L18.000789642333984,63M12.0007905960083,63L15.0007905960083,63L15.0007905960083,66L12.0007905960083,66L12.0007905960083,63M6.000790596008301,63L9.0007905960083,63L9.0007905960083,66L6.000790596008301,66L6.000790596008301,63" style="stroke-opacity: 1; vector-effect: none; stroke: none; marker: none; fill: url(&quot;#render-19-f&quot;); paint-order: normal; stroke-dashoffset: 0; fill-opacity: 1; stroke-width: 8; stroke-linejoin: round; stroke-dasharray: none; stroke-miterlimit: 4; display: inline; stroke-linecap: round;"/></g></g></g></g></svg>