<svg width="32" xmlns="http://www.w3.org/2000/svg" height="32" id="screenshot-51aa5b83-99dd-8061-8006-93bcda545cc3" viewBox="0 0 32 32" xmlns:xlink="http://www.w3.org/1999/xlink" fill="none" version="1.1"><g id="shape-51aa5b83-99dd-8061-8006-93bcda545cc3" width="24" height="24" rx="0" ry="0" style="fill: rgb(0, 0, 0);"><g id="shape-51aa5b83-99dd-8061-8006-93bcda545cc4" style="display: none;"><g class="fills" id="fills-51aa5b83-99dd-8061-8006-93bcda545cc4"><rect width="32" height="32" x="0" transform="matrix(1.000000, 0.000000, 0.000000, 1.000000, 0.000000, 0.000000)" style="fill: none;" ry="0" fill="none" rx="0" y="0"/></g></g><g id="shape-51aa5b83-99dd-8061-8006-93bcda545cc5" rx="0" ry="0" style="fill: rgb(0, 0, 0);"><g id="shape-51aa5b83-99dd-8061-8006-93bcda545cc6"><g class="fills" id="fills-51aa5b83-99dd-8061-8006-93bcda545cc6"><path d="M16.7919921875,31.0107421875L16.7763671875,31.013671875L16.6806640625,31.0595703125L16.6552734375,31.0654296875L16.6357421875,31.0595703125L16.5419921875,31.01171875C16.52734375,31.0087890625,16.5166015625,31.0107421875,16.5087890625,31.01953125L16.50390625,31.033203125L16.4814453125,31.603515625L16.48828125,31.630859375L16.5009765625,31.6484375L16.640625,31.7470703125L16.66015625,31.751953125L16.67578125,31.7470703125L16.8154296875,31.6484375L16.8310546875,31.626953125L16.8359375,31.603515625L16.8134765625,31.0341796875C16.8095703125,31.0205078125,16.8017578125,31.0126953125,16.7919921875,31.0107421875M17.14453125,30.8603515625L17.125,30.8623046875L16.8798828125,30.986328125L16.8671875,31L16.86328125,31.0146484375L16.88671875,31.587890625L16.8935546875,31.603515625L16.9033203125,31.6142578125L17.171875,31.7373046875C17.1884765625,31.7421875,17.2021484375,31.73828125,17.2109375,31.7265625L17.2158203125,31.7080078125L17.1708984375,30.8896484375C17.1669921875,30.8720703125,17.1572265625,30.8623046875,17.14453125,30.8603515625M16.1904296875,30.8623046875C16.1787109375,30.85546875,16.1630859375,30.8583984375,16.1552734375,30.87109375L16.1474609375,30.8896484375L16.1015625,31.7080078125C16.1025390625,31.7236328125,16.109375,31.734375,16.1240234375,31.740234375L16.14453125,31.7373046875L16.4111328125,31.61328125L16.42578125,31.6025390625L16.4296875,31.587890625L16.453125,31.0146484375L16.44921875,30.9990234375L16.4365234375,30.9853515625Z" fill="none" style="fill: none;"/></g></g><g id="shape-51aa5b83-99dd-8061-8006-93bcda545cc7"><g class="fills" id="fills-51aa5b83-99dd-8061-8006-93bcda545cc7"><path d="M28.3173828125,22.66650390625L26.0078125,26.66650390625C25.5703125,27.4248046875,24.7880859375,27.9189453125,23.9150390625,27.990234375L23.6982421875,28L8.30078125,28C7.9677734375,27.9990234375,7.6494140625,27.9404296875,7.3466796875,27.822265625L7.1259765625,27.7265625L10.046875,22.66650390625ZM11.4365234375,4.4521484375L14.4599609375,9.6904296875L5.3271484375,25.51171875L2.9111328125,21.3330078125C2.4365234375,20.5078125,2.4365234375,19.49169921875,2.9111328125,18.66650390625L10.6103515625,5.3330078125C10.8193359375,4.97314453125,11.1025390625,4.6748046875,11.4365234375,4.4521484375M19.078125,4C19.9541015625,3.99951171875,20.7734375,4.4287109375,21.2724609375,5.14794921875L21.38671875,5.3330078125L29.0859375,18.66650390625C29.2841796875,19.0107421875,29.3994140625,19.38671875,29.4326171875,19.7705078125L29.4423828125,20L23.4912109375,20L14.25390625,4ZM16,12.357421875L20.4130859375,20L11.5869140625,20Z" style="fill: rgb(0, 0, 0); fill-opacity: 1;"/></g></g></g></g></svg>